SplineFontDB: 3.0
FontName: Pacifico
FullName: Pacifico
FamilyName: Pacifico
Weight: Book
Copyright: Copyright (c) 2011 by vernon adams. All rights reserved.
Version: 1.000
ItalicAngle: 0
UnderlinePosition: -103
UnderlineWidth: 102
Ascent: 1638
Descent: 410
sfntRevision: 0x00010000
LayerCount: 2
Layer: 0 0 "Back"  1
Layer: 1 0 "Fore"  0
XUID: [1021 846 39740748 13323642]
FSType: 0
OS2Version: 3
OS2_WeightWidthSlopeOnly: 0
OS2_UseTypoMetrics: 1
CreationTime: 1297379580
ModificationTime: 1326806270
PfmFamily: 17
TTFWeight: 400
TTFWidth: 5
LineGap: 0
VLineGap: 0
Panose: 2 0 0 0 0 0 0 0 0 0
OS2TypoAscent: 1243
OS2TypoAOffset: 1
OS2TypoDescent: -518
OS2TypoDOffset: 1
OS2TypoLinegap: 0
OS2WinAscent: 0
OS2WinAOffset: 1
OS2WinDescent: 0
OS2WinDOffset: 1
HheadAscent: 0
HheadAOffset: 1
HheadDescent: 0
HheadDOffset: 1
OS2SubXSize: 1434
OS2SubYSize: 1331
OS2SubXOff: 0
OS2SubYOff: 287
OS2SupXSize: 1434
OS2SupYSize: 1331
OS2SupXOff: 0
OS2SupYOff: 977
OS2StrikeYSize: 102
OS2StrikeYPos: 512
OS2Vendor: 'newt'
OS2CodePages: 20000111.40000000
OS2UnicodeRanges: 8000002f.4000004b.00000000.00000000
Lookup: 4 0 1 "'liga' Ligatures lookup 0"  {"'liga' Ligatures lookup 0 subtable"  } ['liga' ('DFLT' <'dflt' > 'latn' <'dflt' > ) ]
Lookup: 258 0 0 "'kern' Horizontal Kerning lookup 0"  {"'kern' Horizontal Kerning lookup 0 per glyph data 0" [307,30,0] "'kern' Horizontal Kerning lookup 0 kerning class 1" [307,0,0] } ['kern' ('latn' <'dflt' > ) ]
MarkAttachClasses: 1
DEI: 91125
KernClass2: 11+ 20 "'kern' Horizontal Kerning lookup 0 kerning class 1" 
 1 F
 1 K
 1 L
 1 P
 1 T
 1 V
 1 W
 1 r
 1 v
 1 w
 18 Y Yacute Ydieresis
 50 a aring acircumflex agrave aacute adieresis atilde
 37 e ecircumflex eacute edieresis egrave
 44 o ocircumflex odieresis ograve oacute otilde
 37 u ucircumflex ugrave uacute udieresis
 18 y yacute ydieresis
 10 c ccedilla
 8 n ntilde
 8 s scaron
 37 i igrave iacute icircumflex idieresis
 50 A Agrave Aacute Acircumflex Atilde Adieresis Aring
 8 z zcaron
 5 comma
 1 g
 1 m

StartChar: c
Encoding: 69 99 4
Width: 756
Flags: W
HStem: 0 192<373.208 611.041> 768 192<401.872 528.143>
VStem: 64 256<248.297 663.043> 529 207<587.618 761.891>
LayerCount: 2
Fore
SplineSet
320 414 m 0
 320 296 360 192 480 192 c 0
 659 192 822 392 905 497 c 1
 974 381 l 1
 866 228 736 78 542 16 c 0
 508 5 472 0 437 0 c 0
 199 0 64 177 64 413 c 0
 64 682 209 960 474 960 c 0
 621 960 736 874 736 729 c 0
 736 638 691 544 602 544 c 0
 540 544 526 578 526 638 c 0
 526 660 529 690 529 712 c 0
 529 739 527 768 502 768 c 0
 351 768 320 566 320 414 c 0
EndSplineSet
EndChar

StartChar: f
Encoding: 72 102 5
Width: 687
Flags: W
HStem: -604 225<288.733 386.416> 397 190<504.462 765.585> 1631 225<573.169 706.969>
VStem: 37 225<-367.051 438.111> 426 209<-318.57 212.442> 716 182<1389.7 1695.88>
LayerCount: 2
Fore
SplineSet
302 -604 m 256
 68 -604 37 -276 37 -38 c 0
 37 494 134 1053 292 1454 c 0
 359 1625 466 1856 686 1856 c 0
 819 1856 898 1762 898 1624 c 0
 898 1442 814 1281 748 1144 c 0
 655 952 540 763 414 603 c 1
 443 593 490 587 529 587 c 0
 710 587 848 652 938 740 c 1
 916 497 l 1
 804 436 662 404 504 397 c 1
 566 283 635 142 635 -29 c 0
 635 -267 540 -604 302 -604 c 256
323 -379 m 0
 427 -379 426 -167 426 -57 c 0
 426 107 390 300 330 415 c 0
 321 433 312 442 304 442 c 0
 277 442 263 110 263 59 c 0
 263 33 262 -5 262 -47 c 0
 262 -187 269 -379 323 -379 c 0
716 1529 m 0
 716 1583 705 1631 660 1631 c 0
 590 1631 569 1589 547 1533 c 0
 451 1295 404 1100 368 816 c 1
 473 1013 597 1216 684 1418 c 0
 705 1467 716 1504 716 1529 c 0
EndSplineSet
EndChar

StartChar: i
Encoding: 75 105 6
Width: 527
Flags: W
HStem: 0 192<208.5 472.888> 213 203<525 728> 940 20G<366.5 430> 1089 319<338.606 589.924>
VStem: 88 256<193.631 525.941> 281 366<1145.59 1352.11>
LayerCount: 2
Fore
SplineSet
344 290 m 4xf8
 344 240 349 192 395 192 c 4
 526 192 650 352 728 416 c 5
 728 213 l 5
 628 121 458 0 274 0 c 5
 143 0 88 71 88 201 c 4
 88 438 174 661 224 863 c 4
 240 928 327 960 406 960 c 4
 454 960 478 945 478 903 c 4
 478 695 344 514 344 290 c 4xf8
453 1089 m 4
 346 1089 281 1140 281 1241 c 4
 281 1345 367 1408 477 1408 c 4
 575 1408 647 1366 647 1268 c 4xf4
 647 1155 569 1089 453 1089 c 4
EndSplineSet
EndChar

StartChar: n
Encoding: 80 110 7
Width: 947
Flags: W
HStem: 0 224<677.5 922.165> 940 20G<289.5 362.5 698.5 778.5>
VStem: 114 268<544 662.351> 592 201<226.704 588.268>
LayerCount: 2
Fore
SplineSet
592 264 m 0
 592 378 606 485 622 591 c 1
 606 591 l 1
 344 71 l 2
 322 27 297 0 241 0 c 0
 132 0 114 100 114 209 c 0
 114 431 154 667 198 852 c 0
 212 911 253 960 326 960 c 256
 399 960 422 911 422 839 c 0
 422 739 382 640 382 544 c 1
 402 544 l 1
 458 647 517 765 576 866 c 0
 612 926 657 960 740 960 c 256
 817 960 849 886 849 802 c 0
 849 625 793 424 793 315 c 0
 793 245 813 224 850 224 c 0
 916 224 978 287 1019 319 c 0
 1054 347 1091 379 1130 415 c 1
 1147 191 l 1
 1030 109 911 0 724 0 c 256
 631 0 592 138 592 264 c 0
EndSplineSet
EndChar

StartChar: P
Encoding: 50 80 8
Width: 1551
Flags: W
HStem: -255 234<470.683 658.351> 965 20G<557.5 610> 1588 235<737.731 1237.13>
VStem: 100 268<214.673 1047.25> 775 241<160.125 690.332> 1467 235<1105.64 1405.74>
LayerCount: 2
Fore
SplineSet
100 667 m 0
 100 1259 382 1823 958 1823 c 0
 1372 1823 1702 1636 1702 1256 c 0
 1702 913 1367 734 1023 686 c 1
 1021 637 1019 593 1018 552 c 2
 1016 500 l 2
 1015 463 1013 427 1013 393 c 0
 1004 81 853 -255 536 -255 c 0
 172 -255 100 308 100 667 c 0
1467 1243 m 0
 1467 1503 1227 1588 935 1588 c 0
 518 1588 368 1113 368 693 c 0
 368 473 352 -21 558 -21 c 0
 770 -21 775 406 775 627 c 2
 775 674 l 1
 663 719 536 747 536 888 c 0
 536 931 536 985 579 985 c 0
 641 985 706 923 765 910 c 1
 765 1108 794 1356 992 1356 c 0
 1051 1356 1100 1333 1100 1273 c 0
 1100 1264 1099 1264 1099 1257 c 1
 1038 1000 l 1
 1029 921 l 1
 1246 950 1467 1040 1467 1243 c 0
EndSplineSet
EndChar

StartChar: d
Encoding: 70 100 9
Width: 1036
Flags: W
HStem: 0 191<201.245 461.021> 1 244<847.294 1005.92> 1688 232<917.308 1102>
VStem: 35 240<201.86 506.503> 549 240<718.908 756 899.954 1308.95> 564 269<279.189 591.044> 1025 180<1287.13 1686.85>
LayerCount: 2
Fore
SplineSet
275 308 m 0xba
 275 240 296 191 355 191 c 0
 448 191 520 274 564 329 c 1xb6
 560 356 549 756 549 756 c 1
 407 687 275 510 275 308 c 0xba
833 391 m 0
 833 328 842 245 903 245 c 0
 979 245 1044 302 1092 336 c 0
 1129 363 1167 393 1207 427 c 1
 1237 196 l 1
 1139 120 1042 47 912 10 c 0
 892 4 875 1 858 1 c 0x76
 745 1 671 90 635 178 c 1
 554 99 441 0 289 0 c 0
 115 0 35 156 35 330 c 0
 35 640 263 879 545 905 c 1
 554 1299 664 1719 909 1880 c 0
 949 1906 990 1920 1033 1920 c 0
 1171 1920 1205 1767 1205 1626 c 0
 1205 1191 996 882 863 564 c 0
 844 518 833 453 833 391 c 0
1025 1592 m 0
 1025 1640 1023 1688 988 1688 c 0
 798 1688 789 939 789 764 c 0
 789 731 789 731 789 713 c 1x3a
 896 957 1025 1256 1025 1592 c 0
EndSplineSet
EndChar

StartChar: a
Encoding: 67 97 10
Width: 928
Flags: W
HStem: 0 224<803.238 949.283> 0 192<237.5 477.896> 768 190<503.516 629.204>
VStem: 64 256<201.447 524.198>
LayerCount: 2
Fore
SplineSet
800 324 m 0x70
 800 275 802 224 845 224 c 0
 923 224 987 301 1027 345 c 0
 1060 381 1093 422 1126 467 c 1
 1174 245 l 1
 1104 147 976 0 813 0 c 0xb0
 707 0 661 74 627 161 c 1
 563 86 450 0 315 0 c 0
 160 0 64 123 64 281 c 0
 64 583 257 834 468 928 c 0
 512 948 557 958 603 958 c 0
 676 958 663 882 747 882 c 0
 762 882 777 883 792 883 c 0
 849 883 864 849 864 790 c 0
 864 627 800 490 800 324 c 0x70
320 324 m 0
 320 260 334 192 398 192 c 0x70
 506 192 551 380 570 474 c 2
 631 768 l 1
 444 768 320 508 320 324 c 0
EndSplineSet
EndChar

StartChar: e
Encoding: 71 101 11
Width: 740
Flags: W
HStem: 0 192<349.685 638.304> 771 188<375.167 533.656>
VStem: 50 243<450 662.349> 543 178<571.512 764.749>
LayerCount: 2
Fore
SplineSet
316 303 m 1
 334 244 368 192 442 192 c 0
 660 192 837 351 949 460 c 0
 959 469 971 472 983 472 c 0
 1027 472 1075 419 1075 371 c 0
 1075 353 1066 337 1051 321 c 0
 907 172 709 0 426 0 c 0
 183 0 50 176 50 417 c 0
 50 687 190 959 458 959 c 0
 612 959 721 863 721 709 c 0
 721 486 496 353 316 303 c 1
543 678 m 0
 543 731 518 771 470 771 c 0
 341 771 293 586 293 450 c 1
 393 472 543 558 543 678 c 0
EndSplineSet
EndChar

StartChar: m
Encoding: 79 109 12
Width: 1336
Flags: W
HStem: -1 200<1171.47 1327.33> 944 20G<314 372.5 722 765.5 1114 1158.5>
VStem: 114 318<209 869> 114 232<31.7529 160.275> 971 223<199.141 583.042>
LayerCount: 2
Fore
SplineSet
660 0 m 0xe8
 574 0 562 101 562 187 c 0
 562 327 593 452 616 585 c 1
 601 585 l 1
 541 510 508 408 458 302 c 0
 429 240 392 163 346 70 c 0xd8
 324 26 297 0 241 0 c 0
 132 0 114 100 114 209 c 0xe8
 114 439 159 678 218 862 c 0
 236 916 282 964 346 964 c 0xd8
 399 964 432 926 432 869 c 0
 432 757 409 660 393 558 c 1
 404 546 l 1
 484 665 552 843 660 933 c 0
 682 951 707 960 737 960 c 0
 794 960 839 924 839 866 c 0
 839 747 784 661 784 558 c 1
 795 546 l 1
 875 666 954 834 1057 932 c 0
 1076 950 1100 960 1128 960 c 0
 1189 960 1240 927 1240 866 c 0
 1240 682 1194 545 1194 361 c 0
 1194 298 1200 199 1222 199 c 0
 1343 199 1459 371 1521 446 c 1
 1538 210 l 1
 1438 121 1334 -1 1151 -1 c 0
 1141 -1 1131 -1 1121 0 c 0
 988 9 971 121 971 237 c 0
 971 359 982 475 1010 588 c 1
 995 588 l 1
 792 71 l 2
 771 19 729 0 660 0 c 0xe8
EndSplineSet
EndChar

StartChar: h
Encoding: 74 104 13
Width: 999
Flags: W
HStem: 0 236<726 963.486> 958 20G<845 890.5> 1729 191<581.6 734>
VStem: 577 250<163 481.394> 652 193<1419.68 1726.52>
LayerCount: 2
Fore
SplineSet
665 1920 m 0xf0
 803 1920 845 1836 845 1699 c 0xe8
 845 1414 701 1163 600 958 c 0
 546 849 484 734 431 636 c 1
 451 622 l 1
 536 734 639 865 758 942 c 0
 794 966 829 978 861 978 c 0
 920 978 948 931 948 868 c 0
 948 673 827 503 827 301 c 0
 827 269 832 236 861 236 c 0
 950 236 1024 310 1073 357 c 0
 1111 392 1149 433 1186 478 c 1
 1203 212 l 1
 1102 134 960 0 791 0 c 0
 661 0 577 100 577 226 c 0
 577 384 636 534 687 648 c 0
 694 663 698 672 700 674 c 1
 679 677 l 1
 581 614 493 462 424 354 c 0
 363 258 323 141 262 44 c 0
 246 19 230 0 192 0 c 0
 97 0 95 126 95 223 c 0
 95 772 131 1357 342 1706 c 0
 408 1816 505 1920 665 1920 c 0xf0
314 710 m 1
 387 880 473 1069 540 1240 c 0
 596 1382 652 1513 652 1653 c 0
 652 1704 645 1729 632 1729 c 0
 615 1729 589 1701 555 1644 c 0
 521 1587 474 1508 435 1397 c 0
 365 1196 333 952 314 710 c 1
EndSplineSet
EndChar

StartChar: u
Encoding: 87 117 14
Width: 948
Flags: HW
HStem: 0 225<214.804 433.177> 10 193<695.664 944.712> 939 20G<236.469 351.269 736.5 787.5>
VStem: 77 237<234.38 654.366> 640 232<828.438 943.459>
LayerCount: 2
Fore
SplineSet
298 0 m 0xb8
 131 0 77 130 77 320 c 0
 77 499 141 959 332 959 c 0
 371 959 422 939 422 872 c 0
 422 867 422 862 421 857 c 1
 349 657 314 497 314 328 c 0
 314 279 334 225 392 225 c 0xb8
 479 225 526 319 541 394 c 2
 640 902 l 2
 648 939 712 959 761 959 c 0
 814 959 872 941 872 895 c 0
 872 680 783 489 783 278 c 0
 783 234 790 203 831 203 c 0
 977 203 1144 368 1210 454 c 1
 1210 414 1211 380 1211 342 c 0
 1211 305 1212 273 1212 234 c 1
 1111 133 931 10 741 10 c 0x78
 650 10 569 80 569 178 c 0
 569 190 570 202 573 215 c 1
 513 88 411 0 298 0 c 0xb8
EndSplineSet
EndChar

StartChar: l
Encoding: 78 108 15
Width: 543
Flags: W
HStem: 0 244<234 507.99> 1641 279<542.162 762.5>
VStem: 72 258<254.549 1016.15> 661 188<1397.2 1752>
LayerCount: 2
Fore
SplineSet
330 461 m 256
 330 397 340 244 396 244 c 0
 477 244 551 305 604 340 c 0
 646 368 690 400 736 437 c 1
 818 227 l 1
 693 137 568 50 402 10 c 0
 376 4 352 0 329 0 c 0
 139 0 72 320 72 519 c 0
 72 998 187 1476 402 1748 c 0
 472 1837 565 1920 705 1920 c 0
 820 1920 849 1810 849 1694 c 0
 849 1341 682 1047 534 821 c 0
 474 729 411 644 348 565 c 0
 333 546 330 498 330 461 c 256
661 1593 m 0
 661 1620 651 1641 630 1641 c 0
 404 1641 320 975 320 740 c 1
 442 955 565 1198 636 1460 c 0
 649 1508 661 1552 661 1593 c 0
EndSplineSet
EndChar

StartChar: o
Encoding: 81 111 16
Width: 853
Flags: W
HStem: 0 192<334.865 517.935> 768 192<400.662 572.385>
VStem: 67 224<239.627 615.387> 611 192<325.693 719.331>
LayerCount: 2
Fore
SplineSet
67 437 m 0
 67 739 243 960 545 960 c 0
 832 960 1001 769 1130 606 c 1
 1111 465 l 1
 1025 580 873 680 753 760 c 1
 745 749 l 1
 778 683 803 595 803 503 c 256
 803 246 651 0 397 0 c 0
 166 0 67 206 67 437 c 0
291 396 m 0
 291 287 327 192 436 192 c 0
 554 192 611 425 611 551 c 0
 611 650 590 768 494 768 c 0
 359 768 291 538 291 396 c 0
EndSplineSet
EndChar

StartChar: k
Encoding: 77 107 17
Width: 957
Flags: HW
HStem: -1 194<671.5 915.138> 694 268<684 906> 1682 225<521.79 726.5>
VStem: 514 229<197.583 355.233> 631 201<1484.22 1751> 739 284<620.462 843.688>
LayerCount: 2
Fore
SplineSet
660 1907 m 0xe4
 793 1907 832 1817 832 1685 c 0xe8
 832 1320 646 996 509 752 c 1
 396 572 l 1
 414 559 l 1
 520 686 599 845 735 930 c 0
 769 951 808 962 851 962 c 0
 961 962 1023 889 1023 776 c 0xe4
 1023 590 835 447 764 320 c 0
 750 296 743 276 743 260 c 0
 743 211 766 193 815 193 c 0
 934 193 1040 393 1099 456 c 1
 1159 251 l 1
 1053 132 950 -1 732 -1 c 0
 611 -1 514 86 514 205 c 0xf0
 514 390 655 509 728 638 c 0
 735 650 739 662 739 671 c 0
 739 689 726 694 704 694 c 0
 664 694 637 626 607 587 c 2
 530 486 l 2
 439 367 354 -8 173 -8 c 0
 96 -8 83 126 83 230 c 0
 83 776 147 1347 356 1698 c 0
 416 1799 507 1907 660 1907 c 0xe4
610 1682 m 0
 377 1682 301 907 278 675 c 1
 383 959 502 1247 602 1523 c 0
 616 1562 631 1607 631 1650 c 0
 631 1671 624 1682 610 1682 c 0
EndSplineSet
EndChar

StartChar: b
Encoding: 68 98 18
Width: 964
Flags: W
HStem: 2 190<315.391 595.996> 732 228<456.5 765.321> 1728 192<550.722 659.771>
VStem: 666 192<1399.48 1725.66> 698 226<380.585 709.553>
LayerCount: 2
Fore
SplineSet
624 1920 m 0xe8
 818 1920 858 1784 858 1591 c 0xf0
 858 1347 713 1149 602 997 c 0
 555 933 509 873 462 816 c 1
 478 805 l 1
 527 867 589 960 673 960 c 0
 854 960 924 799 924 618 c 0
 924 482 888 363 826 288 c 1
 936 352 1038 407 1127 496 c 1
 1204 331 l 1
 1075 214 930 142 730 96 c 1
 668 37 590 2 482 2 c 0
 317 2 176 69 76 137 c 0
 64 145 59 150 58 152 c 0
 76 638 165 1123 300 1512 c 0
 348 1649 409 1781 498 1865 c 0
 537 1902 579 1920 624 1920 c 0xe8
698 607 m 0xe8
 698 692 655 732 568 732 c 0
 345 732 332 431 314 225 c 1
 369 208 433 192 502 192 c 0
 653 192 698 450 698 607 c 0xe8
346 895 m 1
 464 1122 666 1330 666 1648 c 0xf0
 666 1683 651 1728 615 1728 c 0
 457 1728 369 1019 346 895 c 1
EndSplineSet
EndChar

StartChar: N
Encoding: 48 78 19
Width: 1693
Flags: HW
HStem: -41 232<1367.97 1614.09> 1471 225<276.523 387.215> 1472 256<1043.08 1299>
VStem: 390 224<1077.86 1467.17> 1046 266<245.466 819.644> 1212 228<1080.4 1464.25>
LayerCount: 2
Fore
SplineSet
614 1402 m 256xd4
 614 1165 538 960 481 767 c 1
 498 761 l 1
 603 1066 709 1347 890 1552 c 0
 973 1646 1065 1728 1223 1728 c 0
 1375 1728 1440 1578 1440 1427 c 0xb4
 1440 1088 1312 815 1312 467 c 0
 1312 339 1332 191 1460 191 c 0
 1650 191 1813 388 1902 494 c 0
 1916 510 1923 519 1923 520 c 2
 1983 303 l 1
 1865 144 1662 -41 1395 -41 c 0
 1124 -41 1046 233 1046 505 c 0xb8
 1046 781 1153 975 1200 1208 c 0
 1208 1249 1212 1289 1212 1327 c 0
 1212 1387 1203 1472 1143 1472 c 0xb4
 1019 1472 933 1272 884 1174 c 0
 720 845 603 451 473 85 c 0
 451 23 403 -14 327 -14 c 0
 241 -14 192 68 192 154 c 0
 192 413 285 630 326 866 c 0
 356 1035 377 1203 390 1391 c 1
 390 1414 l 2
 390 1442 383 1471 354 1471 c 0
 291 1471 237 1377 212 1339 c 0
 181 1292 145 1196 79 1196 c 0
 44 1196 -2 1241 -2 1275 c 0
 -2 1456 183 1696 360 1696 c 4
 543 1696 614 1585 614 1402 c 256xd4
EndSplineSet
EndChar

StartChar: M
Encoding: 47 77 20
Width: 2201
Flags: W
HStem: 0 224<1923.96 2120.05> 1472 252<920.49 1150 1633.32 1908.5> 1516 186<187.042 388.811>
VStem: -120 197<1171.22 1329.78> 306 204<1062.83 1510.11> 1085 193<1096.68 1448.28> 1656 256<232.417 601.169> 1807 258<918.59 1456.71>
LayerCount: 2
Fore
SplineSet
1085 1208 m 0xdd
 1085 1221 1085 1234 1085 1247 c 0
 1085 1354 1080 1472 982 1472 c 0xdd
 923 1472 872 1381 840 1329 c 0
 664 1045 536 671 449 304 c 0
 415 161 445 -1 264 -1 c 0
 199 -1 129 23 129 87 c 0
 129 291 201 458 230 640 c 0
 268 879 306 1144 306 1406 c 2
 306 1412 l 2
 306 1465 305 1516 260 1516 c 0
 157 1516 128 1338 77 1199 c 1
 55 1163 22 1148 -11 1148 c 0
 -66 1148 -120 1194 -120 1268 c 3
 -120 1489 130 1702 299 1702 c 0xbd
 475 1702 510 1555 510 1377 c 0
 510 1267 508 1157 506 1051 c 1
 573 1258 693 1460 818 1594 c 0
 879 1659 960 1724 1067 1724 c 0
 1233 1724 1278 1557 1278 1384 c 0
 1278 1283 1256 1192 1243 1092 c 1
 1264 1093 l 1
 1330 1343 1442 1579 1641 1686 c 0
 1696 1715 1752 1730 1811 1730 c 0
 2006 1730 2065 1481 2065 1278 c 0xdd
 2065 966 1972 716 1924 448 c 0
 1916 405 1912 367 1912 336 c 0
 1912 267 1933 224 1996 224 c 0
 2098 224 2180 316 2233 371 c 0
 2275 414 2321 460 2359 518 c 0
 2385 556 2408 579 2429 579 c 0
 2450 579 2466 558 2466 516 c 0
 2466 473 2454 406 2406 321 c 0
 2316 162 2178 0 1941 0 c 0
 1769 0 1656 121 1656 296 c 0xde
 1656 644 1807 916 1807 1275 c 0
 1807 1365 1808 1472 1721 1472 c 0
 1520 1472 1434 1147 1384 986 c 0
 1299 714 1247 401 1188 102 c 0
 1173 28 1119 -6 1062 -6 c 0
 992 -6 920 47 920 144 c 0
 920 283 973 439 1002 580 c 0
 1041 772 1085 986 1085 1208 c 0xdd
EndSplineSet
EndChar

StartChar: R
Encoding: 52 82 21
Width: 1800
Flags: HW
HStem: -192 224<460.18 664.582> -96 224<1356.37 1778.53> 744 202<1029 1117.99> 1504 224<918.012 1434.13>
VStem: 74 256<214.172 836.182> 807 253<973.998 1199.8> 1578 256<1111.98 1384.84>
LayerCount: 2
Fore
SplineSet
1611 128 m 1x7e
 1744 128 1858 216 1930 286 c 1
 2046 90 l 1
 1916 6 1758 -96 1545 -96 c 0x7e
 1179 -96 1269 499 1118 708 c 0
 1101 732 1079 744 1053 744 c 2
 990 744 l 1
 959 407 927 36 736 -128 c 0
 686 -171 626 -192 554 -192 c 0xbe
 209 -192 74 198 74 540 c 0
 74 1141 445 1545 910 1683 c 0
 1011 1713 1118 1728 1231 1728 c 0
 1544 1728 1834 1572 1834 1263 c 0
 1834 939 1499 795 1190 776 c 1
 1389 702 1443 522 1490 298 c 0
 1506 224 1527 128 1611 128 c 1x7e
1578 1255 m 0
 1578 1431 1397 1504 1213 1504 c 0
 633 1504 330 1058 330 487 c 0
 330 286 383 32 580 32 c 0xbe
 775 32 777 580 777 767 c 1
 708 800 618 834 618 910 c 0
 618 948 627 989 666 989 c 0
 710 989 763 972 806 972 c 1
 807 993 l 1
 815 1121 842 1280 977 1280 c 0
 1037 1280 1060 1254 1060 1200 c 2
 1060 1191 l 1
 1058 1115 1038 1032 1029 946 c 1
 1290 951 1578 1012 1578 1255 c 0
EndSplineSet
EndChar

StartChar: t
Encoding: 86 116 22
Width: 767
Flags: W
HStem: -9 213<449.568 695.228> 896 158<603.519 932.549> 928 161<-32.1587 158.559> 1568 224<507.596 615.171>
VStem: 140 226<310.155 765.894> 620 160<1338.26 1565.82>
LayerCount: 2
Fore
SplineSet
752 1054 m 0xdc
 767 1054 782 1054 796 1054 c 0
 887 1054 940 1049 940 975 c 0
 940 935 913 896 876 896 c 2
 492 896 l 1xdc
 457 847 415 793 379 748 c 1
 372 689 366 631 366 570 c 0
 366 359 417 204 557 204 c 0
 720 204 854 388 940 480 c 0
 948 489 958 494 970 494 c 0
 1003 494 1043 460 1043 409 c 0
 1043 389 1037 365 1020 341 c 0
 893 155 738 -9 538 -9 c 0
 193 -9 140 348 140 665 c 0
 140 753 148 847 159 928 c 1
 107 934 77 939 18 946 c 0
 -28 952 -46 978 -46 1037 c 0
 -46 1080 11 1089 78 1089 c 0xbc
 100 1089 125 1085 144 1085 c 0
 161 1085 176 1086 187 1088 c 1
 235 1329 317 1591 461 1732 c 0
 502 1772 544 1792 589 1792 c 0
 723 1792 780 1637 780 1499 c 0
 780 1318 678 1174 603 1055 c 1
 614 1054 629 1053 648 1053 c 0
 677 1053 715 1054 752 1054 c 0xdc
378 1080 m 1
 399 1077 418 1076 439 1073 c 1
 498 1173 563 1291 603 1408 c 0
 614 1441 620 1469 620 1490 c 0
 620 1532 610 1568 567 1568 c 0
 460 1568 400 1178 378 1080 c 1
EndSplineSet
EndChar

StartChar: D
Encoding: 38 68 23
Width: 1430
Flags: HW
HStem: -60 188<423.838 723.076> 1507 229<347.925 871.271>
VStem: 154 260<72 723.691> 1194 244<737.028 1223.24>
LayerCount: 2
Fore
SplineSet
-41 1134 m 0
 -95 1134 -116 1187 -116 1229 c 0
 -116 1322 -42 1451 -26 1470 c 0
 121 1645 307 1736 579 1736 c 0
 1087 1736 1438 1528 1438 1028 c 0
 1438 521 1171 126 801 -14 c 0
 721 -44 635 -60 542 -60 c 0
 406 -60 285 -19 192 24 c 0
 162 38 154 51 154 93 c 0
 154 590 199 1061 402 1359 c 1
 449 1392 492 1408 531 1408 c 0
 580 1408 620 1381 653 1326 c 1
 485 1100 414 624 414 258 c 0
 414 169 421 128 510 128 c 0
 893 128 1100 502 1171 814 c 0
 1186 882 1194 946 1194 1009 c 0
 1194 1336 947 1507 590 1507 c 0
 457 1507 282 1470 150 1330 c 0
 98 1275 23 1134 -41 1134 c 0
EndSplineSet
EndChar

StartChar: quotesingle
Encoding: 9 39 24
Width: 83
Flags: HW
HStem: 1155 673
VStem: 618 366<1593.35 1726.17>
LayerCount: 2
Fore
SplineSet
816 1828 m 4
 925 1828 984 1765 984 1703 c 4
 984 1659 960 1610 916 1566 c 4
 798 1449 670 1328 549 1230 c 4
 474 1169 465 1155 378 1155 c 260
 369 1155 335 1187 335 1228 c 4
 335 1245 342 1265 358 1283 c 4
 462 1399 530 1548 618 1648 c 5
 669 1748 722 1828 816 1828 c 4
EndSplineSet
EndChar

StartChar: E
Encoding: 39 69 25
Width: 1448
Flags: HW
LayerCount: 2
Fore
SplineSet
352 390 m 0
 352 209 452 128 631 128 c 0
 919 128 1177 253 1334 392 c 128
 1366 420 1391 448 1408 477 c 1
 1477 250 l 1
 1295 56 1001 -96 637 -96 c 0
 316 -96 64 44 64 364 c 1
 64 717 339 878 696 887 c 1
 437 887 260 1026 260 1280 c 0
 260 1602 593 1726 912 1726 c 0
 1212 1726 1533 1613 1533 1318 c 0
 1533 1225 1407 1124 1316 1124 c 0
 1302 1124 1295 1136 1295 1161 c 0
 1295 1238 1316 1298 1341 1376 c 1
 1241 1457 1037 1501 859 1501 c 0
 679 1501 522 1445 522 1266 c 0
 522 1009 849 1070 985 950 c 128
 1020 919 1024 873 1024 811 c 0
 1024 734 1000 704 921 704 c 0
 883 704 823 710 783 710 c 0
 565 710 352 607 352 390 c 0
EndSplineSet
EndChar

StartChar: O
Encoding: 49 79 26
Width: 1699
Flags: W
HStem: -192 244<643.698 1013.04> 1574 232<896.643 1255.36>
VStem: 155 256<328.191 868.921> 1435 256<722.684 1366.35>
LayerCount: 2
Fore
SplineSet
1054 1806 m 0
 1475 1806 1691 1496 1691 1073 c 0
 1691 523 1444 41 1064 -136 c 0
 983 -174 896 -192 801 -192 c 0
 358 -192 155 187 155 633 c 0
 155 1187 417 1647 844 1776 c 0
 909 1796 979 1806 1054 1806 c 0
411 583 m 0
 411 297 543 52 825 52 c 0
 1266 52 1435 684 1435 1112 c 0
 1435 1359 1338 1574 1093 1574 c 0
 711 1574 505 1117 436 801 c 0
 419 725 411 652 411 583 c 0
EndSplineSet
EndChar

StartChar: period
Encoding: 16 46 27
Width: 704
Flags: HW
HStem: 0 353<376.724 613.252>
VStem: 320 352<58.78 295.193>
LayerCount: 2
Fore
SplineSet
503 353 m 0
 611 353 672 297 672 191 c 0
 672 76 603 0 484 0 c 0
 378 0 320 55 320 162 c 0
 320 277 386 353 503 353 c 0
EndSplineSet
EndChar

StartChar: p
Encoding: 82 112 28
Width: 887
Flags: HW
HStem: -778 228<-102.355 81.3193> -0 168<449.994 737.303> 774 186<410.031 627.75>
VStem: -215 191<-548.486 -223.829> 114 234<-374.978 20> 653 197<519.082 744.908>
LayerCount: 2
Fore
SplineSet
850 651 m 0
 850 402 671 228 446 189 c 1
 450 178 l 1
 483 171 515 168 545 168 c 0
 727 168 864 279 969 383 c 0
 993 407 1014 417 1030 417 c 0
 1064 417 1082 375 1082 336 c 0
 1082 318 1079 301 1071 289 c 0
 977 143 812 0 608 -0 c 0
 524 0 449 28 348 43 c 1
 348 25 l 2
 348 -286 282 -581 119 -721 c 0
 75 -759 29 -778 -18 -778 c 0
 -184 -778 -215 -598 -215 -429 c 0
 -215 -264 -123 -117 -61 0 c 0
 -16 85 36 173 94 264 c 1
 136 564 158 960 497 960 c 0
 730 960 850 848 850 651 c 0
324 309 m 5
 488 371 641 486 652 656 c 0
 652 660 653 663 653 666 c 0
 653 724 610 774 509 774 c 0
 332 774 324 477 324 309 c 5
29 -550 m 0
 116 -550 114 -321 114 -173 c 0
 114 -110 114 -37 115 20 c 1
 51 -94 9 -250 -18 -398 c 1
 -22 -432 -24 -456 -24 -471 c 0
 -24 -499 -21 -550 29 -550 c 0
EndSplineSet
EndChar

StartChar: U
Encoding: 55 85 29
Width: 1592
Flags: HW
HStem: -160 224<577.241 882.099>
VStem: 176 266<236.779 918.273> 346 311<1351.27 1574.93> 1328 288<1093.77 1684.45>
LayerCount: 2
Fore
SplineSet
442 578 m 0xd0
 442 176 549 64 731 64 c 0
 1212 64 1304 1124 1328 1568 c 0
 1334 1677 1390 1728 1503 1728 c 0
 1589 1728 1616 1681 1616 1593 c 0
 1616 940 1484 373 1160 48 c 0
 1048 -65 901 -160 700 -160 c 0
 295 -160 176 183 176 588 c 0xd0
 176 923 258 1222 346 1472 c 0
 375 1556 399 1632 500 1632 c 0
 588 1632 657 1625 657 1537 c 2
 657 1529 l 1xb0
 603 1225 442 948 442 578 c 0xd0
EndSplineSet
EndChar

StartChar: Q
Encoding: 51 81 30
Width: 1612
Flags: HW
LayerCount: 2
Fore
SplineSet
996 1856 m 0
 1433 1856 1632 1507 1632 1064 c 0
 1632 553 1425 123 1096 -67 c 128
 1022 -110 940 -137 850 -148 c 1
 935 -233 1009 -394 1165 -394 c 0
 1279 -394 1367 -299 1423 -233 c 1
 1434 -225 1444 -223 1460 -223 c 0
 1523 -223 1552 -294 1552 -367 c 0
 1552 -525 1232 -653 1072 -653 c 0
 826 -653 778 -416 708 -242 c 128
 696 -212 682 -190 666 -175 c 1
 289 -108 96 189 96 628 c 0
 96 1176 336 1638 724 1803 c 128
 807 1838 897 1856 996 1856 c 0
384 613 m 0
 384 333 637 249 766 64 c 1
 1195 64 1344 717 1344 1132 c 0
 1344 1395 1271 1664 1014 1664 c 0
 793 1664 655 1458 571 1305 c 128
 470 1122 384 885 384 613 c 0
EndSplineSet
EndChar

StartChar: W
Encoding: 57 87 31
Width: 2239
Flags: HW
HStem: -96 256<327.435 664.753> -96 192<1357.08 1551.81> 168 231<2024.41 2211.5>
VStem: 134 256<245.3 840.456> 311 303<1365.49 1557.31> 1049 254<172.013 694.501> 1895 287<1084.63 1622.97>
LayerCount: 2
Fore
SplineSet
518 1632 m 0xae
 586 1632 614 1611 614 1542 c 0xae
 614 1396 541 1237 502 1099 c 0
 451 919 390 715 390 497 c 0
 390 355 414 160 550 160 c 256xb6
 783 160 889 590 945 768 c 0
 1001 947 1049 1150 1094 1377 c 0
 1116 1489 1153 1568 1286 1568 c 0
 1361 1568 1414 1548 1414 1475 c 0
 1414 1363 1376 1227 1358 1102 c 0
 1331 911 1303 698 1303 487 c 0
 1303 477 l 0
 1303 331 1304 96 1434 96 c 0
 1818 96 1874 1163 1895 1506 c 0
 1902 1617 1955 1664 2070 1664 c 0
 2148 1664 2182 1626 2182 1546 c 0
 2182 1188 2091 867 2028 564 c 0
 2020 524 2015 496 2015 482 c 0
 2015 427 2058 399 2113 399 c 0
 2236 399 2321 522 2373 605 c 1
 2380 368 l 1
 2312 287 2207 168 2070 168 c 0
 1976 168 1925 223 1908 308 c 1
 1811 128 1661 -96 1398 -96 c 0x76
 1109 -96 1049 242 1049 539 c 0
 1049 597 1057 654 1062 704 c 1
 1000 309 899 -96 466 -96 c 0
 195 -96 134 309 134 595 c 0xb6
 134 934 210 1226 311 1472 c 0
 351 1569 389 1632 518 1632 c 0xae
EndSplineSet
EndChar

StartChar: S
Encoding: 53 83 32
Width: 1578
Flags: HW
HStem: -128 224<522.21 1005.48> 964 21G<1257.8 1354.29> 1537 223<729.936 1201.77>
VStem: 114 255<227.776 525.422> 336 257<1183.33 1428.56> 1236 256<271.099 554.368> 1317 225<1198.8 1444.37>
LayerCount: 2
Fore
SplineSet
948 1537 m 0xea
 779 1537 593 1471 593 1312 c 0xea
 593 1095 891 1006 1042 930 c 0
 1240 831 1492 707 1492 416 c 0
 1492 42 1140 -128 770 -128 c 0
 428 -128 114 25 114 365 c 0
 114 497 194 624 319 624 c 0
 364 624 394 599 394 552 c 0
 394 488 369 438 369 366 c 0
 369 171 555 96 751 96 c 0
 978 96 1236 193 1236 416 c 0xf4
 1236 646 944 740 786 821 c 0
 600 916 336 1032 336 1304 c 0
 336 1621 660 1760 988 1760 c 0
 1221 1760 1405 1653 1494 1505 c 0
 1526 1452 1542 1394 1542 1330 c 0
 1542 1176 1430 964 1279 964 c 0
 1237 964 1211 990 1211 1034 c 0
 1211 1147 1317 1212 1317 1331 c 0
 1317 1496 1120 1537 948 1537 c 0xea
EndSplineSet
EndChar

StartChar: w
Encoding: 89 119 33
Width: 1301
Flags: HW
HStem: 145 213<1148.41 1380.42> 941 18G<172.5 282 658.5 741.5 1094.5 1158.5>
VStem: 72 231<361.074 464.797> 591 136<354.311 448.583>
LayerCount: 2
Fore
SplineSet
1254 876 m 0
 1254 715 1131 644 1131 473 c 0
 1131 409 1157 358 1239 358 c 0
 1335 358 1424 429 1488 472 c 1
 1488 237 l 1
 1416 191 1321 145 1216 145 c 0
 1066 145 966 214 963 363 c 1
 914 252 850 1 702 1 c 0
 687 1 672 4 656 9 c 0
 601 27 591 242 591 390 c 0
 591 432 592 467 592 489 c 1
 563 494 l 1
 515 315 441 130 317 36 c 0
 285 12 254 0 223 0 c 0
 81 0 72 263 72 455 c 2
 72 512 l 2
 72 685 87 961 258 961 c 1
 282 959 l 1
 329 959 373 942 373 902 c 2
 373 895 l 1
 303 354 l 1
 316 355 l 1
 384 513 433 668 506 810 c 0
 548 892 599 959 718 959 c 0
 765 959 810 942 810 903 c 0
 810 900 809 898 809 895 c 2
 727 354 l 1
 741 355 l 1
 980 889 l 2
 998 931 1062 960 1127 960 c 0
 1190 960 1254 934 1254 876 c 0
EndSplineSet
EndChar

StartChar: v
Encoding: 88 118 34
Width: 907
Flags: HW
HStem: 145 224<754.98 1004.61> 942 20G<199.5 284 701 760>
VStem: 107 267<618.312 916.248> 107 228<270.408 468.688>
LayerCount: 2
Fore
SplineSet
823 145 m 0xd0
 695 145 594 221 591 342 c 1
 536 227 462 98 370 22 c 0
 344 0 318 -11 295 -11 c 0
 132 -11 107 253 107 495 c 0xd0
 107 602 112 704 112 778 c 0
 112 877 152 962 247 962 c 0
 321 962 374 910 374 837 c 0
 374 834 374 830 374 826 c 2xe0
 335 261 l 1
 349 262 l 1
 612 889 l 1
 621 933 674 960 728 960 c 0
 792 960 856 934 856 876 c 0
 856 726 731 663 731 498 c 0
 731 412 778 369 866 369 c 0
 954 369 1035 432 1094 472 c 1
 1094 237 l 1
 1022 191 927 145 823 145 c 0xd0
EndSplineSet
EndChar

StartChar: r
Encoding: 84 114 35
Width: 804
Flags: W
HStem: 288 207<762.007 964.143> 940 20G<289.5 357 604 710.5>
VStem: 223 171<761.355 951.141> 543 206<506.531 630.302>
LayerCount: 2
Fore
SplineSet
235 0 m 0
 126 0 108 100 108 209 c 0
 108 448 152 708 223 892 c 0
 242 940 257 960 322 960 c 0
 392 960 394 939 394 869 c 2
 394 780 l 2
 394 745 395 710 396 676 c 1
 407 676 l 1
 460 783 526 960 682 960 c 0
 739 960 780 923 780 866 c 0
 780 816 749 695 749 604 c 0
 749 523 786 495 835 495 c 0
 902 495 990 549 1037 586 c 0
 1050 596 1064 599 1075 599 c 0
 1098 599 1105 569 1105 534 c 0
 1105 479 1088 409 1088 409 c 1
 1012 359 920 288 798 288 c 0
 601 288 565 460 543 634 c 1
 527 634 l 1
 348 135 l 2
 327 77 308 0 235 0 c 0
EndSplineSet
EndChar

StartChar: F
Encoding: 40 70 36
Width: 1376
Flags: W
HStem: -198 224<277.71 530.336> 749 174<484.534 723.846> 768 192<992.123 1448.56> 1564 214<920.088 1724.96>
VStem: 113 271<1148.82 1358.07> 724 235<492.647 749>
LayerCount: 2
Fore
SplineSet
873 1534 m 1xdc
 513 1499 384 1398 384 1212 c 0
 384 1156 336 1136 274 1136 c 0
 189 1136 113 1138 113 1216 c 0
 113 1690 657 1778 1142 1778 c 0
 1371 1778 1592 1768 1804 1733 c 0
 1857 1724 1894 1692 1894 1638 c 0
 1894 1576 1862 1518 1799 1518 c 0
 1648 1518 1477 1564 1300 1564 c 0
 1217 1564 1136 1554 1060 1544 c 1
 1060 1420 1027 1302 1011 1167 c 0
 1004 1109 997 1040 989 960 c 1
 1394 960 l 2
 1450 960 1458 918 1458 864 c 0
 1458 815 1435 768 1394 768 c 0xbc
 1257 768 1099 749 959 749 c 1
 899 294 809 -198 352 -198 c 0
 232 -198 38 -164 38 -47 c 0
 38 18 82 97 148 97 c 0
 261 97 336 26 456 26 c 0
 631 26 694 569 724 749 c 1
 601 749 l 2
 540 749 456 771 456 832 c 0
 456 909 614 912 668 923 c 0
 700 929 700 929 725 934 c 0
 742 937 757 940 771 942 c 1
 815 1147 836 1328 873 1534 c 1xdc
EndSplineSet
EndChar

StartChar: at
Encoding: 34 64 37
Width: 2241
Flags: HW
LayerCount: 2
Fore
SplineSet
897 383 m 0
 897 288 934 227 1027 227 c 0
 1206 227 1313 434 1355 578 c 2
 1486 1029 l 1
 1458 1036 1422 1042 1389 1042 c 0
 1128 1042 970 721 916 512 c 128
 904 465 897 422 897 383 c 0
896 -384 m 0
 461 -384 112 -208 112 215 c 0
 112 708 372 1070 646 1300 c 128
 818 1444 1040 1568 1344 1568 c 0
 1804 1568 2138 1333 2138 870 c 0
 2138 498 1911 199 1644 88 c 128
 1590 66 1534 54 1475 54 c 0
 1379 54 1350 134 1350 235 c 0
 1350 274 1356 308 1363 345 c 1
 1290 196 1161 32 950 32 c 0
 746 32 620 170 620 378 c 0
 620 776 908 1091 1202 1202 c 128
 1272 1228 1344 1241 1421 1241 c 0
 1454 1241 1490 1236 1490 1207 c 256
 1490 1202 1489 1200 1489 1196 c 2
 1489 1192 l 1
 1599 1144 1706 1209 1706 1018 c 0
 1706 791 1603 612 1562 417 c 0
 1556 386 1548 361 1548 340 c 0
 1548 313 1555 289 1580 289 c 0
 1784 289 1888 628 1888 832 c 0
 1888 1190 1696 1376 1344 1376 c 0
 913 1376 658 1043 519 746 c 128
 455 609 400 441 400 261 c 0
 400 -51 668 -128 992 -128 c 0
 1290 -128 1537 -83 1733 7 c 0
 1748 14 1762 17 1775 17 c 0
 1821 17 1839 -28 1839 -75 c 0
 1839 -189 1683 -224 1598 -256 c 128
 1398 -330 1159 -384 896 -384 c 0
EndSplineSet
EndChar

StartChar: J
Encoding: 44 74 38
Width: 1362
Flags: HW
LayerCount: 2
Fore
SplineSet
267 -760 m 0
 4 -760 -104 -527 -104 -256 c 0
 -104 95 110 353 323 510 c 128
 412 576 512 625 622 659 c 1
 471 781 322 930 248 1120 c 128
 227 1174 216 1227 216 1280 c 0
 216 1618 391 1875 640 1963 c 128
 685 1979 730 1987 775 1987 c 0
 1146 1987 1240 1545 1240 1152 c 0
 1240 938 1225 744 1195 562 c 1
 1306 493 1453 438 1547 348 c 128
 1556 340 1560 333 1560 326 c 256
 1560 288 1487 256 1447 256 c 0
 1341 258 1243 298 1151 337 c 1
 1054 -72 882 -432 592 -640 c 128
 503 -704 398 -760 267 -760 c 0
152 -320 m 0
 152 -434 193 -527 296 -527 c 0
 434 -527 538 -398 613 -290 c 128
 748 -95 842 165 903 464 c 1
 866 487 l 1
 527 421 271 131 176 -176 c 128
 160 -229 152 -277 152 -320 c 0
984 1344 m 0
 984 1527 962 1772 796 1772 c 0
 611 1772 472 1526 472 1344 c 0
 472 1130 631 984 755 875 c 128
 813 824 877 774 947 725 c 1
 971 919 984 1122 984 1344 c 0
EndSplineSet
EndChar

StartChar: K
Encoding: 45 75 39
Width: 1920
Flags: HW
LayerCount: 2
Fore
SplineSet
1011 1632 m 0
 1011 1409 977 1205 964 992 c 1
 1403 992 1604 1092 1604 1536 c 0
 1604 1667 1611 1696 1732 1696 c 0
 1853 1696 1860 1626 1860 1521 c 0
 1860 1506 1860 1490 1860 1474 c 0
 1860 973 1626 800 1124 800 c 1
 1207 585 1275 329 1428 202 c 128
 1461 174 1499 160 1540 160 c 0
 1686 160 1813 237 1899 306 c 1
 2015 110 l 1
 1884 31 1724 -64 1514 -64 c 0
 1112 -64 1088 489 900 704 c 1
 818 388 693 94 428 -20 c 128
 360 -49 289 -64 214 -64 c 0
 121 -64 -96 -49 -96 36 c 0
 -96 98 -31 196 31 196 c 0
 78 196 122 160 179 160 c 0
 491 160 594 599 653 864 c 128
 696 1056 727 1274 749 1485 c 1
 761 1568 l 1
 472 1568 260 1380 260 1097 c 0
 260 1043 197 1024 136 1024 c 0
 56 1024 -28 1040 -28 1111 c 2
 -28 1120 l 2
 -28 1563 448 1728 885 1728 c 0
 958 1728 1011 1702 1011 1632 c 0
EndSplineSet
EndChar

StartChar: acute
Encoding: 114 180 40
Width: 609
Flags: HW
HStem: 1088 622
VStem: 304 240<1545.31 1671.4>
LayerCount: 2
Fore
SplineSet
160 1088 m 0
 125 1088 102 1119 102 1155 c 0
 102 1254 182 1369 219 1452 c 0
 245 1512 275 1576 304 1646 c 0
 320 1684 352 1710 399 1710 c 0
 477 1710 544 1652 544 1574 c 0
 544 1490 455 1410 412 1354 c 0
 353 1277 287 1199 228 1125 c 0
 211 1105 191 1088 160 1088 c 0
EndSplineSet
EndChar

StartChar: A
Encoding: 35 65 41
Width: 1652
Flags: HW
HStem: -64 224<520.142 815.725> 1536 192<1063.34 1401.33>
VStem: 140 288<256.038 727.128> 1196 227<238.028 396.47 505 620.726>
LayerCount: 2
Fore
SplineSet
1423 344 m 0
 1423 334 1423 324 1423 314 c 0
 1423 276 1426 238 1459 238 c 0
 1597 238 1735 365 1833 419 c 1
 1884 224 l 1
 1776 111 1592 -32 1380 -32 c 0
 1240 -32 1196 88 1196 236 c 0
 1196 293 1205 345 1214 399 c 1
 1105 179 915 -64 603 -64 c 0
 308 -64 140 149 140 450 c 0
 140 899 395 1243 642 1460 c 0
 802 1601 1012 1728 1301 1728 c 0
 1351 1728 1403 1720 1403 1675 c 0
 1403 1670 1402 1664 1402 1660 c 2
 1402 1655 l 1
 1496 1599 1601 1659 1634 1519 c 0
 1641 1489 1644 1448 1644 1397 c 0
 1644 1064 1508 777 1430 505 c 1
 1426 448 1423 403 1423 344 c 0
428 456 m 0
 428 281 491 160 660 160 c 0
 962 160 1138 505 1203 745 c 2
 1411 1517 l 1
 1369 1529 1318 1536 1266 1536 c 0
 986 1536 804 1309 684 1138 c 0
 562 964 428 733 428 456 c 0
EndSplineSet
EndChar

StartChar: B
Encoding: 36 66 42
Width: 1522
Flags: W
HStem: -87 208<475.708 968.694> 841 126<1005 1145.76> 1502 234<359.899 1047.38>
VStem: 154 288<69 744.993> 1178 224<306.289 620.13> 1338 256<1118.42 1369.67>
LayerCount: 2
Fore
SplineSet
919 967 m 0xf8
 1130 967 1338 1058 1338 1262 c 0
 1338 1472 956 1502 744 1502 c 0
 510 1502 243 1469 150 1330 c 0
 95 1248 34 1094 -49 1094 c 0
 -78 1094 -93 1128 -93 1195 c 0
 -93 1592 251 1736 649 1736 c 0
 1023 1736 1409 1625 1556 1395 c 0
 1582 1355 1594 1313 1594 1270 c 0xf4
 1594 973 1311 847 1005 841 c 1
 1246 841 1402 691 1402 454 c 0
 1402 112 1130 -87 786 -87 c 0
 575 -87 385 -33 225 22 c 0
 188 35 154 45 154 93 c 0
 154 590 199 1061 402 1359 c 1
 449 1392 492 1408 531 1408 c 0
 580 1408 620 1381 653 1326 c 1
 476 1088 442 674 442 266 c 0
 442 232 443 184 463 169 c 1
 539 144 636 121 734 121 c 0
 985 121 1178 237 1178 489 c 0
 1178 768 818 664 693 820 c 0
 678 838 671 863 671 892 c 0
 671 959 696 974 764 974 c 0
 822 974 862 967 919 967 c 0xf8
EndSplineSet
EndChar

StartChar: C
Encoding: 37 67 43
Width: 1480
Flags: HW
HStem: -192 256<565.702 990.391> 736 224<799.933 1113.1> 1568 224<900.186 1233.87>
VStem: 96 288<264.237 810.994> 1312 224<1161.12 1490.28>
LayerCount: 2
Fore
SplineSet
384 502 m 0
 384 231 500 64 750 64 c 0
 1200 64 1482 353 1726 523 c 1
 1766 338 l 1
 1535 104 1142 -192 685 -192 c 0
 315 -192 96 111 96 482 c 0
 96 1096 515 1792 1123 1792 c 0
 1371 1792 1536 1617 1536 1363 c 0
 1536 1049 1268 736 961 736 c 0
 835 736 775 758 775 870 c 0
 775 949 844 960 945 960 c 0
 1150 960 1312 1134 1312 1344 c 0
 1312 1486 1232 1568 1088 1568 c 0
 651 1568 384 914 384 502 c 0
EndSplineSet
EndChar

StartChar: parenleft
Encoding: 10 40 44
Width: 1377
Flags: HW
LayerCount: 2
Fore
SplineSet
1143 58 m 0
 1200 58 1237 -13 1237 -71 c 0
 1237 -96 1230 -116 1217 -129 c 0
 1082 -268 928 -384 704 -384 c 0
 447 -384 384 -104 384 160 c 0
 384 661 560 1089 769 1395 c 128
 870 1543 1019 1728 1248 1728 c 0
 1426 1728 1628 1614 1664 1472 c 0
 1664 1469 1665 1467 1665 1464 c 0
 1665 1409 1580 1338 1525 1338 c 0
 1478 1338 1431 1416 1400 1442 c 128
 1363 1474 1315 1504 1248 1504 c 0
 1017 1504 891 1183 822 1010 c 128
 726 770 640 481 640 160 c 0
 640 31 647 -160 768 -160 c 0
 922 -160 1005 -60 1088 32 c 0
 1101 47 1119 58 1143 58 c 0
EndSplineSet
EndChar

StartChar: parenright
Encoding: 11 41 45
Width: 1279
Flags: HW
LayerCount: 2
Fore
SplineSet
327 1286 m 0
 269 1286 233 1357 233 1415 c 0
 233 1440 240 1459 253 1473 c 0
 388 1612 542 1728 766 1728 c 0
 1079 1728 1150 1337 1150 1014 c 0
 1150 565 1028 156 832 -105 c 128
 753 -210 641 -319 478 -319 c 0
 317 -319 101 -249 62 -128 c 0
 62 -125 61 -123 61 -120 c 0
 61 -65 146 6 201 6 c 0
 210 6 217 4 222 0 c 1
 301 -36 359 -95 478 -95 c 0
 809 -95 897 731 897 1062 c 0
 897 1229 883 1504 729 1504 c 0
 564 1504 469 1409 382 1312 c 0
 369 1297 351 1286 327 1286 c 0
EndSplineSet
EndChar

StartChar: G
Encoding: 41 71 46
Width: 1536
Flags: HW
HStem: -736 224<801.372 1059.33> -192 256<554.427 983.13> 420 224<1084.4 1303.12> 1541 189<952.895 1260.82>
VStem: 96 288<249.591 817.859> 1311 225<220.473 410.628 1170.34 1490.7>
LayerCount: 2
Fore
SplineSet
1216 644 m 0
 1440 644 1536 562 1536 341 c 0
 1536 -117 1419 -536 1110 -688 c 0
 1046 -720 972 -736 889 -736 c 0
 769 -736 575 -702 575 -585 c 0
 575 -520 619 -441 685 -441 c 0
 790 -441 847 -512 960 -512 c 0
 1140 -512 1232 -129 1269 25 c 1
 1126 -106 964 -192 685 -192 c 0
 315 -192 96 111 96 482 c 0
 96 993 345 1356 653 1564 c 0
 787 1654 956 1730 1160 1730 c 0
 1410 1730 1535 1570 1535 1316 c 0
 1535 1205 1476 1063 1373 1063 c 0
 1312 1063 1275 1128 1275 1190 c 0
 1275 1248 1312 1281 1312 1341 c 0
 1312 1455 1262 1541 1158 1541 c 0
 929 1541 761 1389 648 1254 c 0
 493 1070 384 809 384 472 c 0
 384 220 500 64 750 64 c 0
 978 64 1147 131 1291 226 c 1
 1300 259 1311 296 1311 334 c 0
 1311 403 1278 420 1210 420 c 0
 1130 420 1055 458 1055 535 c 256
 1055 613 1134 644 1216 644 c 0
EndSplineSet
EndChar

StartChar: H
Encoding: 42 72 47
Width: 1926
Flags: HW
HStem: -64 235<1430.69 1648.94> 655 212<230.373 443> 929 20G<123.5 155> 1600 224<387.14 655.285>
VStem: 692 251<1170.81 1564.95> 1152 270<175.918 498.179>
DStem2: 251 82 745 675 0.324973 0.945723<-30.1301 604.294> 809 876 745 675 0.998428 0.0560475<0 420.659 767.206 983.426>
LayerCount: 2
Fore
SplineSet
1794 934 m 0
 1858 934 1890 913 1890 851 c 0
 1890 741 1628 759 1525 750 c 1
 1463 532 1422 371 1422 275 c 0
 1422 207 1443 171 1491 171 c 0
 1636 171 1758 262 1852 321 c 1
 1904 368 1961 423 2025 488 c 0
 2037 500 2052 506 2068 506 c 0
 2104 506 2141 476 2141 420 c 0
 2141 378 2123 318 2060 249 c 0
 1931 124 1772 10 1576 -44 c 0
 1532 -58 1492 -64 1455 -64 c 0
 1282 -64 1152 41 1152 217 c 0
 1152 240 1155 263 1159 288 c 0
 1186 442 1210 588 1247 724 c 1
 1074 706 916 690 745 675 c 1
 683 490 622 304 553 131 c 0
 518 42 460 -63 374 -63 c 0
 304 -63 247 -19 247 51 c 0
 247 62 248 72 251 82 c 0
 306 282 374 471 443 655 c 1
 264 655 103 728 103 905 c 0
 103 934 113 949 134 949 c 0
 176 949 206 899 235 863 c 1
 301 866 360 867 430 867 c 2
 526 867 l 1
 592 1038 692 1206 692 1423 c 0
 692 1524 660 1600 559 1600 c 0
 399 1600 274 1489 175 1408 c 0
 152 1389 129 1373 97 1373 c 0
 81 1373 81 1440 81 1465 c 0
 81 1686 374 1824 591 1824 c 0
 814 1824 943 1699 943 1472 c 0
 943 1259 865 1056 809 876 c 1
 958 886 1143 896 1300 904 c 1
 1370 1134 1455 1381 1543 1600 c 0
 1568 1662 1613 1725 1692 1725 c 0
 1757 1725 1799 1689 1799 1623 c 0
 1799 1472 1722 1351 1678 1226 c 0
 1643 1127 1607 1021 1575 919 c 1
 1654 924 1724 934 1794 934 c 0
EndSplineSet
EndChar

StartChar: hyphen
Encoding: 15 45 48
Width: 768
Flags: HW
LayerCount: 2
Fore
SplineSet
608 704 m 2
 660 704 703 682 703 628 c 0
 703 548 658 512 575 512 c 2
 160 512 l 2
 92 512 63 555 63 621 c 0
 63 680 98 704 160 704 c 2
 608 704 l 2
EndSplineSet
EndChar

StartChar: s
Encoding: 85 115 49
Width: 784
Flags: W
HStem: -9 169<264.203 432.351> 940 20G<516.5 603.5>
LayerCount: 2
Fore
SplineSet
103 190 m 5
 86 186 68 185 49 185 c 4
 -10 185 -31 212 -31 246 c 4
 -31 288 1 340 30 364 c 4
 190 492 289 690 404 864 c 4
 435 911 478 960 555 960 c 4
 652 960 684 925 684 878 c 4
 684 822 638 750 602 706 c 4
 590 691 582 679 581 672 c 5
 595 523 668 426 684 256 c 5
 788 329 919 369 1018 448 c 5
 1040 224 l 5
 893 101 653 -9 392 -9 c 4
 232 -9 128 54 103 190 c 5
191 256 m 5
 242 256 272 160 341 160 c 4
 430 160 458 219 458 292 c 4
 458 368 427 459 404 512 c 5
 191 256 l 5
EndSplineSet
EndChar

StartChar: I
Encoding: 43 73 50
Width: 983
Flags: W
HStem: -32 189<71.7781 318.913 604 807.204> 1501 229<918.199 1174.42>
LayerCount: 2
Fore
SplineSet
659 1484 m 1
 538 1471 446 1448 355 1402 c 1
 347 1402 347 1504 347 1533 c 0
 347 1702 740 1730 925 1730 c 0
 940 1730 l 0
 1065 1730 1204 1728 1204 1618 c 0
 1204 1511 1109 1501 995 1501 c 0
 973 1501 951 1502 929 1504 c 1
 813 1052 723 606 604 157 c 1
 684 157 858 128 858 50 c 0
 858 22 834 -5 786 -32 c 1
 473 -32 l 2
 448 -32 330 -33 213 -33 c 0
 81 -33 -50 -32 -50 -27 c 0
 -50 -18 -4 17 4 29 c 0
 25 62 9 83 52 104 c 0
 119 136 223 156 314 163 c 1
 419 608 512 1075 659 1484 c 1
EndSplineSet
EndChar

StartChar: Z
Encoding: 60 90 51
Width: 1265
Flags: HW
LayerCount: 2
Fore
SplineSet
858 1312 m 1
 826 1312 793 1310 760 1310 c 0
 640 1310 556 1345 470 1374 c 128
 453 1380 438 1382 423 1382 c 0
 281 1382 302 1107 169 1107 c 0
 140 1107 134 1137 134 1168 c 0
 134 1385 230 1633 433 1633 c 0
 571 1633 656 1550 795 1547 c 0
 820 1546 842 1546 864 1546 c 128
 896 1546 897 1546 926 1546 c 0
 1038 1546 1120 1558 1205 1558 c 0
 1264 1558 1284 1514 1284 1454 c 0
 1284 1388 1268 1366 1221 1340 c 1
 938 1064 712 749 508 405 c 128
 489 373 476 352 468 342 c 1
 463 319 l 1
 550 319 654 213 761 213 c 0
 962 213 1073 299 1197 372 c 0
 1213 381 1226 388 1241 388 c 256
 1304 388 1355 320 1355 257 c 0
 1355 234 1351 214 1337 202 c 0
 1209 92 1006 -30 773 -30 c 0
 681 -30 591 21 506 56 c 128
 455 77 395 104 328 135 c 1
 276 90 214 51 134 51 c 0
 65 51 13 88 13 156 c 0
 13 238 77 291 124 352 c 2
 858 1312 l 1
EndSplineSet
EndChar

StartChar: z
Encoding: 92 122 52
Width: 693
Flags: HW
LayerCount: 2
Fore
SplineSet
88 -2 m 0
 12 -2 -29 51 -29 127 c 0
 -29 192 37 211 65 251 c 2
 406 729 l 1
 363 738 324 742 291 742 c 0
 204 742 153 705 76 705 c 0
 52 705 47 731 47 758 c 0
 47 880 71 984 187 984 c 0
 312 984 387 912 513 912 c 0
 567 912 620 924 669 924 c 0
 730 924 751 893 751 831 c 0
 751 761 728 745 665 729 c 1
 566 561 405 402 282 255 c 1
 277 235 l 1
 343 235 428 190 508 190 c 0
 637 190 711 260 792 308 c 128
 816 322 841 329 867 329 c 0
 904 329 929 298 929 261 c 0
 929 97 607 -2 446 -2 c 0
 357 -2 268 38 194 70 c 1
 167 46 128 -2 88 -2 c 0
EndSplineSet
EndChar

StartChar: g
Encoding: 73 103 53
Width: 869
Flags: W
HStem: -928 192<87.5409 240.159> -2 194<192 411.652> 768 190<457.516 583.204>
VStem: -110 196<-735.77 -584.734> 18 256<201.368 524.198>
LayerCount: 2
Fore
SplineSet
114 -928 m 0xe8
 -22 -928 -110 -870 -110 -729 c 0xf0
 -110 -588 -1 -466 71 -378 c 0
 186 -237 326 -104 468 12 c 1
 495 105 l 1
 439 55 361 -2 269 -2 c 0
 115 -2 18 123 18 281 c 0
 18 583 211 834 422 928 c 0
 466 948 511 958 557 958 c 0
 630 958 617 882 701 882 c 0
 716 882 731 883 746 883 c 0
 803 883 818 849 818 790 c 0
 818 543 762 325 722 94 c 1
 874 180 975 316 1080 467 c 1
 1128 245 l 1
 1035 84 849 -31 690 -128 c 1
 633 -450 538 -787 271 -898 c 0
 224 -918 171 -928 114 -928 c 0xe8
274 324 m 0xe8
 274 260 288 192 352 192 c 0
 460 192 505 380 524 474 c 2
 585 768 l 1
 398 768 274 508 274 324 c 0xe8
126 -736 m 0
 322 -736 402 -417 434 -256 c 1
 302 -344 166 -489 101 -641 c 0
 91 -664 86 -684 86 -699 c 0xf0
 86 -724 99 -736 126 -736 c 0
EndSplineSet
EndChar

StartChar: y
Encoding: 91 121 54
Width: 928
Flags: W
HStem: -928 192<133.541 286.159> -2 194<238 457.504> 889 35G<308.5 365.5 779.5 846>
VStem: -64 196<-735.77 -584.734> 64 256<201.368 618.325> 192 235<735.938 884.47> 640 259<707.789 849.679>
LayerCount: 2
Fore
SplineSet
320 324 m 0xea
 320 260 334 192 398 192 c 0
 506 192 548 381 570 474 c 2
 640 768 l 2
 658 846 733 909 826 909 c 0
 866 909 899 893 899 853 c 0
 899 718 841 553 819 412 c 0
 802 313 785 207 768 94 c 1
 920 180 1021 316 1126 467 c 1
 1174 245 l 1
 1081 84 895 -31 736 -128 c 1
 679 -450 584 -787 317 -898 c 0
 270 -918 217 -928 160 -928 c 0
 24 -928 -64 -870 -64 -729 c 0xf2
 -64 -588 45 -466 117 -378 c 0
 232 -237 372 -104 514 12 c 1
 541 105 l 1
 485 55 407 -2 315 -2 c 0
 161 -2 64 123 64 281 c 0xea
 64 513 116 677 192 832 c 0
 217 881 275 924 342 924 c 0
 389 924 427 900 427 852 c 0xe6
 427 793 397 751 380 692 c 0
 350 584 320 454 320 324 c 0xea
172 -736 m 0
 368 -736 448 -417 480 -256 c 1
 348 -344 212 -489 147 -641 c 0
 137 -664 132 -684 132 -699 c 0
 132 -724 145 -736 172 -736 c 0
EndSplineSet
EndChar

StartChar: q
Encoding: 83 113 55
Width: 815
Flags: HW
LayerCount: 2
Fore
SplineSet
441 -736 m 0
 323 -736 249 -633 249 -512 c 0
 249 -270 352 -46 409 160 c 1
 394 158 379 156 363 156 c 0
 173 156 57 321 57 512 c 1
 57 761 257 960 505 960 c 0
 680 960 791 869 791 698 c 0
 791 553 717 408 680 279 c 128
 676 265 674 257 674 256 c 2
 674 256 684 211 687 200 c 1
 700 195 714 192 729 192 c 0
 864 192 1001 350 1081 416 c 1
 1081 192 l 1
 991 105 883 28 726 6 c 1
 743 -89 761 -212 761 -320 c 0
 761 -554 672 -736 441 -736 c 0
505 768 m 0
 371 768 281 644 281 512 c 0
 281 392 327 297 441 288 c 1
 499 432 525 578 569 736 c 1
 555 750 532 768 505 768 c 0
463 -544 m 0
 583 -544 601 -380 601 -256 c 0
 601 -157 590 -47 569 33 c 1
 566 24 560 6 552 -20 c 128
 540 -59 540 -59 524 -111 c 128
 489 -224 426 -369 426 -498 c 0
 426 -523 439 -544 463 -544 c 0
EndSplineSet
EndChar

StartChar: j
Encoding: 76 106 56
Width: 572
Flags: HW
HStem: -608 224<263.566 364.038> 940 20G<305.341 392.402> 1089 319<298.466 549.923>
VStem: 19 224<-371.642 334.008> 241 366<1145.5 1352.19> 403 192<-350.011 255.491>
LayerCount: 2
Fore
SplineSet
275 -608 m 0xf4
 32 -608 19 -258 19 0 c 0
 19 278 93 592 170 820 c 0
 204 922 239 960 372 960 c 0
 413 960 438 932 438 895 c 0
 438 832 409 756 391 704 c 2
 335 544 l 1
 554 579 705 593 883 672 c 1
 883 480 l 1
 779 423 652 386 507 384 c 1
 552 267 595 128 595 -32 c 0
 595 -281 526 -608 275 -608 c 0xf4
307 -384 m 0
 399 -384 403 -187 403 -68 c 0
 403 -55 403 -43 403 -32 c 0
 403 147 348 299 305 447 c 1
 271 246 243 39 243 -192 c 0
 243 -258 254 -384 307 -384 c 0
413 1089 m 0
 306 1089 241 1140 241 1241 c 0
 241 1345 327 1408 437 1408 c 0
 535 1408 607 1366 607 1268 c 0xe8
 607 1155 529 1089 413 1089 c 0
EndSplineSet
EndChar

StartChar: eight
Encoding: 26 56 57
Width: 801
Flags: HW
LayerCount: 2
Fore
SplineSet
304 552 m 1
 216 608 148 700 148 827 c 0
 148 1025 343 1119 541 1119 c 0
 685 1119 833 1068 833 927 c 0
 833 694 690 594 534 516 c 1
 632 442 762 352 762 186 c 0
 762 -18 591 -128 384 -128 c 0
 181 -128 32 -45 32 162 c 1
 32 374 173 470 304 552 c 1
617 898 m 0
 617 963 564 996 499 996 c 0
 415 996 355 942 355 858 c 0
 355 767 394 688 440 639 c 1
 512 683 617 789 617 898 c 0
342 51 m 0
 445 51 506 131 506 237 c 0
 506 312 463 358 422 399 c 1
 335 359 240 306 240 181 c 0
 240 114 278 51 342 51 c 0
EndSplineSet
EndChar

StartChar: nine
Encoding: 27 57 58
Width: 927
Flags: HW
LayerCount: 2
Fore
SplineSet
398 471 m 0
 442 471 463 532 491 532 c 256
 502 532 501 523 501 511 c 0
 501 407 414 309 308 309 c 0
 136 309 53 459 53 630 c 0
 53 887 232 1088 492 1088 c 0
 721 1088 867 917 867 680 c 0
 867 228 591 -14 276 -153 c 0
 254 -163 231 -174 203 -174 c 0
 153 -174 108 -152 108 -107 c 0
 108 -64 134 -32 168 -14 c 0
 408 113 615 286 615 648 c 0
 615 766 593 897 477 897 c 0
 356 897 292 745 292 622 c 0
 292 547 326 471 398 471 c 0
EndSplineSet
EndChar

StartChar: question
Encoding: 33 63 59
Width: 1292
Flags: HW
LayerCount: 2
Fore
SplineSet
783 1602 m 0
 991 1602 1161 1476 1161 1264 c 0
 1161 933 951 848 785 686 c 128
 755 657 727 624 711 584 c 0
 692 536 664 486 608 486 c 0
 562 486 520 504 520 550 c 0
 520 854 782 917 888 1116 c 128
 908 1153 917 1196 917 1245 c 0
 917 1344 845 1399 747 1399 c 0
 626 1399 625 1240 511 1240 c 0
 448 1240 409 1306 409 1370 c 0
 409 1512 642 1602 783 1602 c 0
577 353 m 0
 685 353 746 297 746 191 c 0
 746 76 677 0 558 0 c 0
 452 0 394 55 394 162 c 0
 394 277 460 353 577 353 c 0
EndSplineSet
EndChar

StartChar: six
Encoding: 24 54 60
Width: 928
Flags: HW
LayerCount: 2
Fore
SplineSet
429 167 m 0
 552 167 625 308 625 432 c 0
 625 499 604 566 547 566 c 0
 446 566 468 398 394 398 c 0
 381 398 376 458 376 480 c 0
 376 623 491 717 633 717 c 0
 789 717 874 603 874 442 c 0
 874 189 683 0 425 0 c 0
 180 0 35 150 35 400 c 0
 35 806 360 1065 642 1197 c 0
 665 1207 686 1217 715 1217 c 0
 767 1217 809 1188 809 1140 c 0
 809 1097 783 1067 750 1047 c 0
 569 936 404 770 321 562 c 128
 294 495 281 428 281 361 c 0
 281 252 320 167 429 167 c 0
EndSplineSet
EndChar

StartChar: eth
Encoding: 174 240 61
Width: 1089
Flags: HW
LayerCount: 2
Fore
SplineSet
743 1384 m 1
 671 1461 569 1506 426 1506 c 0
 376 1506 346 1567 346 1618 c 256
 346 1696 410 1729 491 1729 c 0
 723 1729 871 1619 971 1483 c 1
 1136 1555 l 2
 1150 1561 1167 1567 1187 1567 c 0
 1239 1567 1267 1520 1267 1466 c 256
 1267 1414 1229 1386 1182 1366 c 2
 1062 1314 l 1
 1102 1213 1126 1093 1126 958 c 0
 1126 532 980 161 682 34 c 128
 628 11 571 0 510 0 c 0
 252 0 64 153 64 416 c 0
 64 693 297 895 506 967 c 128
 552 983 599 991 645 991 c 256
 733 991 807 981 872 961 c 1
 872 968 l 2
 872 1063 860 1144 837 1216 c 1
 775 1190 715 1163 653 1136 c 0
 638 1129 623 1126 609 1126 c 0
 554 1126 511 1183 511 1236 c 0
 511 1277 541 1297 577 1313 c 2
 743 1384 l 1
290 416 m 0
 290 266 388 192 542 192 c 0
 734 192 815 559 847 729 c 1
 797 753 740 767 661 767 c 256
 470 767 290 607 290 416 c 0
EndSplineSet
EndChar

StartChar: T
Encoding: 54 84 62
Width: 1366
Flags: W
HStem: 1521 207<438.021 747 926.419 1460.69>
VStem: -34 321<1236.93 1414.39> 297 276<-1.89577 256.915>
LayerCount: 2
Fore
SplineSet
127 1202 m 256
 33 1202 -34 1247 -34 1330 c 0
 -34 1719 514 1728 913 1728 c 0
 1217 1728 1498 1708 1775 1663 c 0
 1827 1653 1862 1624 1862 1569 c 0
 1862 1511 1811 1452 1752 1460 c 0
 1479 1495 1215 1509 933 1521 c 1
 792 949 690 554 573 92 c 0
 556 26 505 -64 428 -64 c 0
 351 -64 297 -29 297 50 c 0
 297 63 301 76 303 92 c 0
 362 493 512 817 634 1176 c 0
 669 1279 706 1394 747 1521 c 1
 579 1508 287 1504 287 1330 c 0
 287 1247 219 1202 127 1202 c 256
EndSplineSet
EndChar

StartChar: L
Encoding: 46 76 63
Width: 1182
Flags: HW
HStem: -170 246<364 830.646> 1654 218<863.25 1117.5>
VStem: 211 257<90.1901 266> 1013 251<1341.28 1651.73>
LayerCount: 2
Fore
SplineSet
-12 129 m 256
 -66 129 -101 204 -101 260 c 0
 -101 343 -15 368 41 405 c 0
 100 444 169 492 227 534 c 1
 288 1048 425 1466 726 1730 c 0
 808 1802 909 1872 1036 1872 c 0
 1199 1872 1264 1736 1264 1568 c 0
 1264 1317 1144 1119 1033 960 c 0
 887 750 695 562 474 426 c 1
 472 305 468 233 468 130 c 0
 468 90 515 76 577 76 c 0
 667 76 789 105 853 123 c 2
 1188 219 l 2
 1197 221 1208 223 1219 223 c 0
 1284 223 1316 172 1316 108 c 0
 1316 44 1274 6 1220 -11 c 0
 997 -81 756 -170 457 -170 c 0
 271 -170 211 11 211 266 c 1
 154 224 105 191 65 166 c 0
 25 141 -1 129 -12 129 c 256
1013 1545 m 0
 1013 1602 1002 1654 955 1654 c 0
 889 1654 829 1577 790 1525 c 0
 632 1317 521 1016 492 678 c 1
 674 867 865 1085 972 1345 c 0
 1000 1413 1013 1463 1013 1545 c 0
EndSplineSet
EndChar

StartChar: x
Encoding: 90 120 64
Width: 1025
Flags: W
HStem: 0 242<188.995 295.021> 0 223<685.5 940.927> 876 20G<405 477 901.5 950>
LayerCount: 2
Fore
SplineSet
436 896 m 0xa0
 518 896 552 724 582 653 c 1
 655 730 738 802 832 864 c 0
 858 881 884 895 919 895 c 0
 981 895 1013 842 1013 780 c 0
 1013 732 992 692 960 672 c 0
 856 606 763 523 680 436 c 1
 709 378 772 223 845 223 c 0
 988 223 1149 370 1214 454 c 1
 1214 414 1215 380 1215 342 c 0
 1215 305 1216 273 1216 234 c 1
 1111 129 940 0 736 0 c 0x60
 635 0 554 138 498 235 c 1
 431 158 364 69 279 18 c 0
 259 6 241 0 224 0 c 0
 76 0 28 132 22 272 c 1
 166 358 l 1
 174 321 191 242 234 242 c 0
 271 242 310 307 334 338 c 0
 353 362 375 393 401 430 c 1
 355 536 317 648 281 771 c 0
 280 775 279 778 279 781 c 0
 279 840 374 896 436 896 c 0xa0
EndSplineSet
EndChar

StartChar: exclam
Encoding: 3 33 65
Width: 1184
Flags: HW
LayerCount: 2
Fore
SplineSet
460 462 m 0
 435 462 414 472 414 497 c 0
 414 500 415 505 416 512 c 0
 459 952 600 1328 708 1704 c 0
 736 1803 806 1856 928 1856 c 0
 986 1856 1003 1821 1003 1761 c 0
 1003 1637 963 1534 927 1430 c 128
 818 1111 680 832 544 512 c 1
 538 480 497 462 460 462 c 0
591 191 m 0
 591 81 526 -2 410 -2 c 0
 304 -2 246 55 246 162 c 0
 246 277 312 353 429 353 c 0
 533 353 591 295 591 191 c 0
EndSplineSet
EndChar

StartChar: dollar
Encoding: 6 36 66
Width: 1735
Flags: HW
LayerCount: 2
Fore
SplineSet
923 853 m 1
 756 941 496 1049 496 1294 c 0
 496 1587 792 1731 1084 1743 c 1
 1106 1872 l 2
 1116 1938 1172 1984 1250 1984 c 0
 1291 1984 1317 1945 1317 1906 c 0
 1317 1877 1312 1847 1308 1820 c 2
 1293 1728 l 1
 1479 1691 1697 1590 1697 1374 c 0
 1697 1294 1661 1227 1584 1227 c 0
 1505 1227 1457 1293 1457 1374 c 0
 1457 1463 1349 1506 1259 1523 c 1
 1163 966 l 1
 1324 873 1537 754 1537 507 c 0
 1537 182 1292 31 992 4 c 1
 962 -158 l 1
 948 -204 919 -225 862 -225 c 0
 850 -225 839 -224 827 -224 c 0
 776 -224 754 -167 754 -114 c 0
 754 -70 762 -37 770 4 c 1
 505 26 257 133 257 417 c 0
 257 635 394 778 617 778 c 0
 682 778 733 743 733 680 c 0
 733 632 699 598 647 598 c 0
 543 598 496 529 496 420 c 0
 496 270 651 222 807 210 c 1
 923 853 l 1
1033 224 m 1
 1169 258 1297 341 1297 507 c 0
 1297 627 1199 691 1124 741 c 1
 1033 224 l 1
1046 1531 m 1
 911 1517 767 1464 767 1324 c 0
 767 1198 884 1132 965 1081 c 1
 992 1231 1021 1386 1046 1531 c 1
EndSplineSet
EndChar

StartChar: slash
Encoding: 17 47 67
Width: 1248
Flags: HW
LayerCount: 2
Fore
SplineSet
341 -33 m 256
 269 -33 222 -18 222 55 c 0
 222 152 266 210 304 295 c 128
 507 755 720 1239 928 1696 c 0
 968 1782 1059 1856 1184 1856 c 0
 1240 1856 1248 1814 1248 1760 c 0
 1248 1714 1212 1659 1196 1622 c 0
 966 1119 766 563 514 64 c 0
 482 2 432 -33 341 -33 c 256
EndSplineSet
EndChar

StartChar: bracketleft
Encoding: 61 91 68
Width: 927
Flags: HW
LayerCount: 2
Fore
SplineSet
353 -192 m 2
 246 -192 176 -156 176 -53 c 0
 176 59 209 147 228 258 c 128
 292 636 329 1025 392 1415 c 0
 416 1563 487 1667 672 1667 c 2
 990 1667 l 2
 1049 1667 1088 1618 1088 1561 c 0
 1088 1499 1020 1443 958 1443 c 2
 672 1443 l 1
 672 1218 600 957 566 730 c 128
 531 496 495 258 459 32 c 1
 745 32 l 2
 791 32 828 -5 828 -51 c 0
 828 -120 744 -192 671 -192 c 2
 353 -192 l 2
EndSplineSet
EndChar

StartChar: zero
Encoding: 18 48 69
Width: 863
Flags: HW
LayerCount: 2
Fore
SplineSet
490 1058 m 0
 712 1058 809 886 809 664 c 0
 809 374 679 120 478 28 c 128
 437 9 392 0 345 0 c 0
 129 0 39 195 39 412 c 0
 39 696 158 942 356 1030 c 128
 397 1048 442 1058 490 1058 c 0
285 378 m 0
 285 304 293 182 361 182 c 0
 509 182 569 546 569 691 c 0
 569 767 558 877 486 877 c 0
 334 877 285 529 285 378 c 0
EndSplineSet
EndChar

StartChar: OE
Encoding: 193 338 70
Width: 2306
Flags: HW
LayerCount: 2
Fore
SplineSet
1465 390 m 0
 1465 209 1565 128 1744 128 c 0
 2032 128 2290 253 2447 392 c 128
 2479 420 2504 448 2521 477 c 1
 2590 250 l 1
 2408 56 2114 -96 1750 -96 c 0
 1538 -96 1372 -26 1280 96 c 1
 1187 -60 986 -192 742 -192 c 0
 299 -192 96 187 96 633 c 0
 96 1178 338 1636 722 1802 c 128
 805 1838 896 1856 995 1856 c 0
 1255 1856 1448 1713 1536 1536 c 1
 1634 1673 1774 1770 1985 1770 c 0
 2205 1770 2383 1673 2528 1568 c 1
 2432 1376 l 1
 2333 1475 2189 1557 1998 1557 c 0
 1796 1557 1664 1453 1632 1280 c 2
 1568 928 l 1
 2080 928 l 2
 2128 928 2158 884 2158 836 c 0
 2158 768 2104 736 2034 736 c 2
 1536 736 l 1
 1508 624 1465 512 1465 390 c 0
352 583 m 0
 352 292 480 32 766 32 c 0
 985 32 1105 206 1184 352 c 1
 1376 1280 l 1
 1352 1486 1259 1664 1034 1664 c 0
 797 1664 648 1454 555 1293 c 128
 447 1106 352 864 352 583 c 0
EndSplineSet
EndChar

StartChar: oe
Encoding: 194 339 71
Width: 1301
Flags: HW
LayerCount: 2
Fore
SplineSet
996 212 m 0
 1189 212 1363 355 1466 455 c 1
 1595 321 l 1
 1452 173 1259 0 980 0 c 0
 829 0 735 102 704 224 c 1
 652 119 545 0 394 0 c 0
 163 0 64 206 64 437 c 0
 64 674 210 867 379 937 c 128
 413 951 447 958 481 958 c 0
 609 958 683 870 736 768 c 1
 799 895 891 959 1012 959 c 0
 1166 959 1275 863 1275 709 c 0
 1275 486 1050 353 870 303 c 1
 897 255 925 212 996 212 c 0
288 396 m 0
 288 287 324 192 433 192 c 0
 551 192 608 425 608 551 c 0
 608 650 587 768 491 768 c 0
 356 768 288 538 288 396 c 0
1091 665 m 0
 1091 711 1074 768 1034 768 c 0
 884 768 847 618 847 470 c 1
 946 470 1091 569 1091 665 c 0
EndSplineSet
EndChar

StartChar: fraction
Encoding: 223 8260 72
Width: 1248
Flags: HW
LayerCount: 2
Fore
SplineSet
341 -33 m 256
 269 -33 222 -18 222 55 c 0
 222 152 266 210 304 295 c 128
 507 755 720 1239 928 1696 c 0
 968 1782 1059 1856 1184 1856 c 0
 1240 1856 1248 1814 1248 1760 c 0
 1248 1714 1212 1659 1196 1622 c 0
 966 1119 766 563 514 64 c 0
 482 2 432 -33 341 -33 c 256
EndSplineSet
EndChar

StartChar: numbersign
Encoding: 5 35 73
Width: 1248
Flags: HW
LayerCount: 2
Fore
SplineSet
166 556 m 0
 166 658 272 672 378 672 c 2
 416 672 l 1
 545 960 l 1
 483 960 l 2
 410 960 349 994 349 1068 c 0
 349 1178 479 1184 591 1184 c 2
 644 1184 l 1
 782 1490 l 1
 812 1562 885 1631 987 1631 c 0
 1036 1631 1044 1594 1044 1546 c 0
 1044 1529 1033 1507 1026 1491 c 128
 1018 1473 1020 1473 1012 1455 c 128
 975 1366 934 1279 894 1184 c 1
 982 1184 1074 1185 1163 1185 c 1
 1222 1352 1250 1635 1468 1635 c 0
 1521 1635 1533 1596 1533 1550 c 0
 1533 1467 1483 1391 1457 1317 c 128
 1443 1276 1428 1232 1413 1185 c 1
 1539 1185 l 2
 1588 1185 1621 1170 1621 1123 c 0
 1621 993 1511 960 1375 960 c 2
 1339 960 l 1
 1308 864 1275 769 1241 673 c 1
 1328 673 l 1
 1373 669 1410 655 1410 609 c 0
 1410 481 1298 448 1164 448 c 2
 1161 448 l 1
 1112 316 1061 186 1007 55 c 0
 986 3 954 -31 885 -31 c 0
 819 -31 779 -8 779 60 c 0
 779 89 787 126 803 172 c 2
 900 447 l 1
 795 446 685 445 576 445 c 1
 515 313 453 182 387 51 c 0
 361 1 329 -35 257 -35 c 0
 198 -35 159 -17 159 43 c 0
 159 89 175 128 193 168 c 2
 317 447 l 1
 311 447 306 448 300 448 c 0
 227 448 166 482 166 556 c 0
800 960 m 1
 759 863 719 768 676 669 c 1
 828 669 l 130
 878 669 929 669 980 670 c 1
 997 717 1014 765 1031 814 c 128
 1057 887 1057 887 1083 960 c 1
 800 960 l 1
EndSplineSet
EndChar

StartChar: percent
Encoding: 7 37 74
Width: 2208
Flags: HW
LayerCount: 2
Fore
SplineSet
594 1728 m 0
 837 1728 950 1554 950 1312 c 0
 950 1023 802 784 596 699 c 128
 552 681 505 672 455 672 c 0
 213 672 94 877 94 1120 c 0
 94 1446 268 1728 594 1728 c 0
350 1141 m 0
 350 1031 370 864 473 864 c 0
 631 864 706 1151 706 1314 c 0
 706 1425 677 1536 568 1536 c 0
 405 1536 350 1310 350 1141 c 0
672 0 m 0
 609 0 580 34 580 96 c 0
 580 203 622 250 664 332 c 128
 894 781 1135 1252 1372 1696 c 0
 1405 1757 1472 1792 1568 1792 c 0
 1603 1792 1613 1764 1613 1730 c 0
 1613 1678 1598 1628 1580 1592 c 0
 1340 1109 1117 566 864 96 c 0
 832 36 761 0 672 0 c 0
1808 1120 m 0
 2049 1120 2146 917 2146 674 c 0
 2146 398 2001 171 1804 90 c 128
 1762 73 1717 64 1669 64 c 0
 1433 64 1312 247 1312 482 c 0
 1312 816 1475 1120 1808 1120 c 0
1568 494 m 0
 1568 393 1590 256 1687 256 c 0
 1832 256 1900 508 1900 656 c 0
 1900 765 1886 928 1782 928 c 0
 1613 928 1568 671 1568 494 c 0
EndSplineSet
EndChar

StartChar: bar
Encoding: 94 124 75
Width: 1248
Flags: HW
LayerCount: 2
Fore
SplineSet
579 -32 m 1
 583 -38 584 -41 584 -43 c 0
 584 -44 585 -43 584 -43 c 0
 574 -43 472 64 472 129 c 0
 472 373 544 636 582 877 c 128
 625 1148 672 1433 715 1696 c 0
 729 1785 792 1856 892 1856 c 0
 952 1856 987 1797 987 1739 c 0
 987 1519 924 1299 891 1080 c 128
 843 765 796 441 750 128 c 0
 738 43 671 -32 579 -32 c 1
EndSplineSet
EndChar

StartChar: quotedbl
Encoding: 4 34 76
Width: 1184
Flags: HW
LayerCount: 2
Fore
SplineSet
240 1185 m 256
 189 1185 160 1227 160 1283 c 0
 160 1438 192 1576 192 1728 c 0
 192 1810 277 1856 360 1856 c 0
 433 1856 488 1820 488 1747 c 0
 488 1593 399 1410 352 1280 c 0
 335 1231 297 1185 240 1185 c 256
624 1185 m 256
 573 1185 544 1227 544 1283 c 0
 544 1438 576 1576 576 1728 c 0
 576 1810 661 1856 744 1856 c 0
 817 1856 872 1820 872 1747 c 0
 872 1593 783 1410 736 1280 c 0
 719 1231 681 1185 624 1185 c 256
EndSplineSet
EndChar

StartChar: X
Encoding: 58 88 77
Width: 1536
Flags: HW
LayerCount: 2
Fore
SplineSet
140 -105 m 0
 62 -105 3 -75 3 -5 c 0
 3 67 65 128 110 184 c 128
 300 420 506 669 696 903 c 1
 687 934 l 1
 657 1137 616 1472 390 1472 c 0
 327 1472 234 1294 208 1244 c 0
 197 1224 187 1214 178 1214 c 0
 131 1214 114 1382 114 1436 c 0
 114 1614 205 1728 380 1728 c 0
 747 1728 860 1429 925 1116 c 1
 1047 1301 1193 1485 1360 1622 c 128
 1407 1660 1465 1710 1531 1710 c 0
 1633 1710 1671 1557 1671 1450 c 0
 1671 1328 1599 1257 1481 1257 c 0
 1462 1257 1461 1289 1461 1324 c 0
 1461 1333 1461 1341 1461 1350 c 0
 1461 1383 1459 1412 1443 1412 c 0
 1371 1412 1297 1299 1256 1250 c 128
 1167 1143 1080 1019 1000 901 c 1
 1050 715 1078 529 1124 350 c 128
 1148 254 1181 159 1295 159 c 0
 1429 159 1520 300 1595 416 c 1
 1605 426 1616 431 1629 431 c 0
 1682 431 1724 364 1724 310 c 0
 1724 289 1715 273 1702 257 c 0
 1597 134 1474 11 1314 -44 c 128
 1275 -58 1239 -64 1207 -64 c 0
 940 -64 892 180 836 401 c 128
 817 478 796 568 774 671 c 1
 666 509 666 509 572 368 c 0
 484 236 391 95 302 -31 c 0
 272 -72 209 -105 140 -105 c 0
EndSplineSet
EndChar

StartChar: Euro
Encoding: 225 8364 78
Width: 1857
Flags: HW
LayerCount: 2
Fore
SplineSet
801 704 m 2
 853 704 896 682 896 628 c 0
 896 548 851 512 768 512 c 2
 385 512 l 1
 384 505 384 498 384 492 c 128
 384 482 384 482 384 472 c 0
 384 217 628 200 752 62 c 1
 1004 62 1211 187 1353 305 c 0
 1368 318 1387 321 1405 321 c 0
 1460 321 1504 277 1504 221 c 0
 1504 181 1481 153 1455 131 c 0
 1275 -25 1025 -192 700 -192 c 0
 297 -192 96 73 96 482 c 0
 96 490 96 490 96 497 c 128
 96 502 96 507 97 512 c 1
 32 512 l 2
 -36 512 -65 555 -65 621 c 0
 -65 680 -30 704 32 704 c 2
 121 704 l 1
 129 749 140 790 153 832 c 1
 97 832 l 2
 29 832 0 875 0 941 c 0
 0 1000 35 1024 97 1024 c 2
 223 1024 l 1
 363 1343 582 1653 929 1762 c 128
 992 1782 1056 1792 1123 1792 c 0
 1397 1792 1572 1669 1572 1405 c 0
 1572 1268 1526 1132 1463 1058 c 128
 1444 1036 1427 1026 1412 1026 c 0
 1359 1026 1269 1050 1269 1102 c 0
 1269 1104 1269 1104 1269 1108 c 128
 1269 1200 1333 1282 1333 1390 c 256
 1333 1527 1230 1568 1088 1568 c 0
 866 1568 724 1376 632 1230 c 128
 590 1164 553 1096 521 1024 c 1
 866 1024 l 2
 918 1024 961 1002 961 948 c 0
 961 868 916 832 833 832 c 2
 448 832 l 1
 434 790 423 749 413 704 c 1
 801 704 l 2
EndSplineSet
EndChar

StartChar: equal
Encoding: 31 61 79
Width: 1707
Flags: HW
HStem: 382 225<379.92 1564.8>
LayerCount: 2
Fore
SplineSet
483 382 m 2
 410 382 349 416 349 490 c 0
 349 600 479 606 591 606 c 2
 852 606 l 2
 965 606 1092 607 1208 607 c 2
 1539 607 l 2
 1588 607 1621 592 1621 545 c 0
 1621 415 1511 382 1375 382 c 2
 483 382 l 2
EndSplineSet
EndChar

StartChar: ampersand
Encoding: 8 38 80
Width: 1472
Flags: HW
LayerCount: 2
Fore
SplineSet
558 0 m 0
 301 0 64 97 64 345 c 0
 64 602 295 762 471 857 c 1
 417 957 353 1095 353 1242 c 0
 353 1473 550 1652 782 1652 c 0
 970 1652 1115 1541 1115 1355 c 0
 1115 1112 921 963 758 864 c 1
 825 729 931 589 1008 457 c 1
 1048 486 1069 519 1069 586 c 0
 1069 703 994 754 945 832 c 1
 945 838 976 864 982 864 c 0
 1126 864 1281 658 1281 513 c 0
 1281 397 1213 320 1134 256 c 1
 1175 256 1291 151 1291 106 c 0
 1291 38 1215 -45 1147 -45 c 0
 1081 -45 1013 66 978 106 c 128
 966 120 960 127 960 128 c 1
 865 55 730 0 558 0 c 0
322 381 m 0
 322 252 433 202 566 202 c 0
 663 202 746 241 809 282 c 1
 696 416 615 540 525 704 c 1
 434 636 322 530 322 381 c 0
928 1332 m 0
 928 1414 878 1440 794 1440 c 0
 713 1440 646 1347 646 1262 c 0
 646 1219 685 993 711 993 c 1
 801 1075 928 1172 928 1332 c 0
EndSplineSet
EndChar

StartChar: colon
Encoding: 28 58 81
Width: 704
Flags: HW
LayerCount: 2
Fore
SplineSet
563 1025 m 0
 671 1025 732 969 732 863 c 0
 732 748 663 672 544 672 c 0
 438 672 380 727 380 834 c 0
 380 949 446 1025 563 1025 c 0
503 353 m 0
 611 353 672 297 672 191 c 0
 672 76 603 0 484 0 c 0
 378 0 320 55 320 162 c 0
 320 277 386 353 503 353 c 0
EndSplineSet
EndChar

StartChar: semicolon
Encoding: 29 59 82
Width: 768
Flags: HW
LayerCount: 2
Fore
SplineSet
368 -191 m 0
 321 -191 287 -158 287 -109 c 0
 287 10 347 128 377 237 c 0
 392 291 445 321 514 321 c 0
 592 321 671 282 671 205 c 0
 671 143 631 102 604 60 c 128
 582 26 580 26 558 -8 c 128
 514 -75 470 -191 368 -191 c 0
563 1025 m 0
 671 1025 732 969 732 863 c 0
 732 748 663 672 544 672 c 0
 438 672 380 727 380 834 c 0
 380 949 446 1025 563 1025 c 0
EndSplineSet
EndChar

StartChar: comma
Encoding: 14 44 83
Width: 609
Flags: HW
LayerCount: 2
Fore
SplineSet
368 -191 m 0
 321 -191 287 -158 287 -109 c 0
 287 10 347 128 377 237 c 0
 392 291 445 321 514 321 c 0
 592 321 671 282 671 205 c 0
 671 143 631 102 604 60 c 128
 582 26 580 26 558 -8 c 128
 514 -75 470 -191 368 -191 c 0
EndSplineSet
EndChar

StartChar: bullet
Encoding: 218 8226 84
Width: 1120
Flags: HW
LayerCount: 2
Fore
SplineSet
512 251 m 0
 342 251 256 368 256 544 c 0
 256 756 431 896 640 896 c 0
 787 896 864 822 864 672 c 0
 864 447 730 251 512 251 c 0
EndSplineSet
EndChar

StartChar: ring
Encoding: 204 730 85
Width: 737
Flags: HW
HStem: 1088 134<246.179 438.712> 1480 129<280.735 481.811>
VStem: 95 135<1236.73 1429.72> 493 145<1274.16 1469.08>
LayerCount: 2
Fore
SplineSet
327 1088 m 0
 186 1088 95 1179 95 1325 c 0
 95 1499 258 1609 431 1609 c 0
 553 1609 638 1527 638 1402 c 0
 638 1216 508 1088 327 1088 c 0
493 1389 m 0
 493 1443 463 1480 406 1480 c 256
 307 1480 230 1419 230 1324 c 0
 230 1264 267 1222 327 1222 c 0
 422 1222 493 1297 493 1389 c 0
EndSplineSet
EndChar

StartChar: plus
Encoding: 13 43 87
Width: 1503
Flags: HW
LayerCount: 2
Fore
SplineSet
768 60 m 256
 703 60 673 121 673 189 c 2
 673 416 l 1
 449 416 l 2
 381 416 320 446 320 511 c 256
 320 577 384 608 453 608 c 2
 673 608 l 1
 673 836 l 2
 673 902 717 955 782 955 c 0
 834 955 865 914 865 855 c 2
 865 608 l 1
 1115 608 l 2
 1174 608 1215 577 1215 525 c 0
 1215 460 1162 416 1096 416 c 2
 865 416 l 1
 865 193 l 2
 865 124 834 60 768 60 c 256
EndSplineSet
EndChar

StartChar: braceleft
Encoding: 93 123 88
Width: 1153
Flags: HW
LayerCount: 2
Fore
SplineSet
487 1384 m 1
 520 1597 639 1824 877 1824 c 0
 1037 1824 1185 1798 1278 1728 c 0
 1294 1715 1305 1695 1305 1669 c 0
 1305 1601 1251 1536 1183 1536 c 0
 1088 1536 1000 1568 900 1568 c 0
 698 1568 717 1118 660 968 c 128
 627 882 576 813 488 781 c 1
 591 755 627 662 627 534 c 0
 627 378 580 234 580 86 c 0
 580 4 596 -56 675 -56 c 0
 778 -56 828 18 926 18 c 0
 986 18 1019 -26 1019 -87 c 0
 1019 -255 731 -312 570 -312 c 0
 389 -312 312 -160 312 23 c 0
 312 170 365 298 365 439 c 0
 365 549 320 632 209 632 c 0
 154 632 132 680 132 735 c 0
 132 818 176 918 254 920 c 0
 428 924 487 1022 487 1176 c 2
 487 1384 l 1
EndSplineSet
EndChar

StartChar: asterisk
Encoding: 12 42 89
Width: 1024
Flags: HW
LayerCount: 2
Fore
SplineSet
601 1824 m 0
 651 1824 694 1797 694 1745 c 0
 694 1732 693 1720 689 1708 c 0
 658 1616 622 1516 586 1429 c 1
 667 1472 755 1521 835 1566 c 0
 846 1572 856 1576 873 1576 c 0
 936 1576 993 1515 993 1452 c 0
 993 1349 738 1339 642 1326 c 1
 725 1289 816 1248 897 1208 c 0
 927 1193 951 1170 951 1133 c 0
 951 1072 885 1022 823 1022 c 1
 800 1022 780 1030 765 1045 c 0
 695 1110 618 1180 553 1248 c 1
 550 1154 548 1052 548 957 c 0
 548 897 485 864 424 864 c 0
 372 864 331 890 331 943 c 0
 331 1050 402 1168 438 1255 c 1
 359 1210 272 1163 191 1120 c 0
 180 1113 167 1110 153 1110 c 0
 90 1110 32 1172 32 1235 c 0
 32 1340 286 1344 381 1360 c 1
 298 1397 208 1436 128 1477 c 0
 91 1496 74 1522 74 1551 c 0
 74 1613 141 1663 203 1663 c 0
 226 1663 245 1655 260 1640 c 0
 329 1574 405 1502 473 1437 c 1
 473 1532 478 1635 478 1731 c 0
 478 1793 539 1824 601 1824 c 0
EndSplineSet
EndChar

StartChar: dagger
Encoding: 216 8224 90
Width: 1152
Flags: HW
LayerCount: 2
Fore
SplineSet
750 1525 m 0
 750 1415 717 1323 694 1216 c 1
 939 1216 l 2
 990 1216 1024 1189 1024 1137 c 0
 1024 1071 984 1055 920 1055 c 2
 660 1055 l 1
 612 826 558 586 506 368 c 256
 488 291 442 255 352 255 c 0
 295 255 280 312 280 369 c 0
 280 529 348 698 385 854 c 128
 401 921 417 988 433 1055 c 1
 224 1055 l 2
 162 1055 128 1070 128 1129 c 0
 128 1188 175 1216 234 1216 c 2
 470 1216 l 1
 507 1370 500 1606 687 1606 c 0
 734 1606 750 1572 750 1525 c 0
EndSplineSet
EndChar

StartChar: daggerdbl
Encoding: 217 8225 91
Width: 1152
Flags: HW
LayerCount: 2
Fore
SplineSet
750 1525 m 0
 750 1415 717 1323 694 1216 c 1
 939 1216 l 2
 990 1216 1024 1189 1024 1137 c 0
 1024 1071 984 1055 920 1055 c 2
 660 1055 l 1
 640 961 619 862 598 769 c 1
 843 769 l 2
 894 769 928 742 928 690 c 0
 928 624 888 608 824 608 c 2
 562 608 l 1
 527 457 532 255 352 255 c 0
 295 255 280 312 280 369 c 0
 280 453 307 524 326 608 c 1
 128 608 l 2
 66 608 32 623 32 682 c 0
 32 741 79 769 138 769 c 2
 364 769 l 1
 433 1055 l 1
 224 1055 l 2
 162 1055 128 1070 128 1129 c 0
 128 1188 175 1216 234 1216 c 2
 470 1216 l 1
 507 1370 500 1606 687 1606 c 0
 734 1606 750 1572 750 1525 c 0
EndSplineSet
EndChar

StartChar: perthousand
Encoding: 220 8240 92
Width: 3169
Flags: HW
LayerCount: 2
Fore
SplineSet
594 1728 m 0
 837 1728 950 1554 950 1312 c 0
 950 1023 802 784 596 699 c 128
 552 681 505 672 455 672 c 0
 213 672 94 877 94 1120 c 0
 94 1446 268 1728 594 1728 c 0
350 1141 m 0
 350 1031 370 864 473 864 c 0
 631 864 706 1151 706 1314 c 0
 706 1425 677 1536 568 1536 c 0
 405 1536 350 1310 350 1141 c 0
672 0 m 0
 609 0 580 34 580 96 c 0
 580 203 622 250 664 332 c 128
 894 781 1135 1252 1372 1696 c 0
 1405 1757 1472 1792 1568 1792 c 0
 1603 1792 1613 1764 1613 1730 c 0
 1613 1678 1598 1628 1580 1592 c 0
 1340 1109 1117 566 864 96 c 0
 832 36 761 0 672 0 c 0
1808 1120 m 0
 2049 1120 2146 917 2146 674 c 0
 2146 398 2001 171 1804 90 c 128
 1762 73 1717 64 1669 64 c 0
 1433 64 1312 247 1312 482 c 0
 1312 816 1475 1120 1808 1120 c 0
1568 494 m 0
 1568 393 1590 256 1687 256 c 0
 1832 256 1900 508 1900 656 c 0
 1900 765 1886 928 1782 928 c 0
 1613 928 1568 671 1568 494 c 0
2736 1120 m 0
 2977 1120 3074 917 3074 674 c 0
 3074 398 2929 171 2732 90 c 128
 2690 73 2645 64 2597 64 c 0
 2361 64 2240 247 2240 482 c 0
 2240 816 2403 1120 2736 1120 c 0
2496 494 m 0
 2496 393 2518 256 2615 256 c 0
 2760 256 2828 508 2828 656 c 0
 2828 765 2814 928 2710 928 c 0
 2541 928 2496 671 2496 494 c 0
EndSplineSet
EndChar

StartChar: one
Encoding: 19 49 93
Width: 672
Flags: HW
LayerCount: 2
Fore
SplineSet
308 0 m 0
 242 0 151 8 151 71 c 0
 151 87 152 94 160 107 c 1
 225 342 278 596 320 850 c 1
 297 825 242 757 202 757 c 0
 135 757 8 766 8 807 c 0
 8 830 60 832 94 832 c 0
 121 832 157 871 180 890 c 128
 254 950 355 1056 480 1056 c 0
 481 1056 l 0
 526 1056 570 1056 570 1027 c 0
 570 1000 567 971 562 938 c 2
 556 902 l 130
 517 645 522 252 394 56 c 128
 376 29 349 0 308 0 c 0
EndSplineSet
EndChar

StartChar: dotlessi
Encoding: 190 305 94
Width: 537
Flags: HW
HStem: 0 192<216.692 480.851> 213 203<533 736> 940 20G<374.313 437.89>
VStem: 96 256<193.635 526.045>
LayerCount: 2
Fore
SplineSet
352 290 m 0
 352 240 357 192 403 192 c 0
 534 192 658 352 736 416 c 1
 736 213 l 1
 636 121 466 0 282 0 c 1
 151 0 96 71 96 201 c 0
 96 438 182 661 232 863 c 0
 248 928 335 960 414 960 c 0
 462 960 486 945 486 903 c 0
 486 695 352 514 352 290 c 0
EndSplineSet
EndChar

StartChar: backslash
Encoding: 62 92 95
Width: 1248
Flags: HW
LayerCount: 2
Fore
SplineSet
155 1743 m 0
 155 1815 196 1864 267 1864 c 0
 408 1864 440 1708 489 1598 c 128
 696 1138 913 656 1120 197 c 0
 1140 150 1159 108 1159 55 c 0
 1159 -8 1114 -39 1053 -39 c 0
 966 -39 896 6 867 64 c 0
 611 569 414 1111 185 1622 c 0
 168 1659 155 1697 155 1743 c 0
EndSplineSet
EndChar

StartChar: quotedblbase
Encoding: 215 8222 96
Width: 1025
Flags: HW
LayerCount: 2
Fore
SplineSet
759 -191 m 0
 712 -191 678 -158 678 -109 c 0
 678 10 738 128 768 237 c 0
 783 291 836 321 905 321 c 0
 983 321 1062 282 1062 205 c 0
 1062 143 1021 102 994 60 c 128
 972 26 972 26 950 -8 c 128
 906 -75 861 -191 759 -191 c 0
368 -191 m 0
 321 -191 287 -158 287 -109 c 0
 287 10 347 128 377 237 c 0
 392 291 445 321 514 321 c 0
 592 321 671 282 671 205 c 0
 671 143 631 102 604 60 c 128
 582 26 580 26 558 -8 c 128
 514 -75 470 -191 368 -191 c 0
EndSplineSet
EndChar

StartChar: ellipsis
Encoding: 219 8230 97
Width: 1567
Flags: HW
LayerCount: 2
Fore
SplineSet
919 353 m 0
 1027 353 1088 297 1088 191 c 0
 1088 76 1019 0 900 0 c 0
 794 0 736 55 736 162 c 0
 736 277 802 353 919 353 c 0
1335 353 m 0
 1443 353 1504 297 1504 191 c 0
 1504 76 1435 0 1316 0 c 0
 1210 0 1152 55 1152 162 c 0
 1152 277 1218 353 1335 353 c 0
503 353 m 0
 611 353 672 297 672 191 c 0
 672 76 603 0 484 0 c 0
 378 0 320 55 320 162 c 0
 320 277 386 353 503 353 c 0
EndSplineSet
EndChar

StartChar: braceright
Encoding: 95 125 98
Width: 1248
Flags: HW
LayerCount: 2
Fore
SplineSet
1016 1415 m 0
 1016 1248 955 1111 955 943 c 0
 955 837 1012 802 1118 800 c 0
 1172 799 1193 744 1193 688 c 0
 1193 606 1154 512 1073 512 c 0
 963 512 896 440 880 346 c 0
 833 66 800 -196 586 -308 c 128
 543 -330 498 -342 450 -342 c 0
 320 -342 64 -289 64 -163 c 0
 64 -83 122 -12 198 -12 c 1
 197 -12 195 -11 195 -11 c 0
 186 -11 334 -86 427 -86 c 0
 626 -86 610 356 670 501 c 128
 702 578 752 642 840 661 c 1
 743 697 702 784 702 916 c 0
 702 1067 748 1206 748 1350 c 0
 748 1432 732 1488 652 1488 c 0
 549 1488 457 1456 359 1456 c 0
 305 1456 274 1498 274 1552 c 0
 274 1718 588 1744 757 1744 c 0
 937 1744 1016 1598 1016 1415 c 0
EndSplineSet
EndChar

StartChar: bracketright
Encoding: 63 93 99
Width: 927
Flags: HW
LayerCount: 2
Fore
SplineSet
735 1667 m 2
 842 1667 912 1631 912 1528 c 0
 912 1416 879 1329 860 1218 c 128
 794 840 759 450 696 60 c 0
 672 -88 601 -192 416 -192 c 2
 108 -192 l 2
 47 -192 0 -139 0 -80 c 1
 0 -22 61 32 119 32 c 2
 416 32 l 1
 416 257 488 518 522 745 c 128
 557 979 593 1217 629 1443 c 1
 369 1443 l 2
 315 1443 264 1490 264 1544 c 0
 264 1607 323 1667 389 1667 c 2
 735 1667 l 2
EndSplineSet
EndChar

StartChar: circumflex
Encoding: 201 710 100
Width: 864
Flags: HW
HStem: 1020 676<590.961 639.985>
VStem: 108 230<1069.84 1223.61> 527 259<1101.83 1291.07>
LayerCount: 2
Fore
SplineSet
786 1133 m 0
 786 1066 742 1020 671 1020 c 0
 544 1020 546 1228 527 1327 c 0
 512 1406 500 1469 485 1532 c 1
 435 1401 388 1281 338 1152 c 0
 308 1074 278 1024 177 1024 c 0
 136 1024 108 1072 108 1115 c 0
 108 1128 110 1141 116 1153 c 2
 280 1482 l 1
 330 1578 361 1696 501 1696 c 0
 640 1696 661 1559 693 1446 c 0
 721 1347 750 1269 781 1168 c 0
 784 1156 786 1144 786 1133 c 0
EndSplineSet
EndChar

StartChar: caron
Encoding: 202 711 105
Width: 864
Flags: HW
LayerCount: 2
Fore
SplineSet
109 1582 m 0
 109 1651 153 1695 223 1695 c 0
 378 1695 382 1297 410 1183 c 1
 459 1314 504 1437 557 1563 c 0
 589 1640 617 1691 718 1691 c 0
 758 1691 786 1643 786 1600 c 0
 786 1588 785 1575 779 1562 c 2
 615 1233 l 2
 566 1136 534 1019 394 1019 c 0
 255 1019 235 1156 202 1269 c 0
 174 1367 145 1446 114 1547 c 0
 110 1557 109 1569 109 1582 c 0
EndSplineSet
EndChar

StartChar: cedilla
Encoding: 118 184 106
Width: 1184
Flags: HW
LayerCount: 2
Fore
SplineSet
640 96 m 0
 665 96 686 86 686 61 c 0
 686 -99 655 -222 636 -360 c 0
 625 -442 564 -511 473 -511 c 0
 403 -511 362 -464 362 -392 c 0
 362 -272 440 -175 493 -91 c 128
 519 -50 549 -5 576 46 c 0
 587 67 610 96 640 96 c 0
EndSplineSet
EndChar

StartChar: fi
Encoding: 228 64257 107
Width: 1260
Flags: HW
LayerCount: 2
Fore
SplineSet
1075 290 m 0
 1075 240 1080 192 1126 192 c 0
 1257 192 1381 352 1459 416 c 1
 1459 213 l 1
 1359 121 1189 0 1005 0 c 1
 874 0 819 71 819 201 c 0
 819 286 837 376 854 455 c 1
 759 421 652 399 535 397 c 1
 597 283 666 142 666 -29 c 0
 666 -267 571 -604 333 -604 c 256
 99 -604 68 -276 68 -38 c 0
 68 494 165 1053 323 1454 c 128
 390 1625 497 1856 717 1856 c 0
 850 1856 929 1762 929 1624 c 0
 929 1442 846 1281 780 1144 c 128
 687 952 571 763 445 603 c 1
 443 587 l 1
 464 598 471 603 494 603 c 0
 524 603 532 587 560 587 c 0
 709 587 825 633 912 694 c 1
 955 863 l 2
 972 927 1058 960 1137 960 c 0
 1185 960 1209 945 1209 903 c 0
 1209 695 1075 514 1075 290 c 0
354 -379 m 0
 458 -379 457 -167 457 -57 c 0
 457 107 421 300 361 415 c 128
 352 433 343 442 335 442 c 0
 308 442 294 110 294 59 c 0
 294 33 293 -5 293 -47 c 0
 293 -187 300 -379 354 -379 c 0
747 1529 m 0
 747 1583 736 1631 691 1631 c 0
 621 1631 600 1589 578 1533 c 0
 482 1295 435 1100 399 816 c 1
 504 1013 629 1216 716 1418 c 128
 737 1467 747 1504 747 1529 c 0
1184 1089 m 0
 1077 1089 1012 1140 1012 1241 c 0
 1012 1345 1098 1408 1208 1408 c 0
 1306 1408 1378 1366 1378 1268 c 0
 1378 1155 1300 1089 1184 1089 c 0
EndSplineSet
EndChar

StartChar: fl
Encoding: 229 64258 108
Width: 1298
Flags: HW
LayerCount: 2
Fore
SplineSet
1088 381 m 2
 1088 339 1106 244 1141 244 c 0
 1222 244 1296 305 1349 340 c 0
 1391 368 1435 400 1481 437 c 1
 1563 227 l 1
 1438 137 1313 50 1147 10 c 128
 1121 4 1097 0 1074 0 c 0
 902 0 843 283 826 446 c 1
 737 417 641 402 535 397 c 1
 597 283 666 142 666 -29 c 0
 666 -267 571 -604 333 -604 c 256
 99 -604 68 -276 68 -38 c 0
 68 494 165 1053 323 1454 c 128
 390 1625 497 1856 717 1856 c 0
 850 1856 929 1762 929 1624 c 0
 929 1442 846 1281 780 1144 c 128
 687 952 571 763 445 603 c 1
 443 587 l 1
 464 598 471 603 494 603 c 0
 524 603 532 587 560 587 c 0
 664 587 750 610 820 642 c 1
 841 1010 967 1355 1110 1616 c 128
 1176 1737 1281 1920 1450 1920 c 0
 1565 1920 1594 1810 1594 1694 c 0
 1594 1375 1447 1131 1330 912 c 128
 1242 748 1119 601 1088 395 c 1
 1088 381 l 2
1386 1594 m 0
 1386 1599 1386 1606 1386 1614 c 0
 1386 1636 1385 1664 1375 1664 c 0
 1250 1664 1175 1386 1142 1266 c 128
 1113 1160 1090 1039 1090 899 c 2
 1090 828 l 2
 1090 816 1090 805 1091 795 c 1
 1214 1013 1386 1294 1386 1594 c 0
354 -379 m 0
 458 -379 457 -167 457 -57 c 0
 457 107 421 300 361 415 c 128
 352 433 343 442 335 442 c 0
 308 442 294 110 294 59 c 0
 294 33 293 -5 293 -47 c 0
 293 -187 300 -379 354 -379 c 0
747 1529 m 0
 747 1583 736 1631 691 1631 c 0
 621 1631 600 1589 578 1533 c 0
 482 1295 435 1100 399 816 c 1
 504 1013 629 1216 716 1418 c 128
 737 1467 747 1504 747 1529 c 0
EndSplineSet
EndChar

StartChar: oslash
Encoding: 182 248 109
Width: 873
Flags: HW
LayerCount: 2
Fore
SplineSet
653 948 m 1
 868 904 1011 752 1127 606 c 1
 1108 465 l 1
 1022 580 870 680 750 760 c 1
 742 749 l 1
 775 683 800 595 800 503 c 256
 800 246 648 0 394 0 c 1
 360 -108 l 1
 346 -146 328 -180 279 -180 c 256
 237 -180 224 -158 224 -114 c 0
 224 -58 237 -23 254 33 c 1
 129 98 64 250 64 437 c 0
 64 732 233 946 514 959 c 1
 539 1054 558 1216 674 1216 c 0
 704 1216 704 1175 704 1145 c 0
 704 1112 689 1072 680 1043 c 2
 653 948 l 1
459 763 m 1
 338 728 258 551 258 396 c 0
 258 328 276 273 311 237 c 1
 459 763 l 1
450 194 m 1
 567 216 638 410 638 551 c 0
 638 620 623 681 593 719 c 1
 548 548 501 372 450 194 c 1
EndSplineSet
EndChar

StartChar: Oslash
Encoding: 150 216 110
Width: 1719
Flags: HW
HStem: -192 224<799 997.984> 1663 193<906.858 1065.31>
VStem: 155 256<310.239 900.152> 521 173<-415.383 -279.048> 1435 256<747.069 1395.93>
DStem2: 557 -142 735 -188 0.271497 0.962439<-200.999 6.92164 241.896 1875.39 2072.27 2331.69>
LayerCount: 2
Fore
SplineSet
1289 1813 m 1
 1549 1707 1691 1438 1691 1073 c 0
 1691 523 1444 41 1064 -136 c 0
 983 -174 896 -192 801 -192 c 0
 778 -192 756 -191 735 -188 c 1
 694 -328 l 1
 676 -380 654 -441 591 -441 c 0
 532 -441 521 -406 521 -344 c 0
 521 -273 537 -210 557 -142 c 1
 297 -27 155 258 155 633 c 0
 155 1178 396 1636 780 1802 c 0
 863 1838 955 1856 1054 1856 c 0
 1076 1856 1098 1855 1119 1853 c 1
 1145 1945 l 2
 1165 2016 1209 2110 1297 2110 c 0
 1333 2110 1338 2080 1338 2044 c 0
 1338 2036 1338 2036 1338 2029 c 0
 1338 1959 1308 1871 1289 1813 c 1
1239 1626 m 1
 1096 1099 947 558 799 33 c 1
 803 32 808 32 812 32 c 0
 818 32 818 32 825 32 c 0
 1275 32 1435 716 1435 1152 c 0
 1435 1367 1376 1548 1239 1626 c 1
622 91 m 1
 838 855 l 2
 914 1122 992 1401 1066 1663 c 1
 695 1634 502 1150 435 814 c 0
 419 733 411 656 411 583 c 0
 411 356 486 183 622 91 c 1
EndSplineSet
EndChar

StartChar: grave
Encoding: 66 96 111
Width: 609
Flags: HW
HStem: 1088 622
VStem: 64 240<1546.52 1671.4>
LayerCount: 2
Fore
SplineSet
64 1574 m 1
 64 1652 131 1710 209 1710 c 0
 256 1710 288 1683 304 1646 c 0
 371 1491 427 1354 496 1203 c 0
 503 1189 506 1173 506 1155 c 0
 506 1119 483 1088 448 1088 c 0
 380 1088 337 1177 302 1220 c 0
 235 1302 163 1392 101 1477 c 0
 76 1512 64 1544 64 1574 c 1
EndSplineSet
EndChar

StartChar: thorn
Encoding: 188 254 112
Width: 1023
Flags: HW
LayerCount: 2
Fore
SplineSet
367 1561 m 0
 440 1561 576 1480 576 1408 c 0
 576 1391 488 1390 486 1376 c 2
 391 805 l 1
 468 872 552 960 666 960 c 0
 829 960 915 813 915 649 c 0
 915 491 882 385 819 288 c 1
 929 352 1031 407 1120 496 c 1
 1197 331 l 1
 1068 214 923 142 723 96 c 1
 680 53 608 24 547 0 c 1
 522 0 l 2
 429 0 340 24 268 50 c 1
 144 -615 l 1
 133 -663 110 -693 53 -693 c 0
 41 -693 31 -692 20 -692 c 0
 -39 -692 -66 -624 -66 -563 c 0
 -66 -166 46 193 110 560 c 128
 122 631 136 714 153 809 c 1
 153 809 152 808 158 836 c 128
 188 988 224 1154 256 1312 c 128
 272 1392 272 1392 288 1472 c 0
 298 1521 320 1561 367 1561 c 0
691 607 m 0
 691 692 648 732 561 732 c 0
 338 732 325 431 307 225 c 1
 362 208 426 192 495 192 c 0
 646 192 691 450 691 607 c 0
EndSplineSet
EndChar

StartChar: periodcentered
Encoding: 117 183 113
Width: 704
Flags: HW
LayerCount: 2
Fore
SplineSet
503 353 m 0
 611 353 672 297 672 191 c 0
 672 76 603 0 484 0 c 0
 378 0 320 55 320 162 c 0
 320 277 386 353 503 353 c 0
EndSplineSet
EndChar

StartChar: dieresis
Encoding: 104 168 116
Width: 1025
Flags: HW
HStem: 1132 322<173.386 383.751 640.789 851.26>
VStem: 128 303<1179.11 1408.13> 595 303<1177.81 1407.98>
LayerCount: 2
Fore
SplineSet
753 1454 m 0
 848 1454 898 1401 898 1306 c 0
 898 1204 841 1132 736 1132 c 0
 645 1132 595 1183 595 1280 c 0
 595 1382 650 1454 753 1454 c 0
286 1454 m 0
 380 1454 431 1401 431 1306 c 0
 431 1205 373 1132 269 1132 c 0
 176 1132 128 1182 128 1280 c 0
 128 1382 183 1454 286 1454 c 0
EndSplineSet
EndChar

StartChar: V
Encoding: 56 86 118
Width: 1236
Flags: HW
HStem: -33 21G<279.155 416.667> 123 188<983.029 1242.36>
VStem: 121 262<1061.6 1569.94> 181 246<261.278 647.398> 788 110<297.944 529.085>
DStem2: 427 260 922 608 0.461911 0.886926<440.878 1508.99>
LayerCount: 2
Fore
SplineSet
402 -33 m 0xd8
 197 -33 180 166 180 363 c 0
 180 403 181 442 181 480 c 0xd8
 181 788 121 1113 121 1436 c 0
 121 1544 159 1599 262 1599 c 0
 358 1599 379 1544 383 1449 c 2xe8
 427 260 l 1
 1078 1510 l 1
 1098 1578 1169 1630 1256 1630 c 0
 1310 1630 1333 1574 1333 1516 c 0
 1333 1378 1244 1235 1190 1124 c 0
 1106 952 1012 773 922 608 c 0
 908 581 898 548 898 510 c 0
 898 373 1013 311 1155 311 c 0
 1220 311 1276 364 1317 393 c 0
 1349 417 1382 444 1416 475 c 1
 1393 268 l 1
 1309 201 1199 123 1073 123 c 1
 902 123 788 213 788 383 c 0
 788 403 790 425 794 448 c 1
 718 270 642 69 491 -10 c 0
 461 -26 431 -33 402 -33 c 0xd8
EndSplineSet
EndChar

StartChar: less
Encoding: 30 60 119
Width: 1184
Flags: HW
LayerCount: 2
Fore
SplineSet
1039 205 m 0
 1039 153 992 126 936 126 c 1
 771 126 629 229 493 275 c 0
 300 340 58 388 58 626 c 1
 58 798 274 827 394 880 c 128
 576 960 785 1055 980 1118 c 0
 995 1123 1009 1125 1024 1125 c 0
 1104 1125 1134 1040 1134 962 c 0
 1134 907 1100 885 1056 872 c 2
 254 613 l 1
 909 373 l 2
 969 351 1039 287 1039 205 c 0
EndSplineSet
EndChar

StartChar: greater
Encoding: 32 62 120
Width: 1184
Flags: HW
LayerCount: 2
Fore
SplineSet
138 922 m 0
 138 1000 168 1085 248 1085 c 0
 369 1085 508 999 610 957 c 128
 688 925 768 895 836 863 c 0
 951 808 1134 791 1134 626 c 0
 1134 340 801 299 590 210 c 128
 495 170 386 106 266 106 c 0
 210 106 163 132 163 185 c 0
 163 260 201 333 253 353 c 2
 938 613 l 1
 216 832 l 2
 172 846 138 867 138 922 c 0
EndSplineSet
EndChar

StartChar: guilsinglleft
Encoding: 221 8249 121
Width: 1089
Flags: HW
LayerCount: 2
Fore
SplineSet
914 158 m 0
 914 107 856 73 802 73 c 0
 782 73 761 78 738 87 c 0
 517 170 347 268 168 385 c 0
 121 415 81 469 81 540 c 0
 81 667 189 739 282 778 c 2
 780 988 l 2
 796 995 813 999 833 999 c 0
 895 999 945 958 945 896 c 0
 945 835 898 796 846 773 c 2
 320 544 l 1
 789 313 l 1
 845 291 914 235 914 158 c 0
EndSplineSet
EndChar

StartChar: guilsinglright
Encoding: 222 8250 122
Width: 1089
Flags: HW
LayerCount: 2
Fore
SplineSet
175 896 m 0
 175 958 225 999 287 999 c 0
 307 999 324 995 340 988 c 2
 838 778 l 1
 937 740 1039 678 1039 570 c 0
 1039 452 975 398 896 352 c 0
 737 262 563 165 382 87 c 0
 359 78 338 73 318 73 c 0
 264 73 206 107 206 158 c 0
 206 236 277 287 331 313 c 2
 800 544 l 1
 274 773 l 1
 222 797 175 835 175 896 c 0
EndSplineSet
EndChar

StartChar: asciicircum
Encoding: 64 94 123
Width: 1089
Flags: HW
LayerCount: 2
Fore
SplineSet
194 511 m 1
 197 508 198 505 198 504 c 0
 198 503 198 504 197 504 c 0
 186 504 93 570 93 621 c 1
 93 702 153 768 186 832 c 128
 237 930 293 1037 344 1132 c 128
 395 1228 447 1344 567 1344 c 0
 687 1344 742 1273 785 1189 c 0
 865 1031 945 859 1013 680 c 0
 1021 660 1023 640 1023 622 c 256
 1023 566 987 508 933 508 c 0
 858 508 808 587 784 642 c 2
 578 1124 l 1
 318 603 l 1
 291 554 254 511 194 511 c 1
EndSplineSet
EndChar

StartChar: cent
Encoding: 98 162 124
Width: 896
Flags: HW
LayerCount: 2
Fore
SplineSet
429 0 m 1
 196 3 64 179 64 413 c 1
 64 697 254 928 509 956 c 1
 515 1023 l 1
 518 1077 547 1135 604 1135 c 0
 632 1135 645 1086 645 1057 c 0
 645 1027 641 980 638 954 c 1
 762 936 886 866 886 729 c 0
 886 646 853 544 772 544 c 0
 646 544 738 741 624 765 c 1
 612 583 603 394 586 202 c 1
 654 222 734 271 785 307 c 0
 793 313 802 314 809 314 c 0
 852 314 884 262 884 218 c 256
 884 191 871 175 854 161 c 0
 778 98 682 32 568 5 c 1
 552 -130 l 1
 544 -167 532 -199 490 -199 c 0
 482 -199 476 -198 469 -198 c 0
 433 -198 423 -129 423 -89 c 0
 423 -54 427 -40 429 0 c 1
491 750 m 1
 375 703 320 571 320 414 c 0
 320 306 354 214 444 195 c 1
 459 377 475 569 491 750 c 1
EndSplineSet
EndChar

StartChar: yen
Encoding: 101 165 125
Width: 1793
Flags: HW
LayerCount: 2
Fore
SplineSet
1239 545 m 2
 1295 545 1376 536 1376 481 c 0
 1376 397 1283 385 1191 385 c 2
 945 385 l 1
 882 186 813 1 557 1 c 0
 484 1 414 36 414 108 c 0
 414 154 439 213 484 213 c 0
 533 213 558 187 600 187 c 0
 633 187 668 333 683 385 c 1
 589 385 l 2
 514 385 448 405 448 475 c 0
 448 536 521 545 589 545 c 2
 725 545 l 1
 749 641 l 1
 594 641 l 2
 517 641 448 660 448 731 c 0
 448 793 525 801 594 801 c 2
 743 801 l 1
 702 1018 668 1316 536 1446 c 128
 518 1463 500 1472 480 1472 c 0
 382 1472 277 1357 203 1279 c 1
 157 1307 124 1352 78 1400 c 1
 174 1513 288 1620 435 1672 c 128
 471 1685 504 1691 533 1691 c 0
 752 1691 828 1378 874 1186 c 128
 898 1087 920 981 940 869 c 1
 1106 1111 1264 1364 1423 1603 c 0
 1446 1637 1498 1657 1555 1657 c 0
 1616 1657 1660 1631 1660 1570 c 256
 1660 1471 1592 1404 1540 1332 c 128
 1416 1160 1276 980 1148 801 c 1
 1266 801 l 2
 1323 801 1408 793 1408 737 c 0
 1408 652 1309 641 1216 641 c 2
 1042 641 l 1
 1007 545 l 1
 1239 545 l 2
EndSplineSet
EndChar

StartChar: Y
Encoding: 59 89 126
Width: 1392
Flags: HW
HStem: -35 194<231.723 449.228> 1410 186<201.106 370.25>
VStem: 7 187<1283.42 1401.71>
LayerCount: 2
Fore
SplineSet
1403 1602 m 0
 1472 1602 1515 1561 1515 1491 c 0
 1515 1404 1464 1332 1424 1251 c 0
 1317 1035 1186 809 1056 605 c 1
 996 506 l 1
 876 342 770 191 628 68 c 0
 560 9 492 -35 374 -35 c 0
 270 -35 117 62 117 162 c 0
 117 183 126 200 148 200 c 0
 217 200 267 159 350 159 c 0
 476 159 680 454 774 645 c 1
 688 860 516 1161 458 1252 c 0
 412 1324 358 1410 280 1410 c 0
 222 1410 194 1385 194 1330 c 0
 194 1307 199 1278 209 1243 c 0
 211 1238 212 1235 212 1231 c 0
 212 1215 196 1207 174 1207 c 1
 174 1207 7 1265 7 1378 c 0
 7 1539 155 1596 323 1596 c 0
 568 1596 698 1345 788 1148 c 0
 835 1059 880 965 924 864 c 1
 1048 1089 1163 1326 1281 1548 c 0
 1299 1581 1352 1602 1403 1602 c 0
EndSplineSet
EndChar

StartChar: underscore
Encoding: 65 95 127
Width: 1248
Flags: HW
LayerCount: 2
Fore
SplineSet
128 0 m 2
 55 0 -6 34 -6 108 c 0
 -6 218 124 224 236 224 c 2
 496 224 l 130
 609 224 737 225 853 225 c 130
 1184 225 l 2
 1233 225 1266 210 1266 163 c 0
 1266 33 1156 0 1020 0 c 2
 128 0 l 2
EndSplineSet
EndChar

StartChar: copyright
Encoding: 105 169 128
Width: 1792
Flags: HW
LayerCount: 2
Fore
SplineSet
989 1440 m 0
 1379 1440 1626 1224 1626 838 c 0
 1626 436 1378 163 1068 66 c 128
 996 44 918 32 834 32 c 1
 417 32 107 251 107 657 c 0
 107 1146 498 1440 989 1440 c 0
292 646 m 0
 292 342 526 192 838 192 c 0
 1205 192 1441 472 1441 833 c 0
 1441 1126 1253 1278 953 1278 c 0
 572 1278 292 1020 292 646 c 0
1113 587 m 0
 1151 587 1172 534 1172 495 c 0
 1172 470 1162 452 1146 440 c 0
 1068 383 963 323 830 323 c 0
 605 323 518 482 518 660 c 0
 518 818 586 989 686 1076 c 128
 738 1121 806 1158 898 1158 c 0
 1025 1158 1126 1084 1126 959 c 0
 1126 874 1082 784 998 784 c 0
 947 784 933 809 933 858 c 0
 933 881 939 921 939 943 c 0
 939 965 936 986 916 986 c 0
 780 986 739 813 739 677 c 0
 739 578 775 496 876 496 c 0
 960 496 1040 548 1095 582 c 0
 1102 585 1108 587 1113 587 c 0
EndSplineSet
EndChar

StartChar: registered
Encoding: 109 174 129
Width: 1760
Flags: HW
LayerCount: 2
Fore
SplineSet
1001 1557 m 0
 1416 1557 1682 1330 1682 921 c 0
 1682 487 1429 182 1098 74 c 128
 1023 50 942 38 855 38 c 0
 398 38 71 291 71 736 c 1
 71 1255 480 1557 1001 1557 c 0
250 712 m 0
 250 375 504 202 850 202 c 0
 1252 202 1489 534 1489 930 c 0
 1489 1222 1322 1394 1026 1394 c 0
 630 1394 359 1183 273 875 c 128
 258 820 250 766 250 712 c 0
807 800 m 1
 762 639 707 371 517 371 c 0
 475 371 430 377 404 396 c 1
 423 500 l 1
 434 492 450 487 468 487 c 0
 574 487 616 748 633 835 c 1
 606 851 578 865 578 898 c 0
 578 916 588 940 607 940 c 0
 624 940 645 932 662 932 c 1
 688 1020 728 1267 833 1267 c 0
 893 1267 953 1279 1015 1279 c 0
 1167 1279 1282 1202 1282 1054 c 0
 1282 898 1132 817 978 809 c 1
 1056 775 1059 697 1063 591 c 128
 1064 563 1067 532 1093 532 c 0
 1161 532 1221 589 1257 627 c 1
 1296 514 l 1
 1226 466 1124 387 1004 387 c 0
 820 387 945 800 837 800 c 2
 807 800 l 1
1103 1044 m 0
 1103 1112 1038 1143 958 1143 c 2
 897 1143 l 1
 881 1069 864 991 845 919 c 1
 860 917 874 916 889 916 c 0
 983 916 1103 957 1103 1044 c 0
EndSplineSet
EndChar

StartChar: quotedblright
Encoding: 214 8221 130
Width: 1184
Flags: HW
LayerCount: 2
Fore
SplineSet
240 1185 m 256
 189 1185 160 1227 160 1283 c 0
 160 1438 192 1576 192 1728 c 0
 192 1810 277 1856 360 1856 c 0
 433 1856 488 1820 488 1747 c 0
 488 1593 399 1410 352 1280 c 0
 335 1231 297 1185 240 1185 c 256
624 1185 m 256
 573 1185 544 1227 544 1283 c 0
 544 1438 576 1576 576 1728 c 0
 576 1810 661 1856 744 1856 c 0
 817 1856 872 1820 872 1747 c 0
 872 1593 783 1410 736 1280 c 0
 719 1231 681 1185 624 1185 c 256
EndSplineSet
EndChar

StartChar: quotedblleft
Encoding: 213 8220 131
Width: 1184
Flags: HW
LayerCount: 2
Fore
SplineSet
792 1855 m 256
 843 1855 872 1813 872 1757 c 0
 872 1602 840 1463 840 1312 c 0
 840 1229 756 1184 672 1184 c 0
 599 1184 544 1219 544 1293 c 0
 544 1447 633 1629 680 1760 c 0
 697 1809 735 1855 792 1855 c 256
408 1855 m 256
 459 1855 488 1813 488 1757 c 0
 488 1602 456 1463 456 1312 c 0
 456 1229 372 1184 288 1184 c 0
 215 1184 160 1219 160 1293 c 0
 160 1447 249 1629 296 1760 c 0
 313 1809 351 1855 408 1855 c 256
EndSplineSet
EndChar

StartChar: quoteleft
Encoding: 210 8216 132
Width: 704
Flags: HW
LayerCount: 2
Fore
SplineSet
408 1855 m 256
 459 1855 488 1813 488 1757 c 0
 488 1602 456 1463 456 1312 c 0
 456 1229 372 1184 288 1184 c 0
 215 1184 160 1219 160 1293 c 0
 160 1447 249 1629 296 1760 c 0
 313 1809 351 1855 408 1855 c 256
EndSplineSet
EndChar

StartChar: quoteright
Encoding: 211 8217 133
Width: 640
Flags: HW
LayerCount: 2
Fore
SplineSet
240 1185 m 256
 189 1185 160 1227 160 1283 c 0
 160 1438 192 1576 192 1728 c 0
 192 1810 277 1856 360 1856 c 0
 433 1856 488 1820 488 1747 c 0
 488 1593 399 1410 352 1280 c 0
 335 1231 297 1185 240 1185 c 256
EndSplineSet
EndChar

StartChar: mu
Encoding: 115 181 134
Width: 962
Flags: HW
LayerCount: 2
Fore
SplineSet
765 959 m 0
 818 959 876 941 876 895 c 0
 876 708 792 531 792 352 c 0
 792 344 792 336 792 327 c 0
 792 275 795 223 845 223 c 0
 988 223 1149 370 1214 454 c 1
 1214 414 1215 380 1215 342 c 128
 1215 305 1216 273 1216 234 c 1
 1115 133 935 10 745 10 c 256
 630 10 598 118 577 215 c 1
 528 143 452 60 350 60 c 1
 330 60 311 64 293 72 c 1
 277 -76 286 -256 128 -256 c 0
 52 -256 32 -208 32 -128 c 1
 32 205 111 553 181 842 c 0
 203 932 224 959 336 959 c 0
 377 959 435 951 435 920 c 2
 435 917 l 1
 404 733 370 533 342 349 c 128
 339 329 338 319 338 318 c 0
 338 274 353 225 396 225 c 0
 483 225 530 319 545 394 c 2
 644 902 l 2
 652 939 716 959 765 959 c 0
EndSplineSet
EndChar

StartChar: degree
Encoding: 110 176 135
Width: 737
Flags: HW
LayerCount: 2
Fore
SplineSet
324 1055 m 0
 168 1055 64 1155 64 1317 c 0
 64 1511 249 1632 440 1632 c 0
 576 1632 672 1542 672 1403 c 0
 672 1197 525 1055 324 1055 c 0
509 1388 m 0
 509 1447 474 1489 413 1489 c 0
 303 1489 215 1423 215 1316 c 0
 215 1249 256 1203 324 1203 c 0
 429 1203 509 1285 509 1388 c 0
EndSplineSet
EndChar

StartChar: guillemotleft
Encoding: 107 171 153
Width: 1440
Flags: HW
LayerCount: 2
Fore
SplineSet
814 158 m 0
 814 107 756 73 702 73 c 0
 682 73 659 75 638 87 c 0
 485 173 387 272 268 385 c 0
 227 424 192 467 192 533 c 0
 192 710 427 809 532 884 c 128
 591 927 647 999 733 999 c 0
 795 999 845 958 845 896 c 0
 845 838 790 805 746 773 c 2
 420 544 l 1
 689 313 l 1
 732 274 814 240 814 158 c 0
1390 158 m 0
 1390 107 1332 73 1278 73 c 0
 1258 73 1235 75 1214 87 c 0
 1061 173 963 272 844 385 c 0
 803 424 768 467 768 533 c 0
 768 710 1003 809 1108 884 c 128
 1167 927 1223 999 1309 999 c 0
 1371 999 1421 958 1421 896 c 0
 1421 838 1366 805 1322 773 c 2
 996 544 l 1
 1265 313 l 1
 1308 274 1390 240 1390 158 c 0
EndSplineSet
EndChar

StartChar: guillemotright
Encoding: 121 187 154
Width: 1440
Flags: HW
LayerCount: 2
Fore
SplineSet
768 896 m 0
 768 958 818 999 880 999 c 0
 961 999 1026 924 1081 884 c 128
 1130 849 1183 806 1231 778 c 0
 1311 731 1421 654 1421 533 c 0
 1421 431 1331 374 1276 318 c 128
 1188 229 1094 154 975 87 c 0
 954 75 931 73 911 73 c 0
 857 73 799 107 799 158 c 0
 799 243 879 274 924 313 c 2
 1193 544 l 1
 867 773 l 2
 823 805 768 838 768 896 c 0
192 896 m 0
 192 958 242 999 304 999 c 0
 385 999 450 924 505 884 c 128
 554 849 607 806 655 778 c 0
 735 731 845 654 845 533 c 0
 845 431 755 374 700 318 c 128
 612 229 518 154 399 87 c 0
 378 75 355 73 335 73 c 0
 281 73 223 107 223 158 c 0
 223 243 303 274 348 313 c 2
 617 544 l 1
 291 773 l 2
 247 805 192 838 192 896 c 0
EndSplineSet
EndChar

StartChar: sterling
Encoding: 99 163 155
Width: 1505
Flags: HW
LayerCount: 2
Fore
SplineSet
1264 992 m 2
 1352 992 1422 958 1422 868 c 0
 1422 787 1349 768 1263 768 c 2
 1012 768 l 1
 993 593 964 412 939 244 c 128
 936 226 935 216 936 215 c 1
 1132 215 1253 272 1433 272 c 0
 1503 272 1589 240 1589 170 c 0
 1589 3 1345 17 1191 -2 c 128
 1086 -15 957 -29 842 -29 c 0
 717 -29 634 15 634 135 c 0
 634 190 652 249 666 292 c 1
 682 445 733 610 748 768 c 1
 632 768 l 2
 565 768 525 816 525 879 c 0
 525 958 573 992 656 992 c 2
 768 992 l 1
 768 1400 944 1714 1343 1714 c 0
 1563 1714 1712 1620 1712 1398 c 0
 1712 1323 1678 1266 1606 1266 c 256
 1551 1266 1502 1301 1502 1356 c 0
 1502 1455 1442 1470 1344 1470 c 256
 1090 1470 1024 1251 1024 992 c 1
 1264 992 l 2
EndSplineSet
EndChar

StartChar: trademark
Encoding: 226 8482 156
Width: 2302
Flags: HW
LayerCount: 2
Fore
SplineSet
1352 962 m 0
 1352 1016 1350 1078 1306 1078 c 0
 1211 1078 1122 798 1089 720 c 128
 1054 635 1021 536 986 453 c 0
 968 410 928 380 873 380 c 0
 809 380 762 426 762 493 c 0
 762 712 884 868 897 1076 c 1
 841 1087 774 1108 714 1114 c 1
 651 906 602 693 550 505 c 0
 537 457 499 390 443 390 c 0
 394 390 367 421 367 474 c 0
 367 639 453 808 508 941 c 128
 533 1002 556 1059 578 1114 c 1
 470 1102 321 1093 321 974 c 0
 321 914 271 880 204 880 c 0
 146 880 116 920 116 974 c 0
 116 1245 424 1266 700 1266 c 0
 804 1266 895 1249 978 1218 c 0
 979 1217 980 1217 982 1217 c 0
 987 1218 992 1219 995 1219 c 0
 1039 1219 1075 1182 1075 1138 c 0
 1075 1131 1073 1125 1072 1119 c 0
 1025 962 976 803 929 655 c 1
 947 647 l 1
 1019 866 1092 1090 1244 1218 c 128
 1276 1245 1309 1266 1356 1266 c 0
 1460 1266 1501 1166 1501 1050 c 0
 1501 1041 1501 1041 1501 1032 c 128
 1501 1026 1501 1020 1500 1014 c 2
 1492 864 l 1
 1540 1024 1621 1266 1814 1266 c 0
 1942 1266 1992 1182 1992 1056 c 0
 1992 905 1955 756 1923 638 c 128
 1914 606 1910 585 1910 574 c 0
 1910 551 1918 540 1933 540 c 0
 2015 540 2109 676 2139 729 c 1
 2150 729 2176 613 2184 585 c 1
 2114 485 2029 400 1893 400 c 0
 1799 400 1748 478 1748 575 c 0
 1748 715 1834 836 1834 993 c 0
 1834 1040 1822 1078 1777 1078 c 0
 1587 1078 1507 604 1464 455 c 0
 1450 408 1405 380 1344 380 c 0
 1295 380 1270 421 1270 468 c 0
 1270 473 1270 472 1270 476 c 128
 1270 626 1352 790 1352 962 c 0
EndSplineSet
EndChar

StartChar: brokenbar
Encoding: 102 166 157
Width: 1025
Flags: HW
LayerCount: 2
Fore
SplineSet
615 943 m 0
 535 943 481 1015 481 1097 c 0
 481 1104 481 1104 481 1110 c 128
 481 1114 482 1120 483 1125 c 0
 507 1326 532 1540 575 1728 c 0
 589 1791 627 1854 691 1854 c 0
 776 1854 808 1757 808 1668 c 0
 808 1657 808 1658 808 1646 c 128
 808 1471 757 1266 735 1088 c 0
 726 1014 695 943 615 943 c 0
415 -160 m 0
 340 -160 308 -76 308 1 c 0
 308 218 369 397 400 608 c 0
 410 681 452 749 533 749 c 0
 616 749 654 671 654 585 c 0
 654 499 631 399 623 338 c 128
 613 258 613 258 605 194 c 128
 593 99 582 31 566 -64 c 0
 556 -126 528 -162 459 -162 c 0
 444 -162 429 -160 415 -160 c 0
EndSplineSet
EndChar

StartChar: germandbls
Encoding: 157 223 162
Width: 1281
Flags: HW
LayerCount: 2
Fore
SplineSet
330 159 m 0
 330 87 332 25 332 -39 c 0
 332 -117 268 -158 191 -158 c 0
 127 -158 64 -129 64 -68 c 0
 64 609 123 1359 612 1558 c 128
 678 1585 751 1598 834 1598 c 0
 1076 1598 1293 1473 1293 1240 c 0
 1293 982 1086 852 824 846 c 1
 1079 846 1261 703 1261 454 c 0
 1261 161 988 3 685 3 c 0
 595 3 514 26 442 52 c 1
 468 234 l 1
 517 219 573 211 633 211 c 0
 841 211 1037 282 1037 489 c 0
 1037 724 830 674 668 746 c 128
 629 763 600 790 600 844 c 0
 600 931 616 961 703 961 c 0
 896 961 1069 1043 1069 1232 c 0
 1069 1355 960 1404 836 1404 c 0
 337 1404 330 650 330 159 c 0
EndSplineSet
EndChar

StartChar: asciitilde
Encoding: 96 126 163
Width: 864
Flags: HW
LayerCount: 2
Fore
SplineSet
229 1378 m 0
 183 1378 146 1405 146 1451 c 0
 146 1566 274 1713 392 1713 c 0
 499 1713 549 1626 608 1568 c 2
 710 1467 l 1
 759 1521 792 1630 891 1630 c 0
 937 1630 974 1603 974 1557 c 0
 974 1442 846 1295 728 1295 c 0
 621 1295 571 1382 512 1440 c 2
 410 1541 l 1
 366 1486 324 1378 229 1378 c 0
EndSplineSet
EndChar

StartChar: tilde
Encoding: 206 732 165
Width: 960
Flags: HW
HStem: 1055 368
DStem2: 505.5 1324 328 1251 0.785926 -0.618321<-92.6441 154.535>
LayerCount: 2
Fore
SplineSet
147 1088 m 0
 101 1088 64 1115 64 1161 c 1
 64 1276 192 1423 310 1423 c 0
 400 1423 447 1371 506 1324 c 0
 538 1299 578 1266 628 1227 c 1
 677 1281 710 1390 809 1390 c 0
 855 1390 892 1363 892 1317 c 0
 892 1202 764 1055 646 1055 c 0
 556 1055 509 1107 450 1154 c 0
 418 1179 378 1212 328 1251 c 1
 284 1196 242 1088 147 1088 c 0
EndSplineSet
EndChar

StartChar: exclamdown
Encoding: 97 161 189
Width: 1184
Flags: HW
LayerCount: 2
Fore
SplineSet
789 1392 m 0
 814 1392 835 1382 835 1357 c 0
 835 1354 834 1349 833 1342 c 0
 790 901 646 528 541 150 c 0
 513 51 444 -2 321 -2 c 1
 324 -6 326 -9 326 -10 c 0
 326 -11 326 -12 325 -12 c 0
 315 -12 246 45 246 93 c 0
 246 217 286 320 322 424 c 128
 432 743 569 1021 705 1342 c 1
 711 1374 752 1392 789 1392 c 0
658 1663 m 0
 658 1773 723 1856 839 1856 c 0
 945 1856 1003 1799 1003 1692 c 0
 1003 1577 937 1501 820 1501 c 0
 716 1501 658 1559 658 1663 c 0
EndSplineSet
EndChar

StartChar: section
Encoding: 103 167 191
Width: 1440
Flags: HW
LayerCount: 2
Fore
SplineSet
831 1312 m 0
 739 1312 647 1270 647 1185 c 0
 647 1081 866 1011 938 971 c 128
 1062 903 1228 812 1228 625 c 0
 1228 507 1166 431 1093 376 c 1
 1123 330 1144 274 1144 200 c 0
 1144 -21 905 -117 681 -117 c 0
 444 -117 224 -12 224 223 c 0
 224 317 281 408 370 408 c 0
 411 408 453 396 453 357 c 0
 453 315 435 276 435 224 c 0
 435 103 564 62 687 62 c 0
 788 62 892 110 892 210 c 0
 892 388 624 459 509 528 c 128
 424 579 332 651 332 782 c 0
 332 891 402 962 481 1011 c 1
 437 1057 396 1113 396 1197 c 0
 396 1407 638 1491 860 1491 c 0
 1064 1491 1256 1355 1256 1151 c 0
 1256 1070 1221 999 1144 999 c 0
 1097 999 1058 1031 1058 1080 c 0
 1058 1102 1068 1126 1068 1148 c 0
 1068 1261 946 1312 831 1312 c 0
955 514 m 1
 982 540 1006 576 1006 625 c 0
 1006 733 835 796 754 836 c 128
 708 858 663 883 619 908 c 1
 585 879 555 841 555 787 c 0
 555 676 790 608 866 568 c 128
 897 552 926 533 955 514 c 1
EndSplineSet
EndChar

StartChar: currency
Encoding: 100 164 192
Width: 1472
Flags: HW
LayerCount: 2
Fore
SplineSet
898 505 m 1
 834 473 759 452 666 452 c 0
 557 452 474 485 410 535 c 1
 344 487 271 430 196 395 c 128
 176 386 159 381 146 381 c 0
 101 381 64 429 64 474 c 0
 64 522 104 549 142 576 c 2
 294 681 l 1
 263 746 248 820 248 901 c 0
 247 1083 309 1236 397 1343 c 1
 302 1429 l 2
 274 1455 243 1480 243 1521 c 0
 243 1569 296 1623 344 1623 c 0
 370 1623 400 1608 433 1579 c 2
 553 1473 l 1
 627 1514 718 1540 830 1540 c 0
 939 1540 1025 1510 1089 1462 c 1
 1147 1502 1232 1588 1314 1588 c 0
 1360 1588 1397 1541 1397 1495 c 0
 1397 1447 1357 1420 1319 1394 c 2
 1204 1315 l 1
 1229 1258 1241 1194 1241 1124 c 0
 1241 911 1163 745 1060 630 c 1
 1159 541 l 2
 1197 506 1216 476 1217 451 c 0
 1217 402 1165 347 1117 347 c 0
 1031 347 948 460 898 505 c 1
472 901 m 0
 472 750 547 645 696 645 c 0
 920 645 1016 900 1016 1125 c 0
 1016 1250 949 1348 824 1348 c 0
 583 1348 472 1145 472 901 c 0
EndSplineSet
EndChar

StartChar: paragraph
Encoding: 116 182 193
Width: 1308
Flags: HW
LayerCount: 2
Fore
SplineSet
1011 0 m 0
 954 0 910 36 910 95 c 0
 910 106 911 117 914 127 c 0
 959 390 989 673 1039 931 c 1
 988 925 921 921 870 914 c 1
 851 810 832 707 813 604 c 0
 801 538 801 538 788 466 c 128
 763 330 742 188 712 55 c 0
 702 11 647 -8 589 -8 c 1
 526 -8 465 18 465 81 c 0
 465 91 467 102 471 114 c 1
 499 392 550 638 595 926 c 1
 328 926 96 1040 96 1295 c 0
 96 1616 537 1743 860 1743 c 0
 862 1743 l 0
 1100 1743 1411 1743 1411 1519 c 0
 1411 1426 1376 1324 1358 1218 c 128
 1297 861 1253 464 1161 126 c 256
 1143 59 1093 0 1011 0 c 0
EndSplineSet
EndChar

StartChar: AE
Encoding: 132 198 195
Width: 2304
Flags: HW
LayerCount: 2
Fore
SplineSet
1443 390 m 0
 1443 209 1543 128 1722 128 c 0
 2010 128 2268 253 2425 392 c 128
 2457 420 2482 448 2499 477 c 1
 2568 250 l 1
 2386 56 2092 -96 1728 -96 c 0
 1440 -96 1213 41 1213 329 c 0
 1213 346 1214 365 1216 384 c 1
 1111 210 948 50 754 -29 c 128
 696 -52 642 -64 591 -64 c 0
 296 -64 128 149 128 450 c 1
 128 789 306 1047 482 1231 c 128
 676 1433 954 1618 1336 1618 c 0
 1431 1618 1531 1581 1531 1486 c 0
 1531 1477 1530 1468 1528 1458 c 1
 1604 1589 1711 1696 1909 1696 c 0
 2143 1696 2319 1588 2507 1534 c 1
 2526 1522 2536 1499 2536 1469 c 0
 2536 1414 2504 1331 2451 1331 c 0
 2416 1331 2380 1370 2340 1390 c 128
 2231 1445 2082 1504 1925 1504 c 0
 1673 1504 1536 1203 1536 960 c 1
 1696 974 1849 992 2016 992 c 0
 2070 992 2106 956 2106 906 c 0
 2106 839 2053 800 1984 800 c 0
 1832 800 1657 768 1504 768 c 1
 1467 664 1443 534 1443 390 c 0
416 456 m 0
 416 281 479 160 648 160 c 0
 972 160 1178 650 1248 896 c 2
 1400 1426 l 1
 1123 1426 906 1274 752 1133 c 128
 586 981 416 760 416 456 c 0
EndSplineSet
EndChar

StartChar: quotesinglbase
Encoding: 212 8218 198
Width: 609
Flags: HW
LayerCount: 2
Fore
SplineSet
368 -191 m 0
 321 -191 287 -158 287 -109 c 0
 287 10 347 128 377 237 c 0
 392 291 445 321 514 321 c 0
 592 321 671 282 671 205 c 0
 671 143 631 102 604 60 c 128
 582 26 580 26 558 -8 c 128
 514 -75 470 -191 368 -191 c 0
EndSplineSet
EndChar

StartChar: logicalnot
Encoding: 108 172 200
Width: 1216
Flags: HW
LayerCount: 2
Fore
SplineSet
940 768 m 2
 996 768 1035 741 1035 691 c 2
 1035 685 l 1
 1015 353 l 2
 1011 286 979 220 911 220 c 0
 851 220 822 273 822 336 c 0
 822 341 823 344 823 349 c 2
 836 576 l 1
 293 576 l 2
 228 576 170 604 170 666 c 0
 170 734 237 768 309 768 c 2
 940 768 l 2
EndSplineSet
EndChar

StartChar: minus
Encoding: 227 8722 201
Width: 1216
Flags: HW
LayerCount: 2
Fore
SplineSet
1024 691 m 0
 1024 618 988 576 917 576 c 2
 315 576 l 2
 250 576 192 604 192 666 c 0
 192 734 259 768 331 768 c 2
 929 768 l 2
 985 768 1024 741 1024 691 c 0
EndSplineSet
EndChar

StartChar: hungarumlaut
Encoding: 207 733 202
Width: 1024
Flags: HW
LayerCount: 2
Fore
SplineSet
492 1088 m 0
 457 1088 434 1119 434 1155 c 0
 434 1235 502 1312 536 1374 c 128
 587 1467 632 1544 686 1646 c 0
 707 1685 747 1710 801 1710 c 0
 873 1710 926 1648 926 1574 c 0
 926 1544 916 1509 889 1477 c 0
 787 1356 664 1243 560 1125 c 0
 537 1100 515 1088 492 1088 c 0
160 1088 m 0
 125 1088 102 1119 102 1155 c 0
 102 1254 182 1369 219 1452 c 0
 245 1512 275 1576 304 1646 c 0
 320 1684 352 1710 399 1710 c 0
 477 1710 544 1652 544 1574 c 0
 544 1490 455 1410 412 1354 c 128
 353 1277 287 1199 228 1125 c 0
 211 1105 191 1088 160 1088 c 0
EndSplineSet
EndChar

StartChar: multiply
Encoding: 149 215 203
Width: 1280
Flags: HW
LayerCount: 2
Fore
SplineSet
1024 252 m 0
 1024 204 988 168 940 168 c 0
 897 168 866 188 841 216 c 2
 691 386 l 1
 534 218 l 1
 508 192 479 170 436 170 c 0
 388 170 352 206 352 254 c 0
 352 297 376 330 402 356 c 2
 557 512 l 1
 396 673 l 2
 374 695 359 721 359 759 c 0
 359 812 392 858 444 858 c 0
 469 858 494 847 518 822 c 2
 691 638 l 1
 858 824 l 1
 877 843 900 860 932 860 c 0
 984 860 1017 813 1017 761 c 0
 1017 723 1002 697 980 675 c 2
 827 512 l 1
 974 354 l 1
 1000 328 1024 295 1024 252 c 0
EndSplineSet
EndChar

StartChar: florin
Encoding: 200 402 204
Width: 1314
Flags: HW
LayerCount: 2
Fore
SplineSet
268 960 m 0
 268 1046 329 1062 410 1062 c 0
 458 1062 513 1056 566 1056 c 1
 618 1425 705 1837 1123 1837 c 0
 1231 1837 1377 1795 1377 1686 c 0
 1377 1621 1333 1542 1267 1542 c 0
 1199 1542 1162 1613 1089 1613 c 0
 878 1613 836 1256 801 1056 c 1
 1068 1056 l 2
 1129 1056 1164 1022 1164 960 c 256
 1164 901 1124 864 1068 864 c 2
 771 864 l 1
 689 486 665 -128 214 -128 c 0
 116 -128 10 -78 10 23 c 0
 10 88 54 167 120 167 c 0
 163 167 180 96 228 96 c 0
 428 96 463 411 495 590 c 128
 509 668 523 760 536 864 c 1
 364 864 l 2
 297 864 268 894 268 960 c 0
EndSplineSet
EndChar

StartChar: three
Encoding: 21 51 206
Width: 831
Flags: HW
LayerCount: 2
Fore
SplineSet
349 335 m 0
 349 305 239 309 239 249 c 0
 239 180 263 123 329 123 c 0
 414 123 480 202 480 288 c 0
 480 445 393 489 250 503 c 0
 217 506 190 515 190 545 c 0
 190 591 209 640 256 640 c 0
 349 640 428 706 428 796 c 0
 428 847 394 878 339 878 c 0
 299 878 254 857 254 821 c 0
 254 788 302 780 302 759 c 0
 302 736 220 718 195 718 c 0
 143 718 128 776 128 832 c 0
 128 974 258 1034 401 1034 c 0
 545 1034 704 973 704 832 c 0
 704 701 631 629 530 592 c 1
 669 556 759 448 759 277 c 0
 759 99 579 -16 396 -16 c 0
 189 -16 46 61 46 263 c 0
 46 352 97 396 184 396 c 0
 230 396 349 374 349 335 c 0
EndSplineSet
EndChar

StartChar: ordfeminine
Encoding: 106 170 207
Width: 928
Flags: HW
LayerCount: 2
Fore
SplineSet
701 1084 m 0
 701 1041 702 997 739 997 c 0
 807 997 863 1064 897 1102 c 0
 926 1133 954 1168 983 1207 c 1
 1024 1016 l 1
 963 931 853 799 712 799 c 0
 621 799 581 869 551 943 c 1
 495 879 398 802 281 802 c 0
 147 802 64 910 64 1047 c 0
 64 1308 229 1525 412 1606 c 128
 450 1623 490 1632 530 1632 c 0
 590 1632 580 1567 642 1567 c 128
 650 1567 l 0
 722 1567 756 1566 756 1487 c 0
 756 1346 701 1228 701 1084 c 0
285 1084 m 0
 285 1027 297 969 353 969 c 0
 448 969 484 1130 501 1213 c 2
 554 1467 l 1
 396 1467 285 1240 285 1084 c 0
EndSplineSet
EndChar

StartChar: ordmasculine
Encoding: 120 186 208
Width: 799
Flags: HW
LayerCount: 2
Fore
SplineSet
70 1179 m 0
 70 1425 239 1631 483 1631 c 0
 654 1631 723 1474 723 1301 c 0
 723 1057 598 801 355 801 c 0
 155 801 70 980 70 1179 c 0
258 1143 m 0
 258 1048 289 967 383 967 c 0
 485 967 534 1168 534 1277 c 0
 534 1363 516 1465 433 1465 c 0
 317 1465 258 1265 258 1143 c 0
EndSplineSet
EndChar

StartChar: Lslash
Encoding: 191 321 209
Width: 992
Flags: HW
LayerCount: 2
Fore
SplineSet
19 795 m 0
 -41 795 -75 851 -75 908 c 0
 -75 1008 137 1014 232 1035 c 128
 616 1118 1021 1205 1401 1291 c 0
 1410 1294 1421 1295 1433 1295 c 0
 1489 1295 1514 1258 1514 1199 c 0
 1514 1074 1286 1069 1174 1044 c 128
 804 963 415 875 46 798 c 0
 36 796 27 795 19 795 c 0
-92 129 m 256
 -146 129 -181 204 -181 260 c 0
 -181 343 -95 368 -39 405 c 128
 20 444 89 492 147 534 c 1
 155 602 l 1
 205 1082 367 1485 646 1730 c 128
 728 1802 829 1872 956 1872 c 0
 1119 1872 1184 1736 1184 1568 c 0
 1184 1317 1064 1119 953 960 c 128
 807 750 615 562 394 426 c 1
 392 354 388 311 388 250 c 128
 388 243 388 243 388 239 c 0
 388 202 433 201 474 201 c 0
 477 201 479 201 482 201 c 0
 512 201 552 208 603 223 c 2
 938 319 l 2
 947 321 958 323 969 323 c 0
 1034 323 1066 272 1066 208 c 0
 1066 144 1026 98 970 89 c 1
 798 21 609 -50 377 -50 c 0
 191 -50 131 81 131 266 c 1
 74 224 25 191 -15 166 c 128
 -55 141 -81 129 -92 129 c 256
933 1545 m 0
 933 1602 922 1654 875 1654 c 0
 808 1654 750 1577 710 1525 c 128
 552 1317 441 1016 412 678 c 1
 594 867 785 1085 892 1345 c 128
 920 1413 933 1463 933 1545 c 0
EndSplineSet
EndChar

StartChar: lslash
Encoding: 192 322 210
Width: 575
Flags: HW
LayerCount: 2
Fore
SplineSet
-5 1031 m 0
 -65 1031 -99 1087 -99 1144 c 0
 -99 1246 128 1254 224 1274 c 128
 458 1323 717 1379 947 1430 c 0
 956 1433 967 1434 979 1434 c 0
 1035 1434 1060 1397 1060 1338 c 0
 1060 1237 949 1234 858 1214 c 128
 588 1155 292 1091 22 1034 c 0
 12 1032 3 1031 -5 1031 c 0
352 461 m 256
 352 397 362 244 418 244 c 0
 499 244 573 305 626 340 c 0
 668 368 712 400 758 437 c 1
 840 227 l 1
 715 137 590 50 424 10 c 128
 398 4 374 0 351 0 c 0
 161 0 94 320 94 519 c 0
 94 998 209 1476 424 1748 c 128
 494 1837 587 1920 727 1920 c 0
 842 1920 871 1810 871 1694 c 0
 871 1341 704 1047 556 821 c 128
 496 729 433 644 370 565 c 0
 355 546 352 498 352 461 c 256
683 1593 m 0
 683 1620 673 1641 652 1641 c 0
 426 1641 342 975 342 740 c 1
 464 955 587 1198 658 1460 c 128
 671 1508 683 1552 683 1593 c 0
EndSplineSet
EndChar

StartChar: ogonek
Encoding: 205 731 213
Width: 537
Flags: HW
LayerCount: 2
Fore
SplineSet
384 -288 m 0
 448 -288 476 -218 531 -218 c 0
 559 -218 573 -256 573 -286 c 0
 573 -315 563 -341 544 -352 c 0
 477 -393 390 -448 288 -448 c 0
 187 -448 128 -391 128 -292 c 1
 128 -197 196 -105 224 -32 c 0
 243 17 288 32 352 32 c 0
 390 32 414 19 414 -15 c 0
 414 -78 334 -156 334 -236 c 0
 334 -269 349 -288 384 -288 c 0
EndSplineSet
EndChar

StartChar: onesuperior
Encoding: 119 185 215
Width: 704
Flags: HW
LayerCount: 2
Fore
SplineSet
242 800 m 0
 242 813 245 824 247 837 c 1
 246 837 l 1
 285 1026 325 1223 365 1406 c 1
 153 1350 l 2
 152 1350 152 1350 152 1350 c 128
 146 1349 141 1347 136 1347 c 0
 90 1347 55 1394 55 1440 c 0
 55 1515 157 1522 230 1540 c 128
 288 1554 392 1600 486 1600 c 0
 552 1600 608 1563 608 1497 c 0
 608 1395 575 1299 552 1175 c 128
 532 1068 516 704 361 704 c 0
 292 704 242 731 242 800 c 0
EndSplineSet
EndChar

StartChar: onequarter
Encoding: 122 188 216
Width: 1759
Flags: HW
LayerCount: 2
Fore
SplineSet
488 231 m 0
 437 231 400 269 400 323 c 0
 400 394 437 428 468 484 c 128
 637 788 811 1113 992 1408 c 0
 1014 1444 1067 1472 1123 1472 c 0
 1169 1472 1202 1450 1202 1402 c 0
 1202 1359 1184 1322 1164 1288 c 0
 974 965 792 620 590 294 c 0
 569 260 535 231 488 231 c 0
242 800 m 0
 242 813 245 824 247 837 c 1
 246 837 l 1
 285 1026 325 1223 365 1406 c 1
 153 1350 l 2
 152 1350 152 1350 152 1350 c 128
 146 1349 141 1347 136 1347 c 0
 90 1347 55 1394 55 1440 c 0
 55 1515 157 1522 230 1540 c 128
 288 1554 392 1600 486 1600 c 0
 552 1600 608 1563 608 1497 c 0
 608 1395 575 1299 552 1175 c 128
 532 1068 516 704 361 704 c 0
 292 704 242 731 242 800 c 0
1568 -30 m 0
 1568 -38 1564 -39 1554 -39 c 0
 1502 -39 1445 -45 1394 -45 c 0
 1314 -45 1273 -23 1273 58 c 0
 1273 118 1290 182 1305 237 c 1
 1164 237 1081 165 952 165 c 0
 929 165 921 182 921 205 c 0
 921 249 958 289 974 325 c 0
 1049 493 1084 672 1131 875 c 0
 1142 922 1241 928 1303 928 c 0
 1335 928 1417 926 1417 899 c 0
 1417 685 1301 514 1222 344 c 1
 1262 343 1288 342 1324 342 c 2
 1336 342 l 1
 1374 457 1389 642 1541 642 c 0
 1588 642 1615 633 1615 593 c 0
 1615 512 1568 431 1544 362 c 1
 1593 371 1642 383 1690 383 c 0
 1708 383 1712 366 1712 347 c 0
 1712 297 1700 229 1657 229 c 0
 1606 229 1555 232 1503 234 c 1
 1492 193 1486 158 1483 127 c 1
 1483 110 l 2
 1483 52 1568 20 1568 -30 c 0
EndSplineSet
EndChar

StartChar: onehalf
Encoding: 123 189 217
Width: 1729
Flags: HW
LayerCount: 2
Fore
SplineSet
437 231 m 0
 386 231 349 269 349 323 c 0
 349 394 385 428 416 484 c 128
 585 788 760 1113 941 1408 c 0
 963 1444 1016 1472 1072 1472 c 0
 1118 1472 1151 1450 1151 1402 c 0
 1151 1359 1133 1322 1113 1288 c 0
 923 965 741 620 539 294 c 0
 518 260 484 231 437 231 c 0
242 866 m 0
 242 879 245 890 247 903 c 1
 246 903 l 1
 285 1092 325 1289 365 1472 c 1
 153 1416 l 2
 152 1416 152 1416 152 1416 c 128
 146 1415 141 1413 136 1413 c 0
 90 1413 55 1460 55 1506 c 0
 55 1581 157 1588 230 1606 c 128
 288 1620 392 1666 486 1666 c 0
 552 1666 608 1629 608 1563 c 0
 608 1461 575 1365 552 1241 c 128
 532 1134 516 770 361 770 c 0
 292 770 242 797 242 866 c 0
1743 246 m 0
 1743 124 1691 1 1561 1 c 0
 1469 1 1387 54 1324 94 c 1
 1257 46 1175 1 1072 1 c 0
 954 1 833 67 833 181 c 0
 833 289 905 368 1016 368 c 0
 1117 368 1189 343 1257 312 c 1
 1308 378 1366 476 1366 583 c 0
 1366 682 1335 756 1241 756 c 0
 1178 756 1119 722 1119 660 c 0
 1119 619 1208 617 1208 587 c 0
 1208 541 1025 519 971 519 c 1
 965 528 958 529 946 529 c 1
 906 560 874 600 874 663 c 0
 874 831 1084 927 1260 927 c 0
 1469 927 1630 812 1630 598 c 0
 1630 444 1531 304 1453 213 c 1
 1493 197 1537 188 1592 188 c 0
 1635 188 1656 273 1691 273 c 0
 1722 273 1743 273 1743 246 c 0
1003 205 m 0
 1003 183 1036 166 1059 166 c 0
 1084 166 1115 179 1150 205 c 1
 1128 216 1103 230 1075 230 c 0
 1043 230 1003 227 1003 205 c 0
EndSplineSet
EndChar

StartChar: threequarters
Encoding: 124 190 218
Width: 1793
Flags: HW
LayerCount: 2
Fore
SplineSet
487 231 m 0
 436 231 399 269 399 323 c 0
 399 394 435 428 466 484 c 128
 635 788 810 1113 991 1408 c 0
 1013 1444 1066 1472 1122 1472 c 0
 1168 1472 1201 1450 1201 1402 c 0
 1201 1359 1183 1322 1163 1288 c 0
 973 965 791 620 589 294 c 0
 568 260 534 231 487 231 c 0
278 1132 m 0
 278 1108 190 1111 190 1063 c 0
 190 1013 216 983 262 983 c 0
 326 983 383 1030 383 1094 c 0
 383 1221 314 1255 199 1267 c 0
 173 1269 151 1277 151 1300 c 0
 151 1338 166 1377 204 1377 c 0
 272 1377 332 1426 332 1492 c 0
 332 1534 312 1568 270 1568 c 0
 238 1568 202 1552 202 1522 c 0
 202 1499 240 1490 240 1472 c 0
 240 1455 174 1439 155 1439 c 0
 112 1439 101 1485 101 1531 c 0
 101 1650 220 1693 340 1693 c 0
 465 1693 593 1634 593 1511 c 0
 593 1409 510 1362 423 1338 c 1
 546 1312 637 1230 637 1085 c 256
 637 937 470 850 316 850 c 0
 150 850 35 912 35 1074 c 0
 35 1145 76 1181 146 1181 c 0
 183 1181 278 1164 278 1132 c 0
1584 -28 m 0
 1584 -37 1580 -38 1569 -38 c 0
 1513 -38 1451 -45 1396 -45 c 0
 1307 -45 1265 -18 1265 71 c 0
 1265 140 1284 210 1300 273 c 1
 1146 273 1058 192 919 192 c 0
 895 192 885 212 885 237 c 0
 885 287 918 335 943 372 c 1
 1017 565 1061 764 1112 992 c 0
 1124 1044 1229 1052 1298 1052 c 0
 1334 1052 1421 1050 1421 1019 c 0
 1421 779 1296 587 1210 394 c 1
 1253 392 1282 391 1321 391 c 2
 1334 391 l 1
 1359 472 1389 555 1411 633 c 0
 1427 691 1485 730 1555 730 c 0
 1606 730 1635 718 1635 674 c 0
 1635 583 1584 493 1558 414 c 1
 1611 423 1664 437 1716 437 c 0
 1735 437 1740 418 1740 397 c 0
 1740 341 1727 264 1680 264 c 0
 1625 264 1570 267 1514 269 c 1
 1505 231 1495 190 1492 149 c 1
 1492 130 l 2
 1492 65 1584 28 1584 -28 c 0
EndSplineSet
EndChar

StartChar: threesuperior
Encoding: 113 179 219
Width: 768
Flags: HW
LayerCount: 2
Fore
SplineSet
309 1006 m 0
 309 982 221 985 221 937 c 0
 221 887 247 857 293 857 c 0
 357 857 414 904 414 968 c 0
 414 1095 345 1129 230 1141 c 0
 204 1143 182 1151 182 1174 c 0
 182 1212 197 1251 235 1251 c 0
 303 1251 363 1300 363 1366 c 0
 363 1408 343 1442 301 1442 c 0
 269 1442 233 1426 233 1396 c 0
 233 1373 271 1364 271 1346 c 0
 271 1329 205 1313 186 1313 c 0
 143 1313 132 1359 132 1405 c 0
 132 1524 251 1567 371 1567 c 0
 496 1567 624 1508 624 1385 c 0
 624 1283 541 1236 454 1212 c 1
 577 1186 668 1104 668 959 c 256
 668 811 501 724 347 724 c 0
 181 724 66 786 66 948 c 0
 66 1019 107 1055 177 1055 c 0
 214 1055 309 1038 309 1006 c 0
EndSplineSet
EndChar

StartChar: questiondown
Encoding: 125 191 220
Width: 1292
Flags: HW
LayerCount: 2
Fore
SplineSet
772 0 m 0
 564 0 394 126 394 338 c 0
 394 668 604 754 770 916 c 128
 800 945 828 977 844 1018 c 0
 863 1066 891 1116 947 1116 c 0
 993 1116 1035 1098 1035 1052 c 0
 1035 729 743 689 655 458 c 128
 644 428 638 394 638 357 c 0
 638 256 673 192 771 192 c 0
 864 192 939 258 981 312 c 0
 996 332 1018 347 1048 347 c 0
 1107 347 1146 292 1146 232 c 0
 1146 89 913 0 772 0 c 0
978 1249 m 0
 870 1249 809 1305 809 1411 c 0
 809 1526 878 1602 997 1602 c 0
 1103 1602 1161 1547 1161 1440 c 0
 1161 1325 1095 1249 978 1249 c 0
EndSplineSet
EndChar

StartChar: Eth
Encoding: 142 208 221
Width: 1272
Flags: HW
LayerCount: 2
Fore
SplineSet
32 890 m 1
 32 958 66 992 138 992 c 2
 219 992 l 1
 284 1234 374 1485 528 1633 c 128
 604 1706 677 1728 811 1728 c 0
 1214 1728 1408 1430 1408 1028 c 0
 1408 521 1141 126 771 -14 c 128
 691 -44 605 -60 512 -60 c 0
 376 -60 255 -19 162 24 c 0
 130 39 96 49 96 93 c 0
 96 348 130 583 174 800 c 1
 119 800 l 2
 61 800 32 834 32 890 c 1
384 258 m 0
 384 169 391 128 480 128 c 1
 878 128 1089 534 1160 861 c 128
 1176 933 1184 1002 1184 1069 c 0
 1184 1300 1063 1504 839 1504 c 0
 624 1504 541 1169 494 992 c 1
 746 992 l 2
 793 992 833 973 833 926 c 256
 833 841 782 800 694 800 c 2
 450 800 l 1
 417 631 384 445 384 258 c 0
EndSplineSet
EndChar

StartChar: two
Encoding: 20 50 222
Width: 927
Flags: HW
LayerCount: 2
Fore
SplineSet
907 233 m 0
 907 127 870 1 753 1 c 0
 654 1 579 61 518 105 c 1
 448 52 365 1 257 1 c 0
 126 1 10 91 10 221 c 0
 10 336 86 416 204 416 c 0
 311 416 388 380 455 338 c 1
 523 420 601 534 601 677 c 0
 601 804 568 914 448 914 c 0
 360 914 288 855 288 766 c 0
 288 715 410 718 410 680 c 0
 410 628 233 603 177 603 c 1
 168 612 162 613 148 613 c 1
 103 650 68 697 68 768 c 0
 68 956 275 1077 470 1077 c 0
 692 1077 853 944 853 716 c 0
 853 519 734 338 637 221 c 1
 680 199 726 183 788 183 c 0
 830 183 844 283 876 283 c 0
 900 283 907 262 907 233 c 0
179 238 m 0
 179 210 215 191 244 191 c 0
 272 191 306 205 345 233 c 1
 321 248 293 266 261 266 c 0
 224 266 179 263 179 238 c 0
EndSplineSet
EndChar

StartChar: seven
Encoding: 25 55 223
Width: 608
Flags: HW
LayerCount: 2
Fore
SplineSet
821 1046 m 0
 871 1046 887 1007 887 955 c 0
 887 867 815 839 760 804 c 1
 599 585 528 321 440 26 c 0
 422 -38 351 -56 271 -56 c 0
 208 -56 147 -18 147 49 c 0
 147 53 147 52 147 56 c 128
 147 191 232 336 288 439 c 128
 362 575 452 705 544 832 c 1
 465 852 415 892 332 892 c 0
 204 892 197 823 140 762 c 128
 126 747 113 739 102 739 c 0
 78 739 73 765 73 792 c 0
 73 961 163 1112 324 1112 c 0
 451 1112 523 1036 664 1036 c 128
 680 1036 681 1036 695 1036 c 0
 747 1036 784 1046 821 1046 c 0
EndSplineSet
EndChar

StartChar: Thorn
Encoding: 156 222 224
Width: 1216
Flags: HW
LayerCount: 2
Fore
SplineSet
993 1380 m 1
 1282 1341 1526 1165 1526 847 c 0
 1526 544 1189 427 907 393 c 1
 858 28 829 -355 430 -355 c 0
 139 -355 94 168 94 457 c 0
 94 952 315 1324 746 1383 c 1
 751 1424 756 1458 756 1489 c 0
 762 1671 807 1954 992 1954 c 0
 1046 1954 1080 1926 1080 1871 c 0
 1080 1862 1079 1862 1079 1855 c 1
 1008 1515 l 1
 993 1380 l 1
723 1143 m 1
 465 1081 362 803 362 483 c 0
 362 447 362 446 362 388 c 128
 362 374 362 357 362 336 c 0
 362 184 367 -121 452 -121 c 0
 616 -121 659 242 659 401 c 1
 591 430 520 447 520 535 c 0
 520 578 520 632 563 632 c 0
 594 632 631 608 672 608 c 1
 672 780 706 970 723 1143 c 1
913 628 m 1
 1058 643 1291 680 1291 824 c 0
 1291 1019 1143 1116 968 1144 c 1
 913 628 l 1
EndSplineSet
EndChar

StartChar: five
Encoding: 23 53 225
Width: 831
Flags: HW
LayerCount: 2
Fore
SplineSet
712 896 m 130
 712 826 550 792 478 777 c 1
 405 784 356 807 287 807 c 0
 277 807 268 806 259 805 c 1
 268 751 275 694 287 639 c 1
 327 643 364 645 399 645 c 0
 656 645 799 549 799 297 c 0
 799 103 597 -16 396 -16 c 0
 189 -16 46 61 46 263 c 0
 46 352 97 396 184 396 c 0
 230 396 349 374 349 335 c 0
 349 305 239 309 239 249 c 0
 239 180 263 123 329 123 c 0
 431 123 520 205 520 308 c 0
 520 452 423 477 290 493 c 0
 192 505 172 518 166 633 c 128
 163 690 158 779 158 840 c 0
 158 918 164 1024 224 1024 c 128
 240 1024 240 1024 249 1024 c 0
 337 1024 402 989 492 989 c 0
 541 989 615 1003 630 1028 c 128
 631 1030 635 1030 642 1030 c 0
 699 1030 712 964 712 901 c 2
 712 896 l 130
EndSplineSet
EndChar

StartChar: four
Encoding: 22 52 226
Width: 927
Flags: HW
LayerCount: 2
Fore
SplineSet
785 -28 m 0
 785 -37 781 -38 770 -38 c 0
 714 -38 652 -45 597 -45 c 0
 508 -45 466 -18 466 71 c 0
 466 140 485 210 501 273 c 1
 347 273 259 192 120 192 c 0
 96 192 86 212 86 237 c 0
 86 287 119 335 144 372 c 1
 218 565 262 764 313 992 c 0
 325 1044 430 1052 499 1052 c 0
 535 1052 622 1050 622 1019 c 0
 622 779 497 587 411 394 c 1
 454 392 483 391 522 391 c 2
 535 391 l 1
 560 472 590 555 612 633 c 0
 628 691 686 730 756 730 c 0
 807 730 836 718 836 674 c 0
 836 583 785 493 759 414 c 1
 812 423 865 437 917 437 c 0
 936 437 941 418 941 397 c 0
 941 341 928 264 881 264 c 0
 826 264 771 267 715 269 c 1
 706 231 696 190 693 149 c 1
 693 130 l 2
 693 65 785 28 785 -28 c 0
EndSplineSet
EndChar

StartChar: endash
Encoding: 208 8211 227
Width: 991
Flags: HW
LayerCount: 2
Fore
SplineSet
159 384 m 2
 99 384 65 430 65 492 c 0
 65 578 103 608 187 608 c 2
 807 608 l 2
 878 608 928 587 928 518 c 0
 928 434 888 384 803 384 c 2
 159 384 l 2
EndSplineSet
EndChar

StartChar: emdash
Encoding: 209 8212 228
Width: 1120
Flags: HW
LayerCount: 2
Fore
SplineSet
157 384 m 2
 97 384 63 430 63 492 c 0
 63 578 101 608 185 608 c 2
 935 608 l 2
 1006 608 1056 587 1056 518 c 0
 1056 434 1016 384 931 384 c 2
 157 384 l 2
EndSplineSet
EndChar

StartChar: twosuperior
Encoding: 112 178 229
Width: 992
Flags: HW
LayerCount: 2
Fore
SplineSet
947 854 m 0
 947 732 895 609 765 609 c 0
 673 609 591 662 528 702 c 1
 461 654 379 609 276 609 c 0
 158 609 37 675 37 789 c 0
 37 897 109 976 220 976 c 0
 321 976 393 951 461 920 c 1
 512 986 570 1084 570 1191 c 0
 570 1290 539 1364 445 1364 c 0
 382 1364 323 1330 323 1268 c 0
 323 1227 412 1225 412 1195 c 0
 412 1149 229 1127 175 1127 c 1
 169 1136 162 1137 150 1137 c 1
 110 1168 78 1208 78 1271 c 0
 78 1439 288 1535 464 1535 c 0
 673 1535 834 1420 834 1206 c 0
 834 1052 735 912 657 821 c 1
 697 805 741 796 796 796 c 0
 839 796 860 881 895 881 c 0
 926 881 947 881 947 854 c 0
207 813 m 0
 207 791 240 774 263 774 c 0
 288 774 319 787 354 813 c 1
 332 824 307 838 279 838 c 0
 247 838 207 835 207 813 c 0
EndSplineSet
EndChar

StartChar: o_x
Encoding: 231 -1 231
Width: 1765
Flags: W
HStem: -30 223<1430 1638.85> 0 192<325.966 528.742> 407 195<782.5 921.585> 768 192<385.843 636.5> 876 20G<1130 1169.5 1641.5 1690>
VStem: 67 194<261.07 622.677>
DStem2: 1020 274 1103 36 0.678414 0.73468<-172.048 128.602 446.591 867.366>
LayerCount: 2
Fore
SplineSet
545 960 m 0x74
 728 960 826 808 826 618 c 0
 826 607 831 602 841 602 c 0
 961 602 1038 827 1104 884 c 0
 1113 892 1124 896 1136 896 c 0
 1203 896 1212 828 1242 765 c 0
 1264 718 1291 664 1322 603 c 1
 1394 696 1476 789 1572 864 c 0
 1596 883 1624 895 1659 895 c 0
 1721 895 1753 842 1753 780 c 0
 1753 732 1730 694 1700 672 c 0
 1593 593 1503 492 1420 386 c 1
 1451 338 1518 193 1585 193 c 0
 1729 193 1889 369 1954 454 c 1
 1954 422 1955 398 1955 368 c 0
 1955 339 1956 314 1956 284 c 1
 1859 165 1734 40 1572 -14 c 0
 1540 -25 1508 -30 1476 -30 c 0xac
 1384 -30 1318 146 1278 215 c 1
 1223 158 1161 89 1103 36 c 0
 1086 20 1071 9 1059 3 c 1
 1050 -16 1035 -26 1009 -26 c 0
 945 -26 876 31 876 95 c 0
 876 168 975 228 1020 274 c 0
 1062 317 1116 376 1141 430 c 1
 1113 479 1086 530 1061 584 c 1
 1016 512 896 407 788 407 c 0
 777 407 770 409 765 412 c 5
 726 237 646 0 397 0 c 0
 166 0 67 206 67 437 c 0
 67 739 243 960 545 960 c 0x74
261 446 m 0
 261 313 304 192 436 192 c 0
 545 192 611 352 611 461 c 1
 545 498 449 549 449 641 c 0
 449 686 478 722 500 746 c 0
 506 753 509 758 509 762 c 256
 509 766 504 768 494 768 c 0x74
 354 768 261 588 261 446 c 0
EndSplineSet
Ligature2: "'liga' Ligatures lookup 0 subtable" o x
EndChar

StartChar: t_t
Encoding: 232 -1 232
Width: 1443
Flags: HW
HStem: 0 223<384.407 575.903 1086.11 1327.71> 764 201<589.788 1462.77> 767 179<19.275 785.894> 1568 224<486.9 591.171 1183.5 1291.17>
VStem: 116 227<260.358 709> 596 160<1245.76 1565.82> 816 230<538.58 689.344> 1296 160<1263.01 1565.82>
LayerCount: 2
Back
SplineSet
1126 420 m 4xde80
 1126 304.475 1160.51 224 1273 224 c 4
 1440.98 224 1615 386.5 1700 480 c 5
 1700 224 l 5
 1583.33 135.71 1452.95 53.6547 1300 14 c 4
 1264 4.66667 1233.67 4.76837e-07 1209 0 c 4
 997.223 0 936.714 242.291 912 440 c 5
 827.081 271.652 711.238 106.631 554 26.5 c 4
 519.333 8.83333 491 9.53674e-07 469 0 c 4
 200.636 0 160 379.837 160 665 c 4
 160 752.546 168.114 846.96 179 928 c 5
 158.753 930.728 135.755 931.145 111.886 931.145 c 4
 101.401 931.145 90.7486 931.064 80.0874 931.064 c 4
 -7.66744 931.064 -96 936.507 -96 1037 c 4
 -96 1089.66 -57.0749 1093 1 1093 c 4xbe80
 66.7895 1093 130.579 1088 207 1088 c 5
 255.277 1329.38 336.891 1591.94 481 1732.5 c 4
 521.667 1772.17 564.334 1792 609 1792 c 4
 743.325 1792 800 1637.33 800 1499 c 4
 800 1318.24 698.068 1173.86 623 1055 c 5
 717.195 1045.13 840.3 1048.3 939 1046 c 5xdd80
 991.474 1311.05 1079.37 1633.03 1267 1763.5 c 4
 1294.34 1782.5 1321.67 1792 1349 1792 c 4
 1483.32 1792 1540 1637.33 1540 1499 c 4
 1540 1318.24 1438.07 1173.86 1363 1055 c 5
 1417.25 1049.58 1581.45 1062.69 1601 1022.5 c 4
 1607 1010.16 1610 994.33 1610 975 c 4
 1610 934.875 1583.13 896 1546 896 c 6
 1252 896 l 5
 1216.68 847.287 1174.92 792.57 1139 748 c 5
 1132.06 640.376 1126 532.822 1126 420 c 4xde80
387 470 m 4
 387 356.493 404.703 223 516 223 c 4
 520 223 520 223 524 223 c 4
 590.098 223 654.809 310.536 697 361 c 4
 769.71 447.967 843.432 561.554 900 671 c 5
 900 748.502 906.332 823.965 915 896 c 5
 522 896 l 5xde80
 440.807 776.356 387 685.713 387 470 c 4
1380 1490 m 4
 1380 1532.15 1370.33 1568 1327 1568 c 4
 1210.42 1568 1148.6 1147.84 1128 1050 c 5x9d80
 1189 1053 l 5
 1251.9 1157.17 1320.14 1282.41 1362 1404.5 c 4
 1374 1439.5 1380 1468 1380 1490 c 4
407 1074 m 6
 447 1074 l 6
 451 1074 455 1073.67 459 1073 c 5
 517.947 1173.21 583.32 1291.31 623 1408 c 4
 634.333 1441.34 640 1468.67 640 1490 c 4
 640 1532.15 630.329 1568 587 1568 c 4
 476.526 1568 418.416 1166.87 398 1075 c 5
 401.333 1074.33 404.333 1074 407 1074 c 6
EndSplineSet
Fore
SplineSet
820 764 m 1
 704 764 590 765 491 766 c 1
 411 629 343 515 343 430 c 0
 343 335 361 223 472 223 c 0
 644 223 759 505 816 631 c 1
 816 675 818 719 820 764 c 1
1140 762 m 1
 1105 714 1072 672 1046 638 c 1
 1042 420 l 1
 1042 304 1077 224 1189 224 c 0
 1357 224 1531 386 1616 480 c 1
 1616 224 l 1
 1491 130 1321 0 1125 0 c 0
 927 0 871 193 848 350 c 1
 773 224 630 0 425 0 c 0
 157 0 116 380 116 665 c 0
 116 704 117 744 119 784 c 1
 25 802 -65 834 -65 884 c 0
 -65 916 -27 946 40 946 c 0
 73 946 105 944 137 941 c 1
 163 1088 l 1
 209 1316 316 1792 565 1792 c 0
 699 1792 756 1637 756 1499 c 0
 756 1297 679 1110 592 945 c 1
 673 950 755 954 837 958 c 1
 881 1295 993 1627 1183 1764 c 0
 1210 1783 1238 1792 1265 1792 c 0
 1399 1792 1456 1637 1456 1499 c 0
 1456 1315 1371 1123 1274 961 c 1
 1369 958 1463 954 1463 946 c 1
 1571 924 1467 721 1438 751 c 1
 1360 753 1239 759 1140 762 c 1
1118 965 m 1
 1201 1121 1296 1316 1296 1490 c 0
 1296 1532 1286 1568 1243 1568 c 0
 1133 1568 1077 1197 1054 965 c 1
 1065 965 1075 965 1086 965 c 0
 1093 965 1104 965 1118 965 c 1
428 937 m 1
 508 1107 596 1312 596 1490 c 0
 596 1532 586 1568 543 1568 c 0
 438 1568 382 1173 358 934 c 1
 381 935 404 936 428 937 c 1
EndSplineSet
LCarets2: 1 0 
Ligature2: "'liga' Ligatures lookup 0 subtable" t t
EndChar

StartChar: i_t_t
Encoding: 233 -1 233
Width: 2106
Flags: HW
HStem: 0 224<1007.75 1162 1747.77 1969.68> 0 192<253.662 497.889> 896 150<1206.44 1494 1942 2182.33> 911 172<606.382 767.395> 940 20G<368.313 431.89> 1129 319<300.466 551.923> 1568 224<1107.88 1215.5 1846.06 1954.23>
VStem: 96 256<193.635 531.252> 243 366<1185.5 1392.19> 749 217<381.475 730.725> 1219 180<1333.44 1565.77> 1479 226<420 671> 1518 189<1050 1235> 1959 160<1337.76 1565.87>
LayerCount: 2
Fore
SplineSet
996 1074 m 2x0664
 1036 1074 l 2
 1040 1074 1044 1074 1048 1073 c 1
 1103 1173 1165 1291 1202 1408 c 0
 1213 1441 1219 1469 1219 1490 c 0
 1219 1532 1209 1568 1166 1568 c 0
 1061 1568 1006 1167 987 1075 c 1
 990 1074 993 1074 996 1074 c 2x0664
1959 1490 m 0
 1959 1532 1949 1568 1906 1568 c 0
 1789 1568 1728 1148 1707 1050 c 1x066c
 1768 1053 l 1
 1831 1157 1899 1282 1941 1404 c 0
 1953 1439 1959 1468 1959 1490 c 0
966 470 m 0
 966 356 984 223 1095 223 c 0
 1099 223 1099 223 1103 223 c 0
 1169 223 1234 311 1276 361 c 0
 1349 448 1422 562 1479 671 c 1
 1479 749 1485 824 1494 896 c 1
 1111 896 l 1x2674
 1024 776 966 686 966 470 c 0
1705 420 m 0
 1705 304 1740 224 1852 224 c 0
 2020 224 2194 386 2279 480 c 1
 2279 224 l 1
 2162 136 2032 54 1879 14 c 0
 1843 5 1813 0 1788 0 c 0
 1576 0 1516 242 1491 440 c 1
 1406 272 1290 106 1133 26 c 0
 1098 8 1070 0 1048 0 c 0xa674
 916 0 841 98 799 231 c 1
 681 129 489 0 282 0 c 0
 151 0 96 71 96 201 c 0
 96 438 178 661 226 863 c 0
 242 928 329 960 408 960 c 0x4f74
 456 960 480 945 480 903 c 0
 480 695 352 514 352 290 c 0
 352 240 357 192 403 192 c 0
 540 192 678 317 763 407 c 1
 752 493 749 583 749 665 c 0
 749 746 757 833 768 908 c 1
 755 911 740 911 725 911 c 0
 718 911 712 911 705 911 c 0
 649 911 593 917 593 1027 c 0
 593 1080 632 1083 690 1083 c 0x5774
 724 1083 757 1078 796 1078 c 1
 844 1323 926 1589 1070 1732 c 1
 1107 1772 1147 1792 1188 1792 c 0
 1336 1792 1399 1653 1399 1529 c 0
 1399 1336 1286 1182 1202 1055 c 1
 1296 1045 1419 1048 1518 1046 c 1x276c
 1570 1311 1658 1634 1846 1764 c 0
 1873 1783 1901 1792 1928 1792 c 0
 2062 1792 2119 1637 2119 1499 c 0
 2119 1318 2017 1174 1942 1055 c 1
 1996 1050 2160 1062 2180 1022 c 0
 2186 1010 2189 994 2189 975 c 0
 2189 935 2162 896 2125 896 c 2
 1831 896 l 1
 1796 847 1754 793 1718 748 c 1
 1711 640 1705 533 1705 420 c 0
415 1129 m 0
 308 1129 243 1180 243 1281 c 0
 243 1385 329 1448 439 1448 c 0
 537 1448 609 1406 609 1308 c 0x06e4
 609 1195 531 1129 415 1129 c 0
EndSplineSet
Ligature2: "'liga' Ligatures lookup 0 subtable" i t t
EndChar

StartChar: i_t
Encoding: 234 -1 234
Width: 787
Flags: W
HStem: 0 224<960.018 1220.75> 0 192<208.5 478.843> 927 146<564.638 712 1156.52 1487.6> 940 20G<366.5 430> 1119 319<295.072 537.581> 1568 224<1060.6 1168.17>
VStem: 88 256<193.631 521.844> 231 356<1169.04 1375.98> 693 226<374.056 768.939> 1173 160<1338.31 1565.82>
LayerCount: 2
Fore
SplineSet
931 1080 m 1x2cc0
 952 1077 971 1076 992 1073 c 1
 1051 1173 1116 1291 1156 1408 c 0
 1167 1441 1173 1469 1173 1490 c 0
 1173 1532 1163 1568 1120 1568 c 0
 1013 1568 953 1178 931 1080 c 1x2cc0
919 420 m 0
 919 304 954 224 1066 224 c 0
 1234 224 1408 386 1493 480 c 1
 1493 224 l 1
 1409 120 1193 0 1002 0 c 0xaec0
 869 0 792 94 748 223 c 1
 640 124 464 0 274 0 c 1
 143 0 88 71 88 201 c 0
 88 438 174 661 224 863 c 0
 240 928 327 960 406 960 c 0
 454 960 478 940 478 883 c 0
 478 806 344 507 344 290 c 0
 344 240 349 192 395 192 c 0x5ec0
 516 192 631 328 709 399 c 1
 697 488 693 581 693 665 c 0
 693 753 701 847 712 928 c 1
 678 928 659 928 621 928 c 1
 575 935 557 963 557 1027 c 0
 557 1070 592 1079 632 1079 c 0
 660 1079 690 1075 714 1075 c 0
 724 1075 733 1076 740 1078 c 1
 788 1323 870 1589 1014 1732 c 0
 1055 1772 1097 1792 1142 1792 c 0
 1276 1792 1333 1637 1333 1499 c 0
 1333 1326 1231 1189 1156 1075 c 1
 1167 1074 1182 1073 1201 1073 c 0
 1230 1073 1268 1074 1305 1074 c 0
 1387 1074 1471 1070 1484 1043 c 1
 1490 1025 1493 1002 1493 975 c 0
 1493 951 1466 927 1429 927 c 2
 1045 927 l 1
 1010 868 968 802 932 748 c 1
 925 640 919 533 919 420 c 0
423 1119 m 0
 303 1119 231 1170 231 1271 c 0
 231 1375 326 1438 447 1438 c 0
 528 1438 587 1396 587 1298 c 0x0dc0
 587 1185 521 1119 423 1119 c 0
EndSplineSet
Ligature2: "'liga' Ligatures lookup 0 subtable" i t
EndChar

StartChar: a.space
Encoding: 235 -1 235
Width: 1414
Flags: W
HStem: 0 224<803.238 967.021> 0 192<237.5 477.896> 768 190<503.516 629.204>
VStem: 64 256<201.447 524.198>
LayerCount: 2
Back
SplineSet
800 324 m 4x70
 800 274.762 801.664 224 845 224 c 4
 922.861 224 987.128 301.333 1027 345 c 4
 1059.01 383.361 1091.34 426.694 1124 475 c 5
 1174 245 l 5
 1103.73 147.238 976.065 0 813 0 c 4xb0
 706.816 0 661.327 74.0993 627 161 c 5
 562.683 85.9635 450.368 0 315 0 c 4
 160.036 0 64 122.703 64 281 c 4
 64 582.881 256.106 834.724 467.5 928.5 c 4
 511.833 948.167 557 958 603 958 c 4
 676.22 958 662.581 882 747 882 c 4
 761.561 882 777.44 883 792 883 c 4
 849.214 883 864 849.461 864 790 c 4
 864 627.255 800 489.945 800 324 c 4x70
320 324 m 4
 320 259.53 334.311 192 398 192 c 4x70
 505.651 192 550.515 380.091 570 474 c 6
 631 768 l 5
 443.713 768 320 508.123 320 324 c 4
EndSplineSet
Fore
SplineSet
800 324 m 0x70
 800 275 802 224 845 224 c 0
 955 224 1046 335 1102 399 c 0
 1117 416 1131 424 1143 424 c 0
 1184 424 1208 342 1208 287 c 0
 1208 272 1206 258 1202 250 c 1
 1126 150 988 0 813 0 c 0xb0
 707 0 661 74 627 161 c 1
 563 86 450 0 315 0 c 0
 160 0 64 123 64 281 c 0
 64 583 257 834 468 928 c 0
 512 948 557 958 603 958 c 0
 676 958 663 882 747 882 c 0
 762 882 777 883 792 883 c 0
 849 883 864 849 864 790 c 0
 864 627 800 490 800 324 c 0x70
320 324 m 0
 320 260 334 192 398 192 c 0x70
 506 192 551 380 570 474 c 2
 631 768 l 1
 444 768 320 508 320 324 c 0
EndSplineSet
LCarets2: 1 0 
Ligature2: "'liga' Ligatures lookup 0 subtable" a space
EndChar

StartChar: h.space
Encoding: 236 -1 236
Width: 1515
Flags: W
HStem: 0 196<715.5 950.909> 958 20G<865 910.5> 1729 191<581.6 734>
VStem: 95 168<18.7686 133.812> 576 231<198.674 442.942> 652 193<1419.68 1726.52>
LayerCount: 2
Fore
SplineSet
665 1920 m 0xf8
 803 1920 845 1836 845 1699 c 0xf4
 845 1414 701 1163 600 958 c 0
 546 849 484 734 431 636 c 1
 451 622 l 1
 542 734 652 865 778 942 c 0
 814 966 849 978 881 978 c 0
 940 978 968 931 968 868 c 0
 968 666 807 490 807 281 c 0
 807 239 815 196 861 196 c 0
 926 196 1033 294 1093 343 c 0
 1138 379 1177 394 1208 394 c 0
 1249 394 1273 367 1273 330 c 0
 1273 296 1252 253 1203 212 c 0
 1097 134 949 0 771 0 c 0
 660 0 576 90 576 206 c 0
 576 212 576 219 577 226 c 0
 597 454 695 620 695 647 c 0
 695 649 695 651 693 651 c 0
 692 651 689 649 687 648 c 0
 453 517 311 120 263 44 c 0
 247 19 230 0 192 0 c 0
 97 0 95 126 95 223 c 0
 95 772 131 1357 342 1706 c 0
 408 1816 505 1920 665 1920 c 0xf8
314 710 m 1
 387 880 473 1069 540 1240 c 0
 596 1382 652 1513 652 1653 c 0
 652 1704 645 1729 632 1729 c 0
 615 1729 589 1701 555 1644 c 0
 521 1587 474 1508 435 1397 c 0
 365 1196 333 952 314 710 c 1
EndSplineSet
Ligature2: "'liga' Ligatures lookup 0 subtable" h space
EndChar

StartChar: o.space
Encoding: 237 -1 237
Width: 1487
Flags: W
HStem: 0 192<325.966 528.742> 407 195<782.5 953.443> 768 192<385.843 636.5>
VStem: 67 194<261.07 622.677>
LayerCount: 2
Fore
SplineSet
545 960 m 0
 728 960 826 808 826 618 c 0
 826 607 831 602 841 602 c 0
 940 602 1003 699 1057 724 c 0
 1066 732 1077 736 1089 736 c 0
 1095 736 l 0
 1135 736 1176 735 1176 694 c 0
 1176 685 1174 673 1169 659 c 0
 1117 554 980 407 788 407 c 0
 777 407 770 409 765 412 c 1
 726 237 646 0 397 0 c 0
 166 0 67 206 67 437 c 0
 67 739 243 960 545 960 c 0
261 446 m 0
 261 313 304 192 436 192 c 0
 545 192 611 352 611 461 c 1
 545 498 449 549 449 641 c 0
 449 686 478 722 500 746 c 0
 506 753 509 758 509 762 c 256
 509 766 504 768 494 768 c 0
 354 768 261 588 261 446 c 0
EndSplineSet
LCarets2: 1 0 
Ligature2: "'liga' Ligatures lookup 0 subtable" o space
EndChar

StartChar: s.space
Encoding: 238 -1 238
Width: 1274
Flags: W
HStem: -9 169<193.555 427.089> 940 20G<487.5 574.5>
VStem: 449 202<197.307 455.709>
LayerCount: 2
Fore
SplineSet
103 130 m 5
 86 126 68 125 49 125 c 4
 -10 125 -31 152 -31 186 c 4
 -31 228 9 273 30 304 c 4
 127 444 269 670 375 864 c 4
 406 911 449 960 526 960 c 4
 623 960 655 925 655 878 c 4
 655 822 609 750 573 706 c 4
 561 691 553 679 552 672 c 5
 558 546 651 445 651 329 c 4
 651 287 642 243 616 196 c 5
 770 221 850 297 949 368 c 5
 964 382 983 388 1000 388 c 4
 1039 388 1075 357 1075 309 c 4
 1075 267 1048 212 971 154 c 5
 838 68 619 -9 383 -9 c 4
 228 -9 127 35 103 130 c 5
191 196 m 5
 239 196 267 160 332 160 c 4
 421 160 449 219 449 292 c 4
 449 368 407 459 375 512 c 5
 191 196 l 5
EndSplineSet
Ligature2: "'liga' Ligatures lookup 0 subtable" s space
EndChar

StartChar: n.space
Encoding: 239 -1 239
Width: 1397
Flags: W
HStem: 0 224<809.166 929.259> 940 20G<289.5 362.5 698.5 778.5>
VStem: 114 268<544 662.351> 592 211<232.967 585.223>
LayerCount: 2
Fore
SplineSet
241 0 m 0
 132 0 114 100 114 209 c 0
 114 431 154 667 198 852 c 0
 212 911 253 960 326 960 c 256
 399 960 422 911 422 839 c 0
 422 739 382 640 382 544 c 1
 402 544 l 1
 458 647 517 765 576 866 c 0
 612 926 657 960 740 960 c 256
 817 960 849 886 849 802 c 0
 849 660 819 529 806 366 c 0
 804 344 803 325 803 309 c 0
 803 239 837 247 850 224 c 1
 912 224 971 267 1009 289 c 0
 1044 311 1082 336 1120 365 c 0
 1143 381 1164 388 1183 388 c 0
 1226 388 1256 354 1256 309 c 0
 1256 266 1228 213 1157 172 c 0
 1035 97 910 0 714 0 c 256
 628 0 592 68 592 241 c 0
 592 263 593 287 594 312 c 0
 598 408 608 499 622 591 c 1
 606 591 l 1
 344 71 l 2
 322 27 297 0 241 0 c 0
EndSplineSet
Ligature2: "'liga' Ligatures lookup 0 subtable" n space
EndChar

StartChar: b.space
Encoding: 240 -1 240
Width: 1344
Flags: HW
HStem: 2 190<315.502 580.226> 727 187<552.669 766.926> 1728 192<568.568 659.216>
VStem: 666 216<1395.66 1726.64> 698 239<365.929 688.178>
LayerCount: 2
Fore
SplineSet
624 1920 m 0xe8
 809 1920 882 1779 882 1631 c 0xf0
 882 1280 625 1014 462 816 c 1
 478 805 l 1
 519 863 615 914 709 914 c 0
 825 914 937 836 937 597 c 0
 937 336 746 2 483 2 c 0
 318 2 176 69 76 137 c 0
 64 145 59 150 58 152 c 0
 76 638 165 1123 300 1512 c 0
 352 1662 442 1920 624 1920 c 0xe8
698 537 m 0xe8
 698 647 652 727 573 727 c 0
 360 727 328 404 314 225 c 1
 355 208 401 192 452 192 c 0
 642 192 698 406 698 537 c 0xe8
326 865 m 1
 451 1101 666 1318 666 1648 c 0xf0
 666 1683 651 1728 615 1728 c 0
 515 1728 350 994 326 865 c 1
EndSplineSet
Ligature2: "'liga' Ligatures lookup 0 subtable" b space
EndChar

StartChar: g.space
Encoding: 241 -1 241
Width: 1384
Flags: HW
HStem: -928 192<87.5409 245.114> -145 226<805.951 1077.81> -2 194<192 411.652> 768 190<457.516 583.204>
VStem: -110 196<-735.77 -594.642> 18 256<201.368 524.198>
LayerCount: 2
Back
SplineSet
114 -928 m 4xe8
 -22.2471 -928 -110 -869.686 -110 -729 c 4xf0
 -110 -588.323 -0.846055 -466.675 71 -378.5 c 4
 186.278 -237.022 326.091 -104.286 468 12 c 5
 495 105 l 5
 438.972 55.1975 360.865 -2 269 -2 c 4
 114.517 -2 18 123.1 18 281 c 4
 18 582.881 210.106 834.724 421.5 928.5 c 4
 465.833 948.167 511 958 557 958 c 4
 630.22 958 616.581 882 701 882 c 4
 715.561 882 731.44 883 746 883 c 4
 803.217 883 818 849.461 818 790 c 4
 818 543.093 761.788 325.362 722 94 c 5
 946.432 131.682 981.575 205.871 1250 257 c 5
 1298 35 l 5
 1057.85 4.84719 910.495 -85.5017 690 -128 c 5
 632.764 -450.327 537.77 -787.659 271 -898.5 c 4
 223.667 -918.167 171.333 -928 114 -928 c 4xe8
274 324 m 4xe8
 274 259.53 288.311 192 352 192 c 4
 459.651 192 504.515 380.091 524 474 c 6
 585 768 l 5
 397.713 768 274 508.123 274 324 c 4xe8
126 -736 m 4
 321.826 -736 401.711 -417.495 434 -256 c 5
 302.164 -343.891 165.951 -489.447 101 -641 c 4
 91 -664.331 86 -683.664 86 -699 c 4xf0
 86 -723.667 99.3333 -736 126 -736 c 4
EndSplineSet
Fore
SplineSet
114 -928 m 0xd4
 -22 -928 -110 -870 -110 -729 c 0
 -110 -588 -1 -466 71 -378 c 0
 180 -269 313 -167 448 -78 c 1
 495 105 l 1
 439 55 361 -2 269 -2 c 0xb8
 115 -2 18 123 18 281 c 0
 18 583 211 834 422 928 c 0
 466 948 511 958 557 958 c 0
 630 958 617 882 701 882 c 0
 716 882 731 883 746 883 c 0
 803 883 818 849 818 790 c 0
 818 511 750 265 702 4 c 1
 793 32 844 55 990 77 c 1
 994 79 1000 81 1005 81 c 0
 1053 81 1134 -9 1134 -75 c 0
 1134 -112 1108 -142 1038 -145 c 1
 893 -159 783 -179 670 -218 c 1
 615 -503 525 -800 271 -898 c 0
 224 -918 171 -928 114 -928 c 0xd4
274 324 m 0xb4
 274 260 288 192 352 192 c 0
 460 192 505 380 524 474 c 2
 585 768 l 1
 398 768 274 508 274 324 c 0xb4
126 -736 m 0
 309 -736 384 -477 414 -346 c 1
 290 -413 162 -525 101 -641 c 0
 91 -664 86 -684 86 -699 c 0x98
 86 -724 99 -736 126 -736 c 0
EndSplineSet
Ligature2: "'liga' Ligatures lookup 0 subtable" g space
EndChar

StartChar: p.space
Encoding: 242 -1 242
Width: 1306
Flags: HW
HStem: -778 229<-101 84.2599> 774 186<422.532 619.272>
VStem: -215 191<-540.585 -223.963> 114 234<-374.978 20> 643 197<506.608 750.362>
LayerCount: 2
Back
SplineSet
790 651 m 4
 790 407.181 620.198 277.31 444 199 c 5
 450 178 l 5
 714.927 178 883.644 285.58 1005 429 c 5
 1016 200 l 5
 932.844 98.6709 787.755 0 608 0 c 4
 523.933 -0.000549753 448.718 28.4384 348 43 c 5
 348 25 l 6
 348 -285.774 281.568 -580.6 119 -721 c 4
 75 -759 29.3333 -778 -18 -778 c 4
 -184.14 -778 -215 -598.054 -215 -429 c 4
 -215 -264.477 -122.591 -116.81 -61 0 c 4
 -15.6667 85.3333 36 173.333 94 264 c 5
 136.326 564.128 158.296 960 497 960 c 4
 690.117 960 790 847.809 790 651 c 4
324 279 m 5
 458.239 346.119 583.087 470.405 592.5 655.5 c 4
 595.662 717.689 571.345 774 509 774 c 4
 331.517 774 324 457.793 324 279 c 5
-24 -441 m 4
 -24 -484.35 0.00464833 -549 44 -549 c 4
 128.694 -549 111.01 -176.742 114.5 -89.5 c 4
 116 -52 116 -52 117 -27 c 4
 117.667 -8.33333 118.333 7.33333 119 20 c 5
 53.3106 -94.0921 9.01907 -250.898 -18.5 -398.5 c 4
 -22.1667 -418.166 -24 -432.333 -24 -441 c 4
EndSplineSet
Fore
SplineSet
840 631 m 0
 840 341 576 228 342 144 c 1
 348 25 l 1
 348 -286 282 -581 119 -721 c 0
 75 -759 29 -778 -18 -778 c 0
 -184 -778 -215 -598 -215 -429 c 0
 -215 -264 -123 -117 -61 0 c 0
 -16 85 36 173 94 264 c 1
 138 564 161 960 517 960 c 0
 730 960 840 841 840 631 c 0
324 309 m 1
 482 366 643 480 643 646 c 0
 643 715 609 774 529 774 c 0
 333 774 324 477 324 309 c 1
119 20 m 1
 55 -91 -24 -284 -24 -441 c 0
 -24 -484 0 -549 44 -549 c 0
 111 -549 114 -313 114 -173 c 2
 114 -90 l 1
 117 -27 l 2
 118 -8 118 7 119 20 c 1
EndSplineSet
LCarets2: 1 0 
Ligature2: "'liga' Ligatures lookup 0 subtable" p space
EndChar

StartChar: Ph
Encoding: 243 -1 243
Width: 2254
Flags: HW
HStem: -255 234<469.953 658.351> 0 236<1981 2217.04> 965 20G<557.5 610 1999 2145.5> 1588 235<737.731 1264.88> 1745 182<1964.59 2179.5>
VStem: 100 268<217.51 1045.87> 775 241<160.125 708.783> 1300 230<425 650.611> 1832 250<163 510.621> 2114 179<1608 1827>
LayerCount: 2
Fore
SplineSet
935 1588 m 0xf7c0
 518 1588 368 1113 368 693 c 0
 368 663 368 627 368 589 c 0
 368 347 380 -21 558 -21 c 0
 770 -21 775 406 775 627 c 2
 775 694 l 1
 663 735 536 760 536 888 c 0
 536 931 536 985 579 985 c 0
 641 985 706 923 765 910 c 1
 765 1114 794 1370 990 1370 c 0
 1049 1370 1098 1347 1098 1287 c 0
 1098 1278 1097 1278 1097 1271 c 1
 1038 1000 l 1
 1029 921 l 1
 1348 993 1511 1153 1511 1300 c 0
 1511 1451 1321 1588 935 1588 c 0xf7c0
100 667 m 0
 100 1259 382 1823 958 1823 c 0xf7c0
 1333 1823 1557 1702 1650 1538 c 1
 1782 1768 1945 1927 2126 1927 c 0xefc0
 2233 1927 2293 1876 2293 1778 c 0
 2293 1597 2086 1255 1585 779 c 1
 1549 612 1530 475 1530 425 c 1
 1603 619 1882 978 2116 978 c 0
 2175 978 2203 931 2203 868 c 0
 2203 673 2082 503 2082 301 c 0
 2082 269 2087 236 2116 236 c 0
 2258 236 2372 394 2441 478 c 1
 2458 212 l 1
 2357 134 2215 0 2046 0 c 0
 1916 0 1832 100 1832 226 c 0
 1832 363 1879 598 1955 674 c 1
 1934 677 l 1
 1735 548 1647 250 1518 44 c 1
 1491 19 1461 0 1397 0 c 0
 1302 0 1300 126 1300 223 c 0
 1300 401 1331 624 1387 850 c 1
 1287 786 1165 735 1023 706 c 1
 1021 650 1019 599 1018 552 c 2
 1016 500 l 2
 1015 463 1013 427 1013 393 c 0
 1004 81 853 -255 536 -255 c 0
 172 -255 100 308 100 667 c 0
1643 1020 m 1
 1828 1229 2114 1592 2114 1695 c 0
 2114 1727 2098 1745 2064 1745 c 0xefc0
 1886 1745 1738 1372 1643 1020 c 1
EndSplineSet
Ligature2: "'liga' Ligatures lookup 0 subtable" P h
EndChar

StartChar: t.space
Encoding: 244 -1 244
Width: 1433
Flags: W
HStem: 0 204<418.647 688.829> 896 158<623.519 953.306> 928 161<-70.9295 178.559> 1568 224<527.596 635.171>
VStem: 137 234<251.435 755.352> 640 160<1338.26 1565.82>
LayerCount: 2
Fore
SplineSet
772 1054 m 2xdc
 814 1054 l 2
 905 1054 960 1050 960 975 c 0
 960 935 933 896 896 896 c 2
 512 896 l 1xdc
 477 847 435 793 399 748 c 1
 388 628 371 513 371 420 c 0
 371 291 403 204 530 204 c 2
 532 204 l 2
 700 204 874 361 960 450 c 0
 986 478 1032 513 1064 513 c 0
 1104 513 1136 435 1136 385 c 0
 1136 376 1135 368 1133 361 c 1
 1012 199 744 0 449 0 c 0
 227 0 137 204 137 509 c 0
 137 634 152 776 179 928 c 1
 101 938 56 950 -32 960 c 0
 -78 966 -96 987 -96 1037 c 0
 -96 1080 -39 1089 28 1089 c 0xbc
 74 1089 125 1085 164 1085 c 0
 181 1085 196 1086 207 1088 c 1
 255 1329 337 1591 481 1732 c 0
 522 1772 564 1792 609 1792 c 0
 743 1792 800 1637 800 1499 c 0
 800 1318 698 1174 623 1055 c 1
 634 1054 649 1053 668 1053 c 0
 697 1053 735 1054 772 1054 c 2xdc
398 1080 m 1
 419 1077 438 1076 459 1073 c 1
 518 1173 583 1291 623 1408 c 0
 634 1441 640 1469 640 1490 c 0
 640 1532 630 1568 587 1568 c 0
 480 1568 420 1178 398 1080 c 1
EndSplineSet
LCarets2: 1 0 
Ligature2: "'liga' Ligatures lookup 0 subtable" t space
EndChar

StartChar: w.space
Encoding: 245 -1 245
Width: 1753
Flags: HW
HStem: 145 173<1107.72 1334.31> 941 18G<172.5 282 658.5 741.5 1094.5 1156.5>
VStem: 72 231<361.074 464.797> 591 136<360.736 448.583>
LayerCount: 2
Fore
SplineSet
1494 367 m 0
 1494 234 1320 145 1216 145 c 0
 1060 145 986 225 953 303 c 1
 901 197 837 87 737 27 c 0
 709 10 684 0 657 0 c 0
 598 0 591 239 591 390 c 0
 591 432 592 467 592 489 c 1
 563 494 l 1
 515 315 441 130 317 36 c 0
 285 12 254 0 223 0 c 0
 81 0 72 263 72 455 c 2
 72 512 l 2
 72 685 87 961 258 961 c 1
 282 959 l 1
 329 959 373 942 373 902 c 0
 373 900 373 898 373 895 c 2
 303 354 l 1
 316 355 l 1
 384 513 433 668 506 810 c 0
 548 892 599 959 718 959 c 0
 765 959 810 942 810 903 c 0
 810 900 809 898 809 895 c 2
 727 354 l 1
 741 355 l 1
 980 889 l 2
 998 931 1062 960 1127 960 c 0
 1186 960 1246 934 1246 876 c 0
 1246 763 1175 661 1139 582 c 0
 1128 558 1093 484 1093 420 c 0
 1093 365 1119 318 1209 318 c 0
 1295 318 1368 385 1436 435 c 0
 1440 438 1443 439 1447 439 c 0
 1469 439 1494 401 1494 367 c 0
EndSplineSet
LCarets2: 1 0 
Ligature2: "'liga' Ligatures lookup 0 subtable" w space
EndChar

StartChar: l_k
Encoding: 246 -1 246
Width: 1785
Flags: HW
HStem: -1 194<1418.05 1675.15> 0 244<246.124 555.655> 694 268<1423.91 1646.14> 1641 279<542.253 762.728> 1682 225<1267.3 1466.27>
VStem: 72 258<254.512 1016.28> 661 188<1397.5 1751.78> 1254 229<197.614 355.577> 1371 201<1484.37 1750.99> 1479 284<620.852 843.697>
LayerCount: 2
Fore
SplineSet
661 1593 m 0x36
 661 1620 651 1641 630 1641 c 0
 404 1641 320 975 320 740 c 1
 442 955 565 1198 636 1460 c 0
 649 1508 661 1552 661 1593 c 0x36
330 461 m 0
 330 397 340 244 396 244 c 0
 545 244 720 384 828 486 c 1
 846 949 919 1402 1096 1698 c 0
 1156 1799 1247 1907 1400 1907 c 0
 1533 1907 1572 1817 1572 1685 c 0x6e80
 1572 1320 1386 996 1249 752 c 1
 1136 572 l 1
 1154 559 l 1
 1260 686 1339 845 1475 930 c 0
 1509 951 1548 962 1591 962 c 0
 1701 962 1763 889 1763 776 c 0x6e40
 1763 590 1575 447 1504 320 c 0
 1490 296 1483 276 1483 260 c 0
 1483 211 1506 193 1555 193 c 0
 1703 193 1835 393 1909 456 c 1
 1899 231 l 1
 1793 121 1690 -1 1472 -1 c 0
 1351 -1 1254 86 1254 205 c 0xaf
 1254 390 1395 509 1468 638 c 0
 1475 650 1479 662 1479 671 c 0
 1479 689 1466 694 1444 694 c 0
 1404 694 1377 626 1347 587 c 2
 1270 486 l 2
 1179 367 1094 -8 913 -8 c 0
 842 -8 825 108 823 208 c 1
 678 88 524 0 329 0 c 0x6640
 139 0 72 320 72 519 c 0
 72 998 187 1476 402 1748 c 0
 472 1837 565 1920 705 1920 c 0
 820 1920 849 1810 849 1694 c 0
 849 1341 682 1047 534 821 c 0
 474 729 411 644 348 565 c 0
 333 546 330 498 330 461 c 0
1350 1682 m 0
 1238 1682 1192 1487 1164 1397 c 0
 1097 1186 1071 936 1052 685 c 1
 1146 966 1252 1251 1342 1523 c 0
 1355 1562 1371 1607 1371 1650 c 0
 1371 1671 1364 1682 1350 1682 c 0
EndSplineSet
Ligature2: "'liga' Ligatures lookup 0 subtable" l k
EndChar

StartChar: l_k.space
Encoding: 247 -1 247
Width: 2270
Flags: HW
HStem: -6 199<1513.01 1659.64> 0 244<245.829 555.36> 694 268<1423.61 1645.85> 1641 279<541.958 762.433> 1682 225<1267.01 1465.98>
VStem: 72 258<254.512 1016.28> 661 188<1397.5 1751.78> 1292 219<195.783 366.675> 1371 201<1484.37 1750.99>
LayerCount: 2
Fore
SplineSet
661 1593 m 0x36
 661 1620 651 1641 630 1641 c 0
 404 1641 320 975 320 740 c 1
 442 955 564 1198 635 1460 c 0
 648 1508 661 1552 661 1593 c 0x36
1539 -6 m 0xaf
 1407 -6 1292 83 1292 241 c 0
 1292 367 1411 520 1468 638 c 0
 1474 651 1479 662 1479 671 c 0
 1479 689 1466 694 1444 694 c 0
 1404 694 1377 626 1347 587 c 0
 1259 472 1089 -8 913 -8 c 0
 842 -8 825 108 823 208 c 1
 678 88 524 0 329 0 c 0
 139 0 72 320 72 519 c 0
 72 998 187 1476 402 1748 c 0
 472 1837 565 1920 705 1920 c 0x77
 820 1920 849 1810 849 1694 c 0
 849 1341 681 1047 533 821 c 0
 473 729 411 644 348 565 c 0
 333 546 330 498 330 461 c 0
 330 397 340 244 396 244 c 0
 545 244 720 384 828 486 c 1
 846 949 919 1402 1096 1698 c 0
 1156 1799 1247 1907 1400 1907 c 0
 1533 1907 1572 1817 1572 1685 c 0x6e80
 1572 1320 1386 996 1249 752 c 1
 1136 572 l 1
 1154 559 l 1
 1260 686 1339 845 1475 930 c 0
 1509 951 1548 962 1591 962 c 0
 1701 962 1763 889 1763 776 c 0
 1763 689 1511 355 1511 236 c 0
 1511 209 1524 193 1555 193 c 0
 1700 193 1819 447 1901 581 c 0
 1917 607 1942 620 1967 620 c 0
 2008 620 2049 586 2049 525 c 0
 2049 499 2039 468 2023 431 c 0
 1888 136 1733 -6 1539 -6 c 0xaf
1350 1682 m 0x2e80
 1238 1682 1192 1487 1164 1397 c 0
 1097 1186 1071 936 1052 685 c 1
 1146 966 1252 1251 1342 1523 c 0
 1355 1562 1371 1607 1371 1650 c 0
 1371 1671 1364 1682 1350 1682 c 0x2e80
EndSplineSet
LCarets2: 2 0 0 
Ligature2: "'liga' Ligatures lookup 0 subtable" l k space
EndChar

StartChar: y.space
Encoding: 248 -1 248
Width: 1375
Flags: W
HStem: -928 192<133.541 286.159> -2 194<238 457.504> 85 223<1197.15 1387.17> 889 35G<308.5 365.5 779.5 846>
VStem: -64 196<-735.77 -584.734> 64 256<201.368 618.325> 192 235<735.938 884.47> 640 259<707.789 849.679>
LayerCount: 2
Fore
SplineSet
320 324 m 0xd5
 320 260 334 192 398 192 c 0xd5
 506 192 548 381 570 474 c 2
 640 768 l 2
 658 846 733 909 826 909 c 0
 866 909 899 893 899 853 c 0
 899 718 841 553 819 412 c 0
 802 313 785 207 768 94 c 1
 937 192 1151 255 1306 307 c 0
 1309 308 1313 308 1316 308 c 0
 1373 308 1417 235 1417 172 c 0
 1417 131 1399 96 1354 85 c 0
 1219 53 917 -44 736 -128 c 1
 679 -450 584 -787 317 -898 c 0
 270 -918 217 -928 160 -928 c 0
 24 -928 -64 -870 -64 -729 c 0xb9
 -64 -588 45 -466 117 -378 c 0
 232 -237 372 -104 514 12 c 1
 541 105 l 1
 485 55 407 -2 315 -2 c 0
 161 -2 64 123 64 281 c 0xd5
 64 513 116 677 192 832 c 0
 217 881 275 924 342 924 c 0
 389 924 427 900 427 852 c 0xd3
 427 793 397 751 380 692 c 0
 350 584 320 454 320 324 c 0xd5
172 -736 m 0
 368 -736 448 -417 480 -256 c 1
 348 -344 212 -489 147 -641 c 0
 137 -664 132 -684 132 -699 c 0x99
 132 -724 145 -736 172 -736 c 0
EndSplineSet
LCarets2: 1 0 
Ligature2: "'liga' Ligatures lookup 0 subtable" y space
EndChar

StartChar: y.period
Encoding: 249 -1 249
Width: 1375
Flags: HW
HStem: -928 192<133.541 284.687> -73 372<1266 1518.4> -2 194<238 462.032> 37 163<962.975 1099.66> 904 20G<308.5 365.5 779.5 846>
VStem: -64 196<-735.77 -562.187> 64 256<201.368 618.325> 192 235<735.938 884.47> 1198 385<-4.2754 231.295>
DStem2: 768 94 745 -98 0.917273 0.398258<0 304.649>
LayerCount: 2
Fore
SplineSet
172 -736 m 0x8c80
 368 -736 448 -417 480 -256 c 1
 365 -333 132 -526 132 -699 c 0
 132 -724 145 -736 172 -736 c 0x8c80
1398 -73 m 0xc880
 1267 -73 1198 25 1198 120 c 0
 1198 211 1261 299 1393 299 c 0
 1518 299 1583 201 1583 106 c 0
 1583 15 1523 -73 1398 -73 c 0xc880
1078 37 m 0x9a80
 992 6 889 -37 745 -98 c 1
 683 -457 572 -928 160 -928 c 0
 24 -928 -64 -870 -64 -729 c 0x9c80
 -64 -433 335 -154 522 -8 c 1
 561 165 l 1
 510 50 415 -2 315 -2 c 0
 161 -2 64 123 64 281 c 0xaa80
 64 513 116 677 192 832 c 0
 217 881 275 924 342 924 c 0
 389 924 427 900 427 852 c 0xa980
 427 793 397 751 380 692 c 0
 350 584 320 454 320 324 c 0
 320 260 334 192 398 192 c 0xaa80
 512 192 557 401 580 504 c 2
 640 768 l 2
 658 847 733 909 826 909 c 0
 866 909 899 893 899 853 c 0
 899 718 842 553 819 412 c 0
 803 313 785 207 768 94 c 1
 841 126 917 160 995 188 c 0
 1020 197 1040 200 1055 200 c 0
 1089 200 1108 150 1108 105 c 0
 1108 73 1099 44 1078 37 c 0x9a80
EndSplineSet
LCarets2: 1 0 
Ligature2: "'liga' Ligatures lookup 0 subtable" y period
EndChar

StartChar: o_o
Encoding: 250 -1 250
Width: 1713
Flags: HW
HStem: 0 192<335.966 537.003 1201.99 1383.93> 405 197<802.5 927.23> 768 192<395.843 646.5 1265.83 1438.39>
VStem: 77 194<261.07 622.677> 943 214<236.777 460.243> 1477 192<325.693 719.331>
LayerCount: 2
Fore
SplineSet
271 446 m 0
 271 313 314 192 446 192 c 0
 553 192 618 340 618 440 c 1
 553 481 459 538 459 641 c 0
 459 686 488 722 510 746 c 0
 516 753 519 758 519 762 c 0
 519 766 514 768 504 768 c 0
 364 768 271 588 271 446 c 0
555 960 m 0
 738 960 836 808 836 618 c 0
 836 607 841 602 851 602 c 0
 906 602 945 636 980 686 c 1
 1051 853 1201 960 1411 960 c 0
 1698 960 1867 769 1996 606 c 1
 1977 465 l 1
 1891 580 1739 680 1619 760 c 1
 1611 749 l 1
 1644 683 1669 595 1669 503 c 0
 1669 246 1517 0 1263 0 c 0
 1041 0 944 217 943 462 c 1
 902 426 857 405 808 405 c 0
 797 405 790 407 785 410 c 1
 745 236 663 0 407 0 c 0
 176 0 77 206 77 437 c 0
 77 739 253 960 555 960 c 0
1157 396 m 0
 1157 287 1193 192 1302 192 c 0
 1420 192 1477 425 1477 551 c 0
 1477 650 1456 768 1360 768 c 0
 1225 768 1157 538 1157 396 c 0
EndSplineSet
Ligature2: "'liga' Ligatures lookup 0 subtable" o o
EndChar

StartChar: l_i
Encoding: 251 -1 251
Width: 1337
Flags: HW
HStem: 0 220<226 508.725> 0 192<937.5 1200.21> 940 20G<1095.5 1159> 1089 319<1089.61 1340.92> 1641 279<564.667 784.5>
VStem: 64 258<254.877 783.924> 683 188<1402.66 1752> 817 256<193.631 402> 953 254<704.498 922.256> 1032 366<1145.59 1352.11>
LayerCount: 2
Fore
SplineSet
683 1593 m 0x3e
 683 1620 673 1641 652 1641 c 0
 426 1641 342 975 342 740 c 1
 464 955 587 1198 658 1460 c 0
 671 1508 683 1552 683 1593 c 0x3e
322 461 m 0
 322 288 364 220 432 220 c 0
 537 220 704 382 875 578 c 1
 901 677 930 772 953 863 c 0
 969 928 1056 960 1135 960 c 0
 1183 960 1207 945 1207 903 c 0xbe80
 1207 695 1073 514 1073 290 c 0
 1073 240 1078 192 1124 192 c 0
 1247 192 1364 330 1437 387 c 0
 1453 400 1464 406 1474 406 c 0
 1503 406 1510 354 1510 313 c 0
 1510 286 1507 263 1507 263 c 0
 1396 149 1207 0 1003 0 c 0x7d
 872 0 817 71 817 201 c 0
 817 231 819 261 821 290 c 1
 670 130 514 0 321 0 c 0xbd
 131 0 64 320 64 519 c 0
 64 998 192 1474 424 1748 c 0
 497 1835 587 1920 727 1920 c 0
 842 1920 871 1810 871 1694 c 0
 871 1194 584 836 340 565 c 0
 324 547 322 498 322 461 c 0
1204 1089 m 0
 1097 1089 1032 1140 1032 1241 c 0
 1032 1345 1118 1408 1228 1408 c 0
 1326 1408 1398 1366 1398 1268 c 0x3c40
 1398 1155 1320 1089 1204 1089 c 0
EndSplineSet
Ligature2: "'liga' Ligatures lookup 0 subtable" l i
EndChar

StartChar: o_s
Encoding: 252 -1 252
Width: 1561
Flags: W
HStem: -9 169<1003.2 1181.54> 0 192<325.966 528.742> 407 195<782.5 965.491> 768 192<385.843 636.5>
VStem: 67 194<261.07 622.677> 1207 210<227.098 490.126>
LayerCount: 2
Fore
SplineSet
1129 605 m 1xbc
 1082 523 960 407 788 407 c 0
 777 407 770 409 765 412 c 1
 726 237 646 0 397 0 c 0x7c
 166 0 67 206 67 437 c 0
 67 739 243 960 545 960 c 0
 728 960 826 808 826 618 c 0
 826 607 831 602 841 602 c 0
 986 602 1070 762 1143 864 c 0
 1176 910 1217 960 1294 960 c 0
 1391 960 1423 925 1423 878 c 0
 1423 822 1377 750 1341 706 c 0
 1329 691 1321 679 1320 672 c 1
 1329 541 1417 447 1417 316 c 0
 1417 288 1413 258 1403 226 c 1
 1497 251 1586 309 1668 374 c 0
 1705 403 1728 416 1743 416 c 0
 1778 416 1767 343 1779 224 c 1
 1632 101 1392 -9 1131 -9 c 0
 971 -9 867 54 842 190 c 1
 870 243 899 256 930 256 c 0
 981 256 1011 160 1080 160 c 0
 1177 160 1207 220 1207 292 c 0
 1207 400 1162 530 1129 605 c 1xbc
261 446 m 0
 261 313 304 192 436 192 c 0
 545 192 611 352 611 461 c 1
 545 498 449 549 449 641 c 0
 449 686 478 722 500 746 c 0
 506 753 509 758 509 762 c 256
 509 766 504 768 494 768 c 0
 354 768 261 588 261 446 c 0
EndSplineSet
Ligature2: "'liga' Ligatures lookup 0 subtable" o s
EndChar
